<svg width="367" height="15" viewBox="0 0 367 15" fill="none" xmlns="http://www.w3.org/2000/svg">
<ellipse cx="7.26733" cy="7.26733" rx="7.26733" ry="7.26733" transform="matrix(-1 0 0 1 367 0)" fill="url(#paint0_linear_1163_1418)" fill-opacity="0.49"/>
<ellipse cx="6.35891" cy="6.35891" rx="6.35891" ry="6.35891" transform="matrix(-1 0 0 1 350.649 0.908447)" fill="url(#paint1_linear_1163_1418)" fill-opacity="0.49"/>
<ellipse cx="5.45049" cy="5.4505" rx="5.45049" ry="5.4505" transform="matrix(-1 0 0 1 336.114 1.81689)" fill="url(#paint2_linear_1163_1418)" fill-opacity="0.49"/>
<path d="M0 7.26733L10 1.49383V13.0408L0 7.26733ZM9 7.26733V6.26733L317.946 6.26733V7.26733V8.26733L9 8.26733V7.26733Z" fill="url(#paint3_linear_1163_1418)"/>
<defs>
<linearGradient id="paint0_linear_1163_1418" x1="2.27104" y1="2.27104" x2="10.901" y2="13.6262" gradientUnits="userSpaceOnUse">
<stop stop-color="#FFB700"/>
<stop offset="1" stop-color="#FF3B00"/>
</linearGradient>
<linearGradient id="paint1_linear_1163_1418" x1="3.63366" y1="0.908416" x2="7.72153" y2="12.7178" gradientUnits="userSpaceOnUse">
<stop stop-color="#FFB700"/>
<stop offset="1" stop-color="#FF3B00"/>
</linearGradient>
<linearGradient id="paint2_linear_1163_1418" x1="2.72525" y1="1.81683" x2="9.08416" y2="8.62995" gradientUnits="userSpaceOnUse">
<stop stop-color="#FFB700"/>
<stop offset="1" stop-color="#FF3B00"/>
</linearGradient>
<linearGradient id="paint3_linear_1163_1418" x1="0" y1="6.76733" x2="317.946" y2="6.76733" gradientUnits="userSpaceOnUse">
<stop stop-color="#FFB700"/>
<stop offset="1" stop-color="#FF3B00"/>
</linearGradient>
</defs>
</svg>
