<svg width="75" height="62" viewBox="0 0 75 62" fill="none" xmlns="http://www.w3.org/2000/svg">
<path fill-rule="evenodd" clip-rule="evenodd" d="M17.3809 53.1812C23.1799 53.0738 32.2544 53.7181 37.4628 51.463L37.8924 50.5501C33.6505 52.7516 27.744 52.8053 22.7504 52.5369V21.9306C21.5691 21.1431 20.5131 20.4093 19.5824 19.7291V48.6171C19.5287 50.4427 19.0991 52.6979 17.3809 52.9664V53.1812ZM45.5171 46.523C68.2302 24.8839 47.0743 -6.84998 18.4011 1.31168L18.5085 1.63385C44.7654 -5.82977 60.2833 22.8434 45.9467 43.9456L45.5171 46.523Z" fill="#221F1F"/>
<path d="M20.4954 61.7727C3.09817 62.5244 -6.78173 42.9794 5.40706 30.1999C8.73616 26.7635 13.4076 24.6156 18.1328 24.6693V24.8304C4.44055 24.7767 -4.68762 41.5833 3.04448 52.8593C14.1594 68.4846 41.3828 62.1486 41.0606 41.8518C41.4365 24.3472 15.287 20.857 14.4278 10.6549C14.8037 0.291752 28.9255 -0.0841172 35.53 4.69475C35.53 4.96323 36.2281 8.6682 36.3355 9.04406H35.9059C34.2951 5.98344 33.4359 4.58736 30.2142 3.35237C26.6703 2.06369 22.321 1.79522 19.3678 4.47997C17.7569 5.87605 16.9515 7.59429 16.9515 9.63471C17.2737 13.2323 21.5156 14.7894 25.3817 17.4205C35.2616 23.4881 44.4434 29.9315 44.5508 42.3351C44.2287 54.0406 32.3083 62.2023 20.4954 61.7727Z" fill="#6A1E3F"/>
<path d="M14.8029 47.7578C14.8029 49.6908 12.8161 50.2278 10.8831 50.2278C8.9501 50.2278 6.96338 49.6908 6.96338 47.7578" fill="white"/>
<path d="M10.8836 50.2278C10.3466 50.2278 9.86339 50.192 9.43383 50.1204C8.93268 50.0488 8.50311 49.9235 8.14515 49.7445C7.32182 49.315 6.91016 48.6527 6.91016 47.7578H6.96385C6.99965 48.6169 7.41131 49.2613 8.19884 49.6908C8.84318 50.013 9.756 50.1741 10.8836 50.1741C11.9575 50.1741 12.8703 50.013 13.5147 49.6908C14.338 49.2613 14.7497 48.6169 14.7497 47.7578H14.8033C14.8033 48.6527 14.3917 49.315 13.5684 49.7445C13.2104 49.9235 12.7987 50.0488 12.3334 50.1204C11.868 50.192 11.3848 50.2278 10.8836 50.2278Z" fill="#221F1F"/>
<path d="M14.8029 47.811C14.8029 48.7775 13.0309 49.5829 10.8831 49.5829C8.68162 49.5829 6.96338 48.7775 6.96338 47.811C6.96338 46.8445 8.68162 46.0391 10.8831 46.0391C13.0309 46.0391 14.8029 46.8445 14.8029 47.811Z" fill="white"/>
<path fill-rule="evenodd" clip-rule="evenodd" d="M10.8836 49.6366C9.8097 49.6366 8.84318 49.4755 8.09145 49.0997C7.33972 48.7775 6.91016 48.2942 6.91016 47.811C6.91016 47.3277 7.33972 46.8445 8.09145 46.5223C8.84318 46.2001 9.8097 45.9854 10.8836 45.9854C11.9038 45.9854 12.924 46.2001 13.6757 46.5223C14.4275 46.8445 14.8033 47.3277 14.8033 47.811C14.8033 48.2942 14.4275 48.7775 13.6757 49.0997C12.924 49.4755 11.9038 49.6366 10.8836 49.6366ZM10.8836 46.0927C9.8097 46.0927 8.84318 46.2538 8.09145 46.576C7.73348 46.755 7.46501 46.9519 7.28602 47.1666C7.07124 47.3814 6.96385 47.5962 6.96385 47.811C6.96385 48.0616 7.07124 48.2942 7.28602 48.509C7.46501 48.688 7.73348 48.867 8.09145 49.046C8.84318 49.3681 9.8097 49.5829 10.8836 49.5829C11.9038 49.5829 12.8703 49.3681 13.622 49.046C13.98 48.867 14.2485 48.688 14.4275 48.509C14.6423 48.2942 14.7497 48.0616 14.7497 47.811C14.7497 47.5962 14.6423 47.3814 14.4275 47.1666C14.2485 46.9519 13.98 46.755 13.622 46.576C12.8703 46.2538 11.9038 46.0927 10.8836 46.0927Z" fill="#221F1F"/>
<path d="M7.28613 40.5625V47.7576C7.28613 48.6168 8.89699 49.3148 10.8837 49.3148C12.8704 49.3148 14.4276 48.6168 14.4276 47.7576V40.5625H7.28613Z" fill="#221F1F"/>
<path fill-rule="evenodd" clip-rule="evenodd" d="M10.8836 39.6502C10.454 39.6502 10.0781 39.4891 10.0781 39.2743C10.0781 39.0595 10.454 38.8984 10.8836 38.8984C11.3131 38.8984 11.6353 39.0595 11.6353 39.2743C11.6353 39.4891 11.3131 39.6502 10.8836 39.6502ZM10.8836 38.8984C10.454 38.8984 10.0781 39.0595 10.0781 39.2743C10.0781 39.4891 10.454 39.6502 10.8836 39.6502C11.3131 39.6502 11.6353 39.4891 11.6353 39.2743C11.6353 39.0595 11.3131 38.8984 10.8836 38.8984Z" fill="#221F1F"/>
<path d="M6.96356 39.2734C6.37291 41.0454 8.62811 41.5823 10.8833 41.5823C13.0848 41.5823 15.34 41.0454 14.7494 39.2734" fill="white"/>
<path d="M10.8836 41.636C10.0245 41.636 9.21903 41.5286 8.57469 41.3675C7.85875 41.1886 7.35759 40.9022 7.07122 40.5084C6.82064 40.1505 6.76695 39.7388 6.91013 39.2734H7.01753C6.83854 39.7388 6.87434 40.1326 7.12491 40.4547C7.60817 41.1528 9.00424 41.5286 10.8836 41.5286C12.7629 41.5286 14.1053 41.1528 14.5885 40.4547C14.8391 40.1326 14.8928 39.7388 14.7496 39.2734H14.8033C14.9823 39.7388 14.9465 40.1505 14.6959 40.5084C14.4096 40.9022 13.8905 41.1886 13.1388 41.3675C12.4944 41.5286 11.7427 41.636 10.8836 41.636Z" fill="#221F1F"/>
<path d="M14.7492 39.3277C14.7492 40.1868 13.0309 40.8848 10.8831 40.8848C8.73532 40.8848 6.96338 40.1868 6.96338 39.3277C6.96338 38.4686 8.73532 37.8242 10.8831 37.8242C13.0309 37.8242 14.7492 38.4686 14.7492 39.3277Z" fill="white"/>
<path fill-rule="evenodd" clip-rule="evenodd" d="M10.8836 40.9385C9.8097 40.9385 8.84318 40.7774 8.09145 40.4553C7.33972 40.1868 6.91016 39.7572 6.91016 39.3277C6.91016 38.8981 7.33972 38.5222 8.09145 38.2001C8.84318 37.9316 9.8097 37.7705 10.8836 37.7705C11.9038 37.7705 12.924 37.9316 13.622 38.2001C14.3738 38.5222 14.8033 38.8981 14.8033 39.3277C14.8033 39.7572 14.3738 40.1868 13.622 40.4553C12.924 40.7774 11.9038 40.9385 10.8836 40.9385ZM10.8836 37.8242C9.8097 37.8242 8.84318 37.9853 8.14515 38.3075C7.78718 38.4506 7.50081 38.6117 7.28602 38.7907C7.10704 38.9697 7.01755 39.1487 7.01755 39.3277C7.01755 39.5424 7.10704 39.7393 7.28602 39.9183C7.50081 40.0973 7.78718 40.2584 8.14515 40.4016C8.84318 40.67 9.8097 40.8311 10.8836 40.8311C11.9038 40.8311 12.8703 40.67 13.622 40.4016C13.98 40.2584 14.2485 40.0973 14.4275 39.9183C14.6423 39.7393 14.7497 39.5424 14.7497 39.3277C14.7497 39.1487 14.6423 38.9697 14.4275 38.7907C14.2485 38.6117 13.98 38.4506 13.622 38.3075C12.8703 37.9853 11.9038 37.8242 10.8836 37.8242Z" fill="#221F1F"/>
<path d="M10.0781 39.2743C10.0781 39.0595 10.454 38.8984 10.8836 38.8984L10.0781 39.2743Z" fill="#221F1F"/>
<path fill-rule="evenodd" clip-rule="evenodd" d="M10.8837 40.7238C9.91721 40.7238 9.05809 40.5627 8.41375 40.3479C7.71571 40.0795 7.33984 39.7573 7.33984 39.3277C7.33984 38.9519 7.71571 38.6297 8.41375 38.3612C9.05809 38.0927 9.91721 37.9854 10.8837 37.9854C11.7965 37.9854 12.6557 38.0927 13.3537 38.3612C13.998 38.6297 14.4276 38.9519 14.4276 39.3277C14.4276 39.7573 13.998 40.0795 13.3537 40.3479C12.6557 40.5627 11.7965 40.7238 10.8837 40.7238ZM10.8837 38.1464C9.97091 38.1464 9.11178 38.2538 8.46744 38.5223C7.8231 38.7371 7.50093 39.0593 7.50093 39.3277C7.50093 39.6499 7.8231 39.9721 8.46744 40.1869C9.11178 40.4553 9.97091 40.5627 10.8837 40.5627C11.7965 40.5627 12.6557 40.4553 13.3 40.1869C13.8907 39.9721 14.2665 39.6499 14.2665 39.3277C14.2665 39.0593 13.8907 38.7371 13.3 38.5223C12.6557 38.2538 11.7965 38.1464 10.8837 38.1464Z" fill="#221F1F"/>
<path d="M13.3534 38.8984C13.3892 38.9342 13.425 38.97 13.4608 39.0058C13.4966 39.0416 13.5503 39.1132 13.6219 39.2206C13.6219 39.2564 13.6219 39.2922 13.6219 39.328C13.6577 39.3996 13.6577 39.4533 13.6219 39.4891C13.5861 39.5607 13.5503 39.6144 13.5145 39.6502C13.4787 39.686 13.425 39.7218 13.3534 39.7576C13.2461 39.8292 13.1208 39.8829 12.9776 39.9187C12.8702 39.9902 12.7449 40.0439 12.6017 40.0797C12.4585 40.1155 12.3153 40.1334 12.1722 40.1334C12.029 40.1692 11.8679 40.1871 11.6889 40.1871C11.5457 40.2229 11.4204 40.2408 11.313 40.2408C11.2414 40.2408 11.1698 40.2408 11.0983 40.2408C11.0267 40.2408 10.9551 40.2408 10.8835 40.2408C10.8835 40.2408 10.8656 40.2408 10.8298 40.2408C10.8298 40.2408 10.8119 40.2408 10.7761 40.2408C10.7761 40.2408 10.7582 40.2408 10.7224 40.2408C10.6508 40.2408 10.5971 40.2408 10.5613 40.2408C10.5255 40.205 10.4897 40.1871 10.4539 40.1871C10.4181 40.1871 10.4002 40.1871 10.4002 40.1871C10.3644 40.1871 10.3286 40.1871 10.2928 40.1871C10.2928 40.1871 10.2749 40.1871 10.2391 40.1871C10.2033 40.1871 10.1675 40.1871 10.1317 40.1871C10.0959 40.1871 10.078 40.1692 10.078 40.1334C10.078 40.1334 10.0959 40.1334 10.1317 40.1334C10.1317 40.1334 10.1496 40.1334 10.1854 40.1334C10.1854 40.1334 10.2033 40.1334 10.2391 40.1334C10.2749 40.1334 10.2928 40.1334 10.2928 40.1334C10.3286 40.1334 10.3644 40.1334 10.4002 40.1334C10.4002 40.1334 10.4181 40.1334 10.4539 40.1334C10.4897 40.1334 10.5255 40.1334 10.5613 40.1334C10.5971 40.1334 10.6508 40.1334 10.7224 40.1334C10.7582 40.1334 10.7761 40.1334 10.7761 40.1334C10.8119 40.1334 10.8298 40.1334 10.8298 40.1334C10.8656 40.1334 10.8835 40.1334 10.8835 40.1334C10.9551 40.1334 11.0267 40.1334 11.0983 40.1334C11.1698 40.1334 11.2414 40.1334 11.313 40.1334C11.4204 40.1334 11.5457 40.1155 11.6889 40.0797C11.8321 40.0797 11.9753 40.0618 12.1185 40.026C12.2617 40.026 12.4048 40.0081 12.548 39.9723C12.6912 39.9365 12.8344 39.9007 12.9776 39.865C13.085 39.8292 13.1924 39.7755 13.2998 39.7039C13.3713 39.6681 13.425 39.6323 13.4608 39.5965C13.4966 39.5607 13.5324 39.5249 13.5682 39.4891C13.5682 39.4533 13.5682 39.3996 13.5682 39.328C13.5682 39.2922 13.5682 39.2564 13.5682 39.2206C13.5682 39.1848 13.5503 39.149 13.5145 39.1132C13.4787 39.0774 13.4608 39.0416 13.4608 39.0058C13.425 38.97 13.3892 38.9342 13.3534 38.8984Z" fill="#221F1F"/>
<path d="M11.6353 39.2743C11.6353 39.4891 11.3131 39.6502 10.8836 39.6502C10.454 39.6502 10.0781 39.4891 10.0781 39.2743C10.0781 39.0595 10.454 38.8984 10.8836 38.8984C11.3131 38.8984 11.6353 39.0595 11.6353 39.2743Z" fill="#221F1F"/>
<path d="M10.1855 39.6501C10.1855 39.6143 10.1676 39.5964 10.1318 39.5964C10.096 39.5964 10.0781 39.5964 10.0781 39.5964C10.0423 39.5606 10.0065 39.5249 9.97067 39.4891C9.93488 39.4891 9.91698 39.4533 9.91698 39.3817C9.91698 39.3817 9.89908 39.3817 9.86328 39.3817C9.86328 39.3817 9.86328 39.3638 9.86328 39.328C9.86328 39.328 9.86328 39.3101 9.86328 39.2743C9.86328 39.2385 9.88118 39.2027 9.91698 39.1669C9.91698 39.1311 9.91698 39.1132 9.91698 39.1132C9.95278 39.0416 9.98857 39.0058 10.0244 39.0058C10.096 38.97 10.1497 38.9342 10.1855 38.8984C10.2213 38.8626 10.2749 38.8447 10.3465 38.8447C10.3823 38.8447 10.4181 38.8268 10.4539 38.791C10.5255 38.791 10.5792 38.791 10.615 38.791C10.6508 38.791 10.6866 38.791 10.7224 38.791C10.6866 38.8268 10.6508 38.8447 10.615 38.8447C10.5792 38.8447 10.5613 38.8447 10.5613 38.8447C10.5255 38.8447 10.5076 38.8447 10.5076 38.8447C10.436 38.8805 10.3823 38.8984 10.3465 38.8984C10.3107 38.8984 10.2749 38.9163 10.2391 38.9521C10.1676 38.9879 10.1139 39.0058 10.0781 39.0058C10.0423 39.0416 10.0065 39.0774 9.97067 39.1132C9.97067 39.149 9.95278 39.1669 9.91698 39.1669C9.91698 39.2027 9.91698 39.2385 9.91698 39.2743C9.91698 39.2743 9.91698 39.2922 9.91698 39.328C9.91698 39.3638 9.91698 39.3817 9.91698 39.3817C9.95278 39.4175 9.98857 39.4533 10.0244 39.4891C10.0244 39.5249 10.0423 39.5428 10.0781 39.5428C10.0781 39.5785 10.096 39.5964 10.1318 39.5964C10.1676 39.5964 10.1855 39.5964 10.1855 39.5964C10.1855 39.6322 10.1855 39.6501 10.1855 39.6501Z" fill="#221F1F"/>
<path d="M10.8836 38.9521C10.8836 38.9521 10.812 38.9521 10.6688 38.9521C10.633 38.9521 10.5793 38.9701 10.5077 39.0058C10.4361 39.0058 10.3645 39.0237 10.2929 39.0595C10.2571 39.0953 10.2213 39.1311 10.1855 39.1669C10.1497 39.1669 10.1318 39.1848 10.1318 39.2206C10.1318 39.2564 10.1318 39.2922 10.1318 39.328C10.1318 39.3638 10.1497 39.3817 10.1855 39.3817C10.1855 39.4175 10.2034 39.4354 10.2392 39.4354C10.2392 39.4712 10.2392 39.4891 10.2392 39.4891C10.275 39.4891 10.2929 39.4891 10.2929 39.4891C10.3287 39.4891 10.3466 39.4891 10.3466 39.4891C10.3108 39.4891 10.2929 39.4891 10.2929 39.4891C10.2929 39.4891 10.275 39.4891 10.2392 39.4891C10.2034 39.4533 10.1855 39.4354 10.1855 39.4354C10.1497 39.3996 10.1318 39.3638 10.1318 39.328C10.096 39.2922 10.096 39.2564 10.1318 39.2206C10.1318 39.1848 10.1497 39.149 10.1855 39.1132C10.2213 39.1132 10.2571 39.0953 10.2929 39.0595C10.3287 39.0237 10.3645 39.0058 10.4003 39.0058C10.4361 39.0058 10.4719 39.0058 10.5077 39.0058C10.5793 38.9701 10.633 38.9521 10.6688 38.9521C10.7404 38.9521 10.7941 38.9521 10.8299 38.9521C10.8657 38.9521 10.8836 38.9521 10.8836 38.9521Z" fill="white"/>
<path d="M7.28613 40.8311C7.32193 40.8669 7.33983 40.8848 7.33983 40.8848C7.37562 40.9563 7.42932 41.0279 7.50091 41.0995C7.57251 41.1353 7.6799 41.189 7.82308 41.2606C7.93047 41.3322 8.05576 41.4038 8.19895 41.4754C8.27054 41.5112 8.34214 41.5291 8.41373 41.5291C8.48532 41.5291 8.52112 41.547 8.52112 41.5828C8.55692 41.5828 8.59271 41.5828 8.62851 41.5828C8.7717 41.6186 8.89699 41.6544 9.00438 41.6902C9.21916 41.6902 9.32655 41.7439 9.32655 41.7439C9.32655 41.7439 9.21916 41.7439 9.00438 41.6902C8.89699 41.6902 8.7717 41.6723 8.62851 41.6365C8.59271 41.6365 8.55692 41.6365 8.52112 41.6365C8.48532 41.6365 8.44953 41.6186 8.41373 41.5828C8.34214 41.5828 8.27054 41.5649 8.19895 41.5291C8.05576 41.4575 7.91258 41.3859 7.76939 41.3143C7.662 41.2427 7.57251 41.1711 7.50091 41.0995C7.42932 41.0279 7.37562 40.9563 7.33983 40.8848C7.30403 40.8848 7.28613 40.8669 7.28613 40.8311Z" fill="white"/>
<path d="M7.28662 41.2607C7.32242 41.2607 7.34032 41.2607 7.34032 41.2607C7.34032 41.2965 7.34032 41.3144 7.34032 41.3144C7.34032 41.3502 7.35821 41.3681 7.39401 41.3681C7.39401 41.3681 7.41191 41.386 7.4477 41.4218C7.4835 41.4576 7.5193 41.4934 7.5551 41.5292C7.62669 41.6008 7.73408 41.6724 7.87727 41.744C8.02045 41.8156 8.16364 41.8872 8.30683 41.9588C8.41422 41.9588 8.50371 41.9767 8.57531 42.0125C8.6111 42.0125 8.6469 42.0125 8.68269 42.0125C8.71849 42.0483 8.75429 42.0662 8.79008 42.0662C8.93327 42.102 9.05856 42.1199 9.16595 42.1199C9.20175 42.1199 9.21965 42.1199 9.21965 42.1199C9.29124 42.1199 9.36283 42.1378 9.43443 42.1736C9.47022 42.1736 9.48812 42.1736 9.48812 42.1736C9.52392 42.1736 9.54182 42.1736 9.54182 42.1736C9.57761 42.1736 9.59551 42.1736 9.59551 42.1736C9.55971 42.1736 9.54182 42.1736 9.54182 42.1736C9.47022 42.1736 9.36283 42.1736 9.21965 42.1736C9.07646 42.1736 8.93327 42.1557 8.79008 42.1199C8.75429 42.1199 8.71849 42.1199 8.68269 42.1199C8.6469 42.0841 8.6111 42.0662 8.57531 42.0662C8.46792 42.0662 8.37842 42.0483 8.30683 42.0125C8.19944 41.9767 8.09205 41.9409 7.98466 41.9051C7.91306 41.8693 7.84147 41.8335 7.76988 41.7977C7.69828 41.7261 7.62669 41.6545 7.5551 41.5829C7.5193 41.5829 7.5014 41.565 7.5014 41.5292C7.46561 41.4934 7.42981 41.4576 7.39401 41.4218C7.39401 41.4218 7.37611 41.4039 7.34032 41.3681C7.34032 41.3681 7.34032 41.3502 7.34032 41.3144C7.30452 41.3144 7.28662 41.3144 7.28662 41.3144C7.28662 41.3144 7.28662 41.2965 7.28662 41.2607Z" fill="white"/>
<path d="M7.28662 41.6904C7.32242 41.6904 7.34032 41.6904 7.34032 41.6904C7.34032 41.7262 7.34032 41.7441 7.34032 41.7441C7.34032 41.7799 7.34032 41.7978 7.34032 41.7978C7.37611 41.8336 7.41191 41.8694 7.4477 41.9052C7.4835 41.941 7.5193 41.9768 7.5551 42.0126C7.66249 42.0842 7.78777 42.1558 7.93096 42.2274C8.07415 42.299 8.23523 42.3527 8.41422 42.3885C8.52161 42.4243 8.629 42.4601 8.73639 42.4959C8.77219 42.4959 8.80798 42.4959 8.84378 42.4959C8.87958 42.4959 8.91537 42.5138 8.95117 42.5495C9.13015 42.5495 9.27334 42.5674 9.38073 42.6032C9.38073 42.6032 9.39863 42.6032 9.43443 42.6032C9.54182 42.6032 9.61341 42.6032 9.64921 42.6032C9.68501 42.6032 9.7208 42.6032 9.7566 42.6032C9.79239 42.6032 9.81029 42.6032 9.81029 42.6032C9.81029 42.6032 9.81029 42.6211 9.81029 42.6569C9.81029 42.6569 9.79239 42.6569 9.7566 42.6569C9.685 42.6569 9.57761 42.6569 9.43443 42.6569C9.43443 42.6569 9.41653 42.6569 9.38073 42.6569C9.27334 42.6569 9.13015 42.639 8.95117 42.6032C8.91537 42.6032 8.87958 42.5853 8.84378 42.5495C8.77219 42.5495 8.71849 42.5495 8.68269 42.5495C8.6111 42.5138 8.52161 42.4959 8.41422 42.4959C8.27103 42.4601 8.14574 42.4243 8.03835 42.3885C7.93096 42.3169 7.84147 42.2632 7.76988 42.2274C7.66249 42.1558 7.59089 42.0842 7.5551 42.0126C7.5193 42.0126 7.5014 41.9947 7.5014 41.9589C7.42981 41.9231 7.39401 41.8873 7.39401 41.8515C7.35821 41.8515 7.34032 41.8336 7.34032 41.7978C7.34032 41.7978 7.34032 41.7799 7.34032 41.7441C7.30452 41.7441 7.28662 41.7441 7.28662 41.7441C7.28662 41.7083 7.28662 41.6904 7.28662 41.6904Z" fill="white"/>
<path d="M7.28662 42.1201C7.28662 42.1201 7.30452 42.1201 7.34032 42.1201C7.34032 42.1201 7.34032 42.138 7.34032 42.1738C7.34032 42.1738 7.34032 42.1917 7.34032 42.2275C7.37611 42.2633 7.41191 42.2991 7.4477 42.3349C7.4835 42.3707 7.5193 42.4065 7.5551 42.4423C7.66249 42.5497 7.80567 42.6392 7.98466 42.7108C8.16364 42.7824 8.34262 42.8361 8.52161 42.8719C8.629 42.9077 8.73639 42.9434 8.84378 42.9792C8.87958 42.9792 8.93327 42.9792 9.00486 42.9792C9.04066 42.9792 9.07646 42.9792 9.11226 42.9792C9.29124 43.015 9.45232 43.0329 9.59551 43.0329C9.59551 43.0329 9.61341 43.0329 9.64921 43.0329C9.7566 43.0329 9.84609 43.0329 9.91768 43.0329C9.95348 43.0329 9.97138 43.0329 9.97138 43.0329C10.0072 43.0329 10.0251 43.0329 10.0251 43.0329C10.0251 43.0329 10.0251 43.0508 10.0251 43.0866C10.0251 43.0866 10.0072 43.0866 9.97138 43.0866C9.89979 43.0866 9.7924 43.0866 9.64921 43.0866C9.61341 43.0866 9.59551 43.0866 9.59551 43.0866C9.45232 43.0866 9.29124 43.0866 9.11226 43.0866C9.07646 43.0508 9.02276 43.0329 8.95117 43.0329C8.91537 43.0329 8.87958 43.0329 8.84378 43.0329C8.73639 42.9971 8.629 42.9792 8.52161 42.9792C8.37842 42.9434 8.23524 42.8897 8.09205 42.8182C7.98466 42.7824 7.87727 42.7287 7.76988 42.6571C7.66249 42.5855 7.573 42.5318 7.5014 42.496C7.5014 42.4602 7.4835 42.4244 7.4477 42.3886C7.41191 42.3528 7.39401 42.317 7.39401 42.2812C7.35821 42.2812 7.34032 42.2633 7.34032 42.2275C7.34032 42.2275 7.34032 42.2096 7.34032 42.1738C7.30452 42.1738 7.28662 42.1738 7.28662 42.1738C7.28662 42.138 7.28662 42.1201 7.28662 42.1201Z" fill="white"/>
<path d="M7.28662 42.5498C7.28662 42.5498 7.30452 42.5498 7.34032 42.5498C7.34032 42.5498 7.34032 42.5677 7.34032 42.6035C7.34032 42.6035 7.34032 42.6214 7.34032 42.6572C7.37611 42.693 7.41191 42.7288 7.4477 42.7646C7.4835 42.8004 7.5372 42.8541 7.60879 42.9257C7.71618 42.9973 7.85937 43.0689 8.03835 43.1405C8.21734 43.2478 8.41422 43.3194 8.629 43.3552C8.77219 43.391 8.89747 43.4089 9.00486 43.4089C9.04066 43.4447 9.07646 43.4626 9.11226 43.4626C9.18385 43.4626 9.23754 43.4626 9.27334 43.4626C9.48812 43.4984 9.6671 43.5163 9.81029 43.5163C9.95348 43.5163 10.0609 43.5163 10.1325 43.5163C10.1683 43.5163 10.2041 43.5163 10.2399 43.5163C10.2757 43.5163 10.2757 43.5163 10.2399 43.5163C10.2399 43.5163 10.222 43.5163 10.1862 43.5163C10.1146 43.5521 9.98928 43.57 9.81029 43.57C9.81029 43.57 9.79239 43.57 9.7566 43.57C9.61341 43.57 9.45232 43.5521 9.27334 43.5163C9.20175 43.5163 9.14805 43.5163 9.11226 43.5163C9.07646 43.5163 9.02276 43.5163 8.95117 43.5163C8.84378 43.4805 8.73639 43.4447 8.629 43.4089C8.45002 43.3731 8.28893 43.3373 8.14574 43.3015C8.00256 43.2299 7.87727 43.1583 7.76988 43.0868C7.66249 43.051 7.573 42.9973 7.5014 42.9257C7.5014 42.8899 7.4835 42.872 7.4477 42.872C7.41191 42.8004 7.39401 42.7467 7.39401 42.7109C7.35821 42.7109 7.34032 42.693 7.34032 42.6572C7.34032 42.6572 7.34032 42.6393 7.34032 42.6035C7.34032 42.6035 7.32242 42.6035 7.28662 42.6035C7.28662 42.5677 7.28662 42.5498 7.28662 42.5498Z" fill="white"/>
<path d="M7.28662 42.9795C7.28662 42.9795 7.30452 42.9795 7.34032 42.9795C7.34032 42.9795 7.34032 42.9974 7.34032 43.0332C7.34032 43.069 7.34032 43.0869 7.34032 43.0869C7.37611 43.1227 7.41191 43.1764 7.4477 43.248C7.4835 43.2838 7.5372 43.3196 7.60879 43.3554C7.75198 43.4627 7.91306 43.5522 8.09205 43.6238C8.30683 43.6954 8.52161 43.767 8.73639 43.8386C8.87958 43.8744 9.00487 43.8923 9.11226 43.8923C9.18385 43.8923 9.23754 43.9102 9.27334 43.946C9.34493 43.946 9.39863 43.946 9.43443 43.946C9.64921 43.946 9.82819 43.946 9.97138 43.946C10.0072 43.946 10.0251 43.946 10.0251 43.946C10.1683 43.946 10.2756 43.946 10.3472 43.946C10.383 43.946 10.4188 43.946 10.4546 43.946C10.4904 43.946 10.5083 43.946 10.5083 43.946C10.4725 43.9818 10.4367 43.9997 10.4009 43.9997C10.3293 43.9997 10.2041 43.9997 10.0251 43.9997C10.0251 43.9997 10.0072 43.9997 9.97138 43.9997C9.82819 44.0355 9.64921 44.0355 9.43443 43.9997C9.36283 43.9997 9.30914 43.9997 9.27334 43.9997C9.20175 43.9997 9.14805 43.9997 9.11226 43.9997C9.11226 43.9997 9.11226 43.9818 9.11226 43.946C8.96907 43.946 8.84378 43.9281 8.73639 43.8923C8.5574 43.8565 8.37842 43.8207 8.19944 43.7849C8.02045 43.7133 7.87727 43.6417 7.76988 43.5701C7.66249 43.4985 7.573 43.427 7.5014 43.3554C7.5014 43.3196 7.4835 43.3017 7.4477 43.3017C7.41191 43.2301 7.37611 43.1764 7.34032 43.1406C7.34032 43.1406 7.34032 43.1227 7.34032 43.0869C7.34032 43.0869 7.34032 43.069 7.34032 43.0332C7.34032 43.0332 7.32242 43.0332 7.28662 43.0332C7.28662 42.9974 7.28662 42.9795 7.28662 42.9795Z" fill="white"/>
<path d="M7.28662 43.4082C7.28662 43.4082 7.30452 43.4082 7.34032 43.4082C7.34032 43.4082 7.34032 43.4261 7.34032 43.4619C7.34032 43.4977 7.34032 43.5156 7.34032 43.5156C7.37611 43.5514 7.41191 43.6051 7.4477 43.6767C7.5193 43.7125 7.57299 43.7662 7.60879 43.8378C7.75198 43.9451 7.93096 44.0346 8.14574 44.1062C8.36052 44.1778 8.5932 44.2494 8.84378 44.321C8.98697 44.3568 9.13015 44.3747 9.27334 44.3747C9.30914 44.3747 9.36283 44.3747 9.43443 44.3747C9.50602 44.4105 9.55971 44.4284 9.59551 44.4284C9.81029 44.4284 10.0072 44.4284 10.1862 44.4284C10.222 44.4284 10.2399 44.4284 10.2399 44.4284C10.383 44.4284 10.5083 44.4105 10.6157 44.3747C10.6515 44.3747 10.6873 44.3747 10.7231 44.3747C10.7231 44.4105 10.7231 44.4284 10.7231 44.4284C10.6873 44.4284 10.6694 44.4284 10.6694 44.4284C10.562 44.4642 10.4188 44.4821 10.2399 44.4821C10.2041 44.4821 10.1862 44.4821 10.1862 44.4821C10.0072 44.4821 9.81029 44.4821 9.59551 44.4821C9.52392 44.4821 9.45233 44.4821 9.38073 44.4821C9.34494 44.4821 9.29124 44.4642 9.21965 44.4284C9.11226 44.4284 8.98697 44.4105 8.84378 44.3747C8.629 44.3389 8.43212 44.2852 8.25313 44.2136C8.07415 44.142 7.91307 44.0704 7.76988 43.9988C7.66249 43.9272 7.573 43.8556 7.5014 43.7841C7.5014 43.7483 7.4835 43.7304 7.4477 43.7304C7.41191 43.6588 7.37611 43.6051 7.34032 43.5693C7.34032 43.5693 7.34032 43.5514 7.34032 43.5156C7.34032 43.4798 7.34032 43.4619 7.34032 43.4619C7.30452 43.4619 7.28662 43.4619 7.28662 43.4619C7.28662 43.4619 7.28662 43.444 7.28662 43.4082Z" fill="white"/>
<path d="M7.28662 43.8379C7.32242 43.8379 7.34032 43.8558 7.34032 43.8916C7.34032 43.9274 7.34032 43.9453 7.34032 43.9453C7.37611 44.0169 7.41191 44.0706 7.4477 44.1064C7.5193 44.1779 7.59089 44.2316 7.66249 44.2674C7.80567 44.3748 7.98466 44.4822 8.19944 44.5896C8.45001 44.6612 8.70059 44.7328 8.95117 44.8044C9.09436 44.8044 9.23755 44.8223 9.38073 44.8581C9.45233 44.8581 9.52392 44.8581 9.59551 44.8581C9.63131 44.8581 9.685 44.8581 9.7566 44.8581C10.0072 44.8939 10.222 44.8939 10.4009 44.8581C10.4009 44.8581 10.4188 44.8581 10.4546 44.8581C10.5978 44.8581 10.7231 44.8581 10.8305 44.8581C10.8663 44.8581 10.9021 44.8402 10.9379 44.8044C10.9737 44.8044 10.9916 44.8044 10.9916 44.8044C10.9916 44.8044 10.9737 44.8223 10.9379 44.8581C10.9379 44.8581 10.92 44.8581 10.8842 44.8581C10.7768 44.8939 10.6336 44.9297 10.4546 44.9655C10.4188 44.9655 10.383 44.9655 10.3472 44.9655C10.1683 44.9655 9.97138 44.9655 9.7566 44.9655C9.685 44.9655 9.61341 44.9655 9.54182 44.9655C9.50602 44.9297 9.45233 44.9118 9.38073 44.9118C9.23755 44.9118 9.09436 44.8939 8.95117 44.8581C8.70059 44.8223 8.48581 44.7686 8.30683 44.697C8.09205 44.6254 7.91307 44.5359 7.76988 44.4285C7.66249 44.3569 7.573 44.2853 7.5014 44.2137C7.5014 44.2137 7.4835 44.1958 7.4477 44.16C7.41191 44.0885 7.37611 44.0348 7.34032 43.999C7.34032 43.999 7.34032 43.9811 7.34032 43.9453C7.34032 43.9095 7.32242 43.8916 7.28662 43.8916C7.28662 43.8916 7.28662 43.8737 7.28662 43.8379Z" fill="white"/>
<path d="M7.28662 44.2676C7.32242 44.2676 7.34032 44.2855 7.34032 44.3213C7.34032 44.3213 7.34032 44.3392 7.34032 44.375C7.37611 44.4465 7.41191 44.5002 7.4477 44.536C7.5193 44.6076 7.59089 44.6792 7.66249 44.7508C7.80567 44.8582 8.00255 44.9477 8.25313 45.0193C8.50371 45.1267 8.77218 45.2162 9.05856 45.2878C9.23754 45.2878 9.39863 45.3057 9.54182 45.3415C9.61341 45.3415 9.685 45.3415 9.7566 45.3415C9.79239 45.3415 9.84609 45.3415 9.91768 45.3415C10.1683 45.3415 10.4009 45.3415 10.6157 45.3415C10.6157 45.3415 10.6336 45.3415 10.6694 45.3415C10.8126 45.3057 10.9379 45.2878 11.0453 45.2878C11.1169 45.2878 11.1527 45.2878 11.1527 45.2878C11.1527 45.3236 11.1348 45.3415 11.099 45.3415C10.9916 45.3415 10.8305 45.3594 10.6157 45.3952C10.6157 45.3952 10.5978 45.3952 10.562 45.3952C10.383 45.431 10.1683 45.4489 9.91768 45.4489C9.91768 45.4489 9.89978 45.4489 9.86399 45.4489C9.82819 45.4131 9.7745 45.3952 9.7029 45.3952C9.63131 45.3952 9.55972 45.3952 9.48812 45.3952C9.34493 45.3952 9.20175 45.3773 9.05856 45.3415C8.80798 45.3057 8.55741 45.252 8.30683 45.1804C8.09205 45.073 7.91307 44.9656 7.76988 44.8582C7.66249 44.7866 7.573 44.715 7.5014 44.6434C7.5014 44.6434 7.4835 44.6255 7.4477 44.5897C7.41191 44.5539 7.37611 44.5002 7.34032 44.4286C7.34032 44.4286 7.34032 44.4108 7.34032 44.375C7.30452 44.3392 7.28662 44.3213 7.28662 44.3213C7.28662 44.3213 7.28662 44.3034 7.28662 44.2676Z" fill="white"/>
<path d="M7.28662 44.6972C7.28662 44.6972 7.30452 44.7151 7.34032 44.7509C7.34032 44.7509 7.34032 44.7688 7.34032 44.8046C7.34032 44.8046 7.34032 44.8225 7.34032 44.8583C7.37611 44.8941 7.42981 44.9478 7.5014 45.0194C7.5372 45.0552 7.59089 45.1089 7.66249 45.1805C7.84147 45.3237 8.05625 45.4311 8.30683 45.5027C8.5932 45.6101 8.87958 45.6817 9.16595 45.7175C9.34494 45.7533 9.50602 45.7711 9.64921 45.7711C9.7208 45.8069 9.79239 45.8248 9.86399 45.8248C9.93558 45.8248 10.0072 45.8248 10.0788 45.8248C10.3651 45.8248 10.5978 45.8069 10.7768 45.7711C10.8126 45.7711 10.8484 45.7711 10.8842 45.7711C11.0274 45.7711 11.1527 45.7533 11.2601 45.7175C11.3317 45.7175 11.3853 45.7175 11.4211 45.7175C11.4211 45.7175 11.4211 45.7354 11.4211 45.7711C11.3853 45.7711 11.3496 45.7711 11.3138 45.7711C11.2064 45.8069 11.0453 45.8427 10.8305 45.8785C10.7947 45.8785 10.7768 45.8785 10.7768 45.8785C10.562 45.8785 10.3293 45.8785 10.0788 45.8785C10.0788 45.8785 10.0609 45.8785 10.0251 45.8785C9.95348 45.8785 9.89978 45.8785 9.86399 45.8785C9.79239 45.8785 9.7208 45.8785 9.64921 45.8785C9.47022 45.8785 9.30914 45.8606 9.16595 45.8248C8.87958 45.789 8.6111 45.7175 8.36052 45.6101C8.14574 45.5385 7.94886 45.449 7.76988 45.3416C7.66249 45.27 7.573 45.1805 7.5014 45.0731C7.46561 45.0731 7.4477 45.0552 7.4477 45.0194C7.41191 44.9836 7.37611 44.9299 7.34032 44.8583C7.34032 44.8583 7.34032 44.8404 7.34032 44.8046C7.30452 44.7688 7.28662 44.7509 7.28662 44.7509C7.28662 44.7509 7.28662 44.733 7.28662 44.6972Z" fill="white"/>
<path d="M7.28662 45.1269C7.28662 45.1269 7.30452 45.1448 7.34032 45.1806C7.34032 45.1806 7.34032 45.1985 7.34032 45.2343C7.34032 45.2343 7.34032 45.2522 7.34032 45.288C7.37611 45.3238 7.42981 45.3775 7.5014 45.4491C7.5372 45.5207 7.60879 45.5923 7.71618 45.6639C7.89516 45.7713 8.10995 45.8787 8.36052 45.9861C8.6469 46.0935 8.95117 46.165 9.27334 46.2008C9.45232 46.2366 9.63131 46.2545 9.81029 46.2545C9.88189 46.2545 9.95348 46.2724 10.0251 46.3082C10.0967 46.3082 10.1683 46.3082 10.2399 46.3082C10.5262 46.3082 10.7768 46.2903 10.9916 46.2545C11.0274 46.2545 11.0453 46.2545 11.0453 46.2545C11.2601 46.2187 11.4211 46.2008 11.5285 46.2008C11.5643 46.165 11.6001 46.1471 11.6359 46.1471C11.6717 46.1471 11.6896 46.1471 11.6896 46.1471C11.6896 46.1471 11.6896 46.165 11.6896 46.2008C11.6538 46.2008 11.6359 46.2008 11.6359 46.2008C11.6001 46.2008 11.5643 46.2008 11.5285 46.2008C11.4211 46.2366 11.2601 46.2724 11.0453 46.3082C11.0095 46.3082 10.9737 46.3082 10.9379 46.3082C10.7231 46.344 10.4904 46.3619 10.2399 46.3619C10.2399 46.3619 10.222 46.3619 10.1862 46.3619C10.1146 46.3619 10.043 46.3619 9.97138 46.3619C9.89979 46.3619 9.82819 46.3619 9.7566 46.3619C9.61341 46.3261 9.45232 46.3082 9.27334 46.3082C8.95117 46.2366 8.6648 46.165 8.41422 46.0935C8.16364 45.9861 7.94886 45.8787 7.76988 45.7713C7.66249 45.6997 7.573 45.6281 7.5014 45.5565C7.46561 45.5207 7.4477 45.4849 7.4477 45.4491C7.41191 45.4133 7.37611 45.3596 7.34032 45.288C7.34032 45.288 7.34032 45.2701 7.34032 45.2343C7.34032 45.2343 7.32242 45.2343 7.28662 45.2343C7.28662 45.1985 7.28662 45.1806 7.28662 45.1806C7.28662 45.1806 7.28662 45.1627 7.28662 45.1269Z" fill="white"/>
<path d="M7.28662 45.5566C7.28662 45.5566 7.30452 45.5745 7.34032 45.6103C7.34032 45.6103 7.34032 45.6282 7.34032 45.664C7.34032 45.664 7.34032 45.6819 7.34032 45.7177C7.37611 45.7535 7.42981 45.8072 7.5014 45.8788C7.5372 45.9504 7.60879 46.022 7.71618 46.0936C7.89516 46.2368 8.12784 46.3621 8.41422 46.4694C8.73639 46.5768 9.05856 46.6484 9.38073 46.6842C9.55972 46.72 9.7387 46.7379 9.91768 46.7379C9.98928 46.7379 10.0788 46.7379 10.1862 46.7379C10.2578 46.7379 10.3293 46.7379 10.4009 46.7379C10.7231 46.7379 10.9916 46.7379 11.2064 46.7379C11.2422 46.7379 11.2601 46.72 11.2601 46.6842C11.4748 46.6842 11.6359 46.6663 11.7433 46.6305C11.8149 46.6305 11.8686 46.6305 11.9044 46.6305C11.9044 46.5947 11.9223 46.5768 11.9581 46.5768C11.9581 46.5768 11.9402 46.5947 11.9044 46.6305C11.9044 46.6305 11.8865 46.6305 11.8507 46.6305C11.8507 46.6305 11.8328 46.6484 11.797 46.6842C11.6538 46.72 11.4569 46.7558 11.2064 46.7916C11.2064 46.7916 11.1885 46.7916 11.1527 46.7916C10.9379 46.8274 10.6873 46.8453 10.4009 46.8453C10.4009 46.8453 10.383 46.8453 10.3472 46.8453C10.2756 46.8453 10.2041 46.8453 10.1325 46.8453C10.0609 46.8453 9.98928 46.8453 9.91768 46.8453C9.91768 46.8453 9.89978 46.8453 9.86399 46.8453C9.7208 46.8095 9.55972 46.7916 9.38073 46.7916C9.05856 46.72 8.75429 46.6484 8.46791 46.5768C8.18154 46.4694 7.94886 46.3442 7.76988 46.201C7.66249 46.1294 7.573 46.0578 7.5014 45.9862C7.46561 45.9504 7.4477 45.9146 7.4477 45.8788C7.41191 45.843 7.37611 45.7893 7.34032 45.7177C7.34032 45.7177 7.34032 45.6998 7.34032 45.664C7.30452 45.664 7.28662 45.664 7.28662 45.664C7.28662 45.6282 7.28662 45.6103 7.28662 45.6103C7.28662 45.6103 7.28662 45.5924 7.28662 45.5566Z" fill="white"/>
<path d="M7.28662 45.9853C7.28662 45.9853 7.30452 46.0032 7.34032 46.039C7.34032 46.039 7.34032 46.0569 7.34032 46.0927C7.34032 46.0927 7.34032 46.1106 7.34032 46.1464C7.37611 46.218 7.42981 46.2896 7.5014 46.3612C7.573 46.4328 7.64459 46.5044 7.71618 46.576C7.93096 46.7192 8.18154 46.8445 8.46791 46.9518C8.79008 47.0234 9.13015 47.095 9.48812 47.1666C9.7029 47.2024 9.89978 47.2203 10.0788 47.2203C10.1504 47.2203 10.2399 47.2203 10.3472 47.2203C10.4188 47.2203 10.4904 47.2203 10.562 47.2203C10.8842 47.2203 11.1706 47.2024 11.4211 47.1666C11.4211 47.1666 11.439 47.1666 11.4748 47.1666C11.6896 47.1308 11.8507 47.095 11.9581 47.0592C12.0297 47.0592 12.0834 47.0592 12.1192 47.0592C12.1192 47.0592 12.1013 47.0771 12.0655 47.1129C12.0655 47.1129 12.0476 47.1129 12.0118 47.1129C11.8686 47.1487 11.6717 47.1845 11.4211 47.2203C11.3853 47.2203 11.3496 47.2382 11.3138 47.274C11.099 47.274 10.8484 47.2919 10.562 47.3277C10.562 47.3277 10.5441 47.3277 10.5083 47.3277C10.4367 47.3277 10.3651 47.3277 10.2935 47.3277C10.222 47.3277 10.1325 47.3098 10.0251 47.274C9.84609 47.274 9.66711 47.2561 9.48812 47.2203C9.13015 47.1845 8.80798 47.1129 8.52161 47.0055C8.23523 46.934 7.98466 46.8266 7.76988 46.6834C7.66249 46.576 7.573 46.4865 7.5014 46.4149C7.46561 46.3791 7.4477 46.3433 7.4477 46.3075C7.41191 46.2717 7.37611 46.218 7.34032 46.1464C7.34032 46.1464 7.34032 46.1285 7.34032 46.0927C7.34032 46.0927 7.32242 46.0927 7.28662 46.0927C7.28662 46.0569 7.28662 46.039 7.28662 46.039C7.28662 46.0032 7.28662 45.9853 7.28662 45.9853Z" fill="white"/>
<path d="M7.28662 46.415C7.28662 46.415 7.30452 46.4329 7.34032 46.4687C7.34032 46.4687 7.34032 46.4866 7.34032 46.5224C7.34032 46.5224 7.34032 46.5403 7.34032 46.5761C7.37611 46.6477 7.42981 46.7193 7.5014 46.7909C7.573 46.8625 7.66249 46.9341 7.76988 47.0057C7.94886 47.1489 8.21734 47.2741 8.57531 47.3815C8.89748 47.4889 9.23754 47.5784 9.59551 47.65C9.81029 47.65 10.0072 47.6679 10.1862 47.7037C10.2936 47.7037 10.383 47.7037 10.4546 47.7037C10.562 47.7037 10.6515 47.7037 10.7231 47.7037C11.0811 47.7037 11.3675 47.6858 11.5822 47.65C11.618 47.65 11.6538 47.65 11.6896 47.65C11.9044 47.6142 12.0655 47.5784 12.1729 47.5426C12.2445 47.5068 12.2982 47.4889 12.334 47.4889C12.3698 47.4889 12.4056 47.4889 12.4414 47.4889C12.4414 47.4889 12.4235 47.4889 12.3877 47.4889C12.3519 47.5247 12.334 47.5426 12.334 47.5426C12.2982 47.5426 12.2624 47.5426 12.2266 47.5426C12.0834 47.6142 11.8865 47.6679 11.6359 47.7037C11.6001 47.7037 11.5643 47.7037 11.5285 47.7037C11.278 47.7395 11.0095 47.7574 10.7231 47.7574C10.7231 47.7574 10.7052 47.7574 10.6694 47.7574C10.5978 47.7574 10.5083 47.7574 10.4009 47.7574C10.3293 47.7574 10.2578 47.7574 10.1862 47.7574C10.1862 47.7574 10.1683 47.7574 10.1325 47.7574C9.95348 47.7574 9.77449 47.7395 9.59551 47.7037C9.23754 47.6679 8.89748 47.5963 8.57531 47.4889C8.25313 47.3815 7.98466 47.2562 7.76988 47.1131C7.66249 47.0057 7.573 46.9162 7.5014 46.8446C7.46561 46.8088 7.4477 46.7909 7.4477 46.7909C7.37611 46.7193 7.34032 46.6477 7.34032 46.5761C7.34032 46.5761 7.34032 46.5582 7.34032 46.5224C7.30452 46.5224 7.28662 46.5224 7.28662 46.5224C7.28662 46.4866 7.28662 46.4687 7.28662 46.4687C7.28662 46.4329 7.28662 46.415 7.28662 46.415Z" fill="white"/>
<path d="M7.28662 46.792C7.28662 46.792 7.28662 46.8099 7.28662 46.8457C7.28662 46.8457 7.28662 46.8636 7.28662 46.8994C7.32242 46.8994 7.34032 46.8994 7.34032 46.8994C7.34032 46.9352 7.34032 46.9531 7.34032 46.9531C7.34032 46.9889 7.34032 47.0068 7.34032 47.0068C7.37611 47.0784 7.42981 47.15 7.5014 47.2215C7.573 47.2931 7.66249 47.3826 7.76988 47.49C7.98466 47.6332 8.27103 47.7585 8.629 47.8659C8.95117 47.9733 9.30914 48.0628 9.7029 48.1344C9.91768 48.1344 10.1325 48.1344 10.3472 48.1344C10.4188 48.1702 10.5083 48.1881 10.6157 48.1881C10.7231 48.1881 10.8126 48.1881 10.8842 48.1881C11.2422 48.1523 11.5464 48.1165 11.797 48.0807C11.8328 48.0807 11.8686 48.0807 11.9044 48.0807C12.1192 48.0449 12.2982 48.0091 12.4414 47.9733C12.5129 47.9733 12.5666 47.9554 12.6024 47.9196C12.6382 47.9196 12.6561 47.9196 12.6561 47.9196C12.6561 47.9196 12.6382 47.9375 12.6024 47.9733C12.6024 47.9733 12.5845 47.9733 12.5487 47.9733C12.5129 47.9733 12.4772 47.9912 12.4414 48.027C12.2982 48.0628 12.1013 48.0986 11.8507 48.1344C11.8149 48.1702 11.7791 48.1881 11.7433 48.1881C11.4927 48.2239 11.2064 48.2418 10.8842 48.2418C10.8484 48.2418 10.8305 48.2418 10.8305 48.2418C10.7589 48.2418 10.6694 48.2418 10.562 48.2418C10.4904 48.2418 10.4009 48.2418 10.2935 48.2418C10.1146 48.2418 9.91768 48.2239 9.7029 48.1881C9.30914 48.1523 8.95117 48.0807 8.629 47.9733C8.27103 47.8659 7.98466 47.7227 7.76988 47.5437C7.66249 47.4721 7.573 47.3826 7.5014 47.2752C7.46561 47.2394 7.4477 47.2215 7.4477 47.2215C7.37611 47.15 7.34032 47.0784 7.34032 47.0068C7.34032 47.0068 7.32242 46.9889 7.28662 46.9531C7.28662 46.9173 7.28662 46.8994 7.28662 46.8994C7.28662 46.8636 7.28662 46.8457 7.28662 46.8457C7.28662 46.8457 7.28662 46.8278 7.28662 46.792Z" fill="white"/>
<path d="M7.28662 47.2207C7.28662 47.2565 7.28662 47.2744 7.28662 47.2744C7.28662 47.2744 7.28662 47.2923 7.28662 47.3281C7.32242 47.3281 7.34032 47.3281 7.34032 47.3281C7.34032 47.3639 7.34032 47.3818 7.34032 47.3818C7.34032 47.4176 7.34032 47.4355 7.34032 47.4355C7.37611 47.5071 7.42981 47.5966 7.5014 47.704C7.573 47.7756 7.66249 47.8471 7.76988 47.9187C8.02046 48.0977 8.32473 48.2409 8.68269 48.3483C9.04066 48.4557 9.41653 48.5273 9.81029 48.5631C10.0251 48.5989 10.2399 48.6168 10.4546 48.6168C10.562 48.6168 10.6694 48.6168 10.7768 48.6168C10.8484 48.6168 10.9379 48.6168 11.0453 48.6168C11.4032 48.6168 11.7254 48.5989 12.0118 48.5631C12.0476 48.5631 12.0834 48.5631 12.1192 48.5631C12.334 48.4915 12.5129 48.4378 12.6561 48.402C12.7277 48.402 12.7814 48.402 12.8172 48.402C12.853 48.3662 12.8709 48.3483 12.8709 48.3483C12.9067 48.3483 12.8888 48.3662 12.8172 48.402C12.8172 48.402 12.7993 48.402 12.7635 48.402C12.7277 48.4378 12.6919 48.4557 12.6561 48.4557C12.5129 48.4915 12.2982 48.5452 12.0118 48.6168C11.976 48.6168 11.9402 48.6168 11.9044 48.6168C11.6538 48.6884 11.3675 48.7242 11.0453 48.7242C11.0095 48.7242 10.9916 48.7242 10.9916 48.7242C10.8842 48.7242 10.7947 48.7242 10.7231 48.7242C10.6157 48.7242 10.5262 48.7242 10.4546 48.7242C10.4546 48.7242 10.4367 48.7242 10.4009 48.7242C10.222 48.7242 10.0251 48.7063 9.81029 48.6705C9.38073 48.6347 8.98697 48.5452 8.629 48.402C8.27103 48.2946 7.98466 48.1514 7.76988 47.9724C7.66249 47.9008 7.573 47.8114 7.5014 47.704C7.46561 47.704 7.42981 47.6861 7.39401 47.6503C7.35821 47.5787 7.34032 47.5071 7.34032 47.4355C7.34032 47.4355 7.32242 47.4176 7.28662 47.3818C7.28662 47.346 7.28662 47.3281 7.28662 47.3281C7.28662 47.2923 7.28662 47.2744 7.28662 47.2744C7.28662 47.2386 7.28662 47.2207 7.28662 47.2207Z" fill="white"/>
<path d="M7.28662 47.7041C7.28662 47.7041 7.28662 47.722 7.28662 47.7578C7.32242 47.7578 7.34032 47.7578 7.34032 47.7578C7.34032 47.7936 7.34032 47.8115 7.34032 47.8115C7.34032 47.8473 7.34032 47.8652 7.34032 47.8652C7.37611 47.9368 7.42981 48.0263 7.5014 48.1337C7.573 48.2052 7.68039 48.2947 7.82357 48.4021C8.03835 48.5453 8.34262 48.6885 8.73639 48.8317C9.09436 48.9391 9.48812 49.0107 9.91768 49.0465C10.1683 49.0823 10.4009 49.1002 10.6157 49.1002C10.7947 49.1002 10.9916 49.1002 11.2064 49.1002C11.6001 49.1002 11.9402 49.0644 12.2266 48.9928C12.5129 48.957 12.7277 48.9212 12.8709 48.8854C12.9783 48.8496 13.0499 48.8317 13.0857 48.8317C13.0499 48.8317 13.0141 48.8496 12.9783 48.8854C12.9783 48.8854 12.9604 48.8854 12.9246 48.8854C12.7456 48.957 12.5129 49.0286 12.2266 49.1002C11.9402 49.136 11.6001 49.1718 11.2064 49.2076C10.9916 49.2076 10.7768 49.2076 10.562 49.2076C10.383 49.2076 10.1683 49.1897 9.91768 49.1539C9.48812 49.0823 9.07646 48.9928 8.68269 48.8854C8.30683 48.778 7.98466 48.6169 7.76988 48.4558C7.66249 48.3484 7.55509 48.241 7.4477 48.1337C7.37611 48.0621 7.34032 47.9726 7.34032 47.8652C7.30452 47.8652 7.28662 47.8473 7.28662 47.8115C7.28662 47.8115 7.28662 47.7936 7.28662 47.7578C7.28662 47.722 7.28662 47.7041 7.28662 47.7041Z" fill="white"/>
<path d="M13.0858 46.0928C13.1932 46.1286 13.3721 46.1823 13.6227 46.2538C13.7301 46.2896 13.8375 46.3433 13.9449 46.4149C14.0881 46.4507 14.2313 46.5044 14.3744 46.576C14.6966 46.6834 15.0188 46.8445 15.341 47.0593C15.5199 47.1667 15.6989 47.3098 15.8779 47.4888C16.0211 47.632 16.1643 47.7931 16.3075 47.9721C16.3791 48.0795 16.4328 48.1869 16.4686 48.2943C16.5044 48.4016 16.5401 48.5269 16.5759 48.6701C16.5759 48.7775 16.5759 48.9028 16.5759 49.046C16.5759 49.1534 16.558 49.2787 16.5223 49.4219C16.4865 49.5292 16.4328 49.6545 16.3612 49.7977C16.3612 49.8335 16.3433 49.8872 16.3075 49.9588C16.2717 50.0304 16.2359 50.0841 16.2001 50.1199C16.1643 50.1557 16.1464 50.1915 16.1464 50.2273L16.0927 50.281C16.0569 50.3168 16.039 50.3526 16.039 50.3884C16.0032 50.4242 15.9853 50.4421 15.9853 50.4421C15.8779 50.5495 15.7884 50.6568 15.7168 50.7642C15.502 50.9432 15.2694 51.1043 15.0188 51.2475C14.7682 51.3549 14.5176 51.4265 14.2671 51.4623C14.1239 51.4981 13.9807 51.5339 13.8375 51.5697C13.6943 51.5697 13.569 51.5697 13.4616 51.5697C13.1753 51.6055 12.9068 51.6055 12.6562 51.5697C12.3698 51.5697 12.1014 51.5518 11.8508 51.516C11.6002 51.4802 11.3496 51.4265 11.099 51.3549C10.8485 51.3191 10.6158 51.2833 10.401 51.2475C10.1504 51.1759 9.91775 51.1222 9.70297 51.0864C9.59558 51.0506 9.48819 51.0148 9.3808 50.979C9.27341 50.9432 9.16601 50.9253 9.05862 50.9253C8.84384 50.8537 8.64696 50.8 8.46798 50.7642C8.36059 50.7642 8.2532 50.7463 8.14581 50.7105C8.07421 50.6747 7.98472 50.6568 7.87733 50.6568C7.69835 50.6211 7.53726 50.5853 7.39407 50.5495C7.21509 50.5137 7.054 50.4958 6.91082 50.4958C6.80343 50.46 6.67814 50.4421 6.53495 50.4421C6.42756 50.4421 6.33807 50.4242 6.26648 50.3884C6.15909 50.3884 6.06959 50.3884 5.998 50.3884C5.9622 50.3884 5.92641 50.3884 5.89061 50.3884C5.85482 50.4242 5.83691 50.4421 5.83691 50.4421V50.3884C5.83691 50.3884 5.85482 50.3884 5.89061 50.3884C5.92641 50.3884 5.9622 50.3884 5.998 50.3884C6.14119 50.3884 6.32017 50.3884 6.53495 50.3884C6.78553 50.4242 7.0719 50.46 7.39407 50.4958C7.71625 50.5674 8.07421 50.6389 8.46798 50.7105C8.86174 50.7821 9.27341 50.8716 9.70297 50.979C10.1683 51.0864 10.6516 51.1938 11.1527 51.3012C11.3675 51.337 11.6181 51.3728 11.9045 51.4086C12.155 51.4444 12.4056 51.4623 12.6562 51.4623C12.9068 51.4981 13.1753 51.4981 13.4616 51.4623C13.569 51.4623 13.6943 51.4623 13.8375 51.4623C13.9807 51.4265 14.106 51.4086 14.2134 51.4086C14.3565 51.3728 14.4818 51.337 14.5892 51.3012C14.6608 51.2654 14.7324 51.2296 14.804 51.1938C14.8756 51.1938 14.9293 51.1759 14.9651 51.1401C15.2157 51.0327 15.4305 50.8895 15.6094 50.7105C15.7168 50.6031 15.8063 50.4958 15.8779 50.3884C15.9853 50.281 16.0569 50.1736 16.0927 50.0662C16.2359 49.8514 16.3433 49.6366 16.4149 49.4219C16.4507 49.2787 16.4865 49.1534 16.5223 49.046C16.5223 48.9028 16.5044 48.7775 16.4686 48.6701C16.4686 48.5627 16.4507 48.4553 16.4149 48.348C16.3791 48.2406 16.3254 48.1332 16.2538 48.0258C16.1106 47.8468 15.9674 47.6857 15.8242 47.5425C15.6452 47.3635 15.4841 47.2204 15.341 47.113C15.162 47.0056 15.0009 46.9161 14.8577 46.8445C14.6787 46.7729 14.5176 46.7013 14.3744 46.6297C14.0881 46.4865 13.8196 46.3791 13.569 46.3075C13.3542 46.2001 13.1932 46.1286 13.0858 46.0928Z" fill="#221F1F"/>
<path fill-rule="evenodd" clip-rule="evenodd" d="M6.96425 25.5824L48.7391 55.9201L5.67556 27.4617C4.81644 26.8711 4.38688 26.0119 4.76274 25.475C5.08491 24.938 6.05143 24.938 6.85685 25.475C6.89265 25.5108 6.92845 25.5466 6.96425 25.5824ZM6.53468 25.8509C6.05143 25.5287 5.51447 25.5287 5.29969 25.7972C5.08491 26.1193 5.35339 26.6563 5.83665 26.9784C5.83665 26.9784 9.43422 29.2873 9.75639 28.8578C10.0249 28.4282 6.58838 25.9045 6.58838 25.9045C6.58838 25.8687 6.57048 25.8509 6.53468 25.8509Z" fill="white"/>
<path fill-rule="evenodd" clip-rule="evenodd" d="M6.69579 25.8503L48.4706 56.1881L5.35341 27.7296C4.54799 27.1927 4.11842 26.2799 4.44059 25.7429C4.76277 25.206 5.72928 25.206 6.5884 25.7966C6.6242 25.7966 6.66 25.8145 6.69579 25.8503ZM6.26623 26.1188C5.72928 25.7966 5.19233 25.7966 4.97755 26.1188C4.81646 26.441 5.03124 26.9779 5.56819 27.3001C5.56819 27.3001 9.16577 29.609 9.43425 29.1794C9.75642 28.7499 6.31992 26.1725 6.31992 26.1725C6.28413 26.1725 6.26623 26.1546 6.26623 26.1188Z" fill="#221F1F"/>
<path d="M6.85693 28.8572C6.92853 28.8929 6.98222 28.9466 7.01802 29.0182C7.41179 28.6961 7.82345 28.3739 8.25301 28.0517L8.03823 27.9443C7.64446 28.2307 7.2507 28.535 6.85693 28.8572Z" fill="#6A1E3F"/>
<g clip-path="url(#clip0_105_8123)">
<path d="M61 0H66.9757V1.57227H64.9705V6.36312H63.0041V1.57227H61V0ZM67.8439 0H70.4302L71.4282 3.87028L72.4229 0H75V6.36198H73.3936V1.51074L72.1483 6.36198H70.6956L69.4538 1.51074V6.36198H67.8439V0Z" fill="black"/>
</g>
<defs>
<clipPath id="clip0_105_8123">
<rect width="14" height="6.36198" fill="white" transform="translate(61)"/>
</clipPath>
</defs>
</svg>
