<svg width="190" height="185" viewBox="0 0 190 185" fill="none" xmlns="http://www.w3.org/2000/svg">
<path d="M136.178 51.1036H116.246V63.5056H149.023V48.446C149.023 40.6504 143.707 33.6817 141.05 31.1718C128.648 19.8328 113.145 22.3132 106.944 24.9708V39.1445C126.433 27.8055 134.554 42.3927 136.178 51.1036Z" fill="#F57955"/>
<path d="M15.9942 172.662C15.7314 172.662 15.5397 172.602 15.419 172.481C15.2983 172.36 15.2379 172.169 15.2379 171.906V160.157C15.2379 159.894 15.2983 159.706 15.419 159.592C15.5397 159.472 15.7314 159.411 15.9942 159.411H20.2336C21.5331 159.411 22.6338 159.667 23.5356 160.178C24.4445 160.682 25.1298 161.428 25.5914 162.415C26.0601 163.402 26.2944 164.606 26.2944 166.026C26.2944 167.453 26.0601 168.661 25.5914 169.648C25.1298 170.635 24.4445 171.384 23.5356 171.895C22.6338 172.406 21.5331 172.662 20.2336 172.662H15.9942ZM20.2336 170.18C21.2419 170.18 22.0053 169.829 22.5237 169.126C23.0421 168.416 23.3013 167.382 23.3013 166.026C23.3013 164.677 23.0421 163.651 22.5237 162.948C22.0053 162.238 21.2419 161.883 20.2336 161.883H18.1778V170.18H20.2336ZM32.8346 172.822C31.1729 172.822 29.9337 172.378 29.1171 171.49C28.3005 170.596 27.8922 169.357 27.8922 167.773C27.8922 165.991 28.3005 164.684 29.1171 163.853C29.9337 163.022 31.0593 162.607 32.4937 162.607C33.4453 162.607 34.2228 162.823 34.8264 163.257C35.4371 163.69 35.881 164.272 36.1579 165.004C36.442 165.735 36.584 166.562 36.584 167.485C36.584 167.592 36.5201 167.734 36.3922 167.911C36.2715 168.089 36.1331 168.249 35.9768 168.391C35.8206 168.533 35.6999 168.604 35.6147 168.604H30.7894C30.8533 169.328 31.0664 169.843 31.4285 170.148C31.7978 170.447 32.3091 170.596 32.9624 170.596C33.3174 170.596 33.637 170.557 33.921 170.479C34.2122 170.393 34.5211 170.283 34.8477 170.148C35.0466 170.056 35.1815 170.01 35.2525 170.01C35.3803 170.01 35.5188 170.102 35.6679 170.287C35.8242 170.464 35.9555 170.67 36.062 170.905C36.1757 171.139 36.2325 171.32 36.2325 171.448C36.2325 171.739 36.0336 171.988 35.636 172.193C35.2454 172.399 34.7803 172.556 34.2406 172.662C33.708 172.769 33.2393 172.822 32.8346 172.822ZM33.8571 166.74C33.8571 166.157 33.7435 165.692 33.5163 165.344C33.289 164.989 32.9482 164.812 32.4937 164.812C31.5564 164.812 30.9883 165.454 30.7894 166.74H33.8571ZM41.2814 172.822C40.3795 172.822 39.6907 172.57 39.215 172.066C38.7463 171.554 38.5119 170.78 38.5119 169.744V158.996C38.5119 158.584 38.8918 158.378 39.6517 158.378H40.1843C40.5748 158.378 40.8589 158.431 41.0364 158.538C41.221 158.637 41.3133 158.79 41.3133 158.996V169.776C41.3133 170.067 41.3666 170.276 41.4731 170.404C41.5796 170.532 41.7572 170.596 42.0057 170.596C42.0696 170.596 42.1655 170.582 42.2933 170.553C42.3288 170.546 42.3643 170.539 42.3998 170.532C42.4353 170.525 42.4744 170.521 42.517 170.521C42.6235 170.521 42.7194 170.617 42.8046 170.809C42.8969 170.993 42.9679 171.203 43.0176 171.437C43.0673 171.664 43.0922 171.814 43.0922 171.885C43.0922 172.509 42.4886 172.822 41.2814 172.822ZM45.2225 161.126C44.8249 161.126 44.5337 161.077 44.3491 160.977C44.1716 160.878 44.0828 160.725 44.0828 160.519V158.996C44.0828 158.79 44.1751 158.637 44.3597 158.538C44.5444 158.431 44.832 158.378 45.2225 158.378H45.7445C46.135 158.378 46.4226 158.431 46.6073 158.538C46.7919 158.637 46.8842 158.79 46.8842 158.996V160.519C46.8842 160.725 46.7919 160.878 46.6073 160.977C46.4297 161.077 46.1421 161.126 45.7445 161.126H45.2225ZM45.2225 172.694C44.4627 172.694 44.0828 172.495 44.0828 172.098V163.321C44.0828 163.122 44.1751 162.973 44.3597 162.873C44.5444 162.774 44.832 162.724 45.2225 162.724H45.7445C46.135 162.724 46.4226 162.774 46.6073 162.873C46.7919 162.973 46.8842 163.122 46.8842 163.321V172.098C46.8842 172.495 46.5043 172.694 45.7445 172.694H45.2225ZM52.274 172.694C51.9757 172.694 51.7343 172.666 51.5497 172.609C51.3721 172.552 51.2585 172.449 51.2088 172.3L48.205 163.48C48.1979 163.438 48.1837 163.381 48.1624 163.31C48.1411 163.232 48.1305 163.175 48.1305 163.139C48.1305 162.997 48.2228 162.894 48.4074 162.831C48.592 162.76 48.8832 162.724 49.2808 162.724H49.8986C50.204 162.724 50.449 162.756 50.6336 162.82C50.8182 162.877 50.9319 162.976 50.9745 163.118L52.0822 166.612C52.1178 166.74 52.2278 167.201 52.4125 167.997L52.6148 168.902H52.7C52.9202 167.787 53.0942 167.024 53.222 166.612L54.3404 163.118C54.383 162.976 54.4931 162.877 54.6706 162.82C54.8552 162.756 55.1002 162.724 55.4056 162.724H55.8743C56.2648 162.724 56.5489 162.76 56.7264 162.831C56.911 162.894 57.0033 162.997 57.0033 163.139C57.0033 163.253 56.9856 163.367 56.9501 163.48L53.9356 172.3C53.893 172.442 53.7794 172.545 53.5948 172.609C53.4173 172.666 53.1794 172.694 52.8811 172.694H52.274ZM62.9151 172.822C61.2534 172.822 60.0142 172.378 59.1976 171.49C58.381 170.596 57.9727 169.357 57.9727 167.773C57.9727 165.991 58.381 164.684 59.1976 163.853C60.0142 163.022 61.1398 162.607 62.5742 162.607C63.5258 162.607 64.3033 162.823 64.9069 163.257C65.5176 163.69 65.9615 164.272 66.2384 165.004C66.5225 165.735 66.6645 166.562 66.6645 167.485C66.6645 167.592 66.6006 167.734 66.4727 167.911C66.352 168.089 66.2136 168.249 66.0573 168.391C65.9011 168.533 65.7804 168.604 65.6952 168.604H60.8699C60.9338 169.328 61.1469 169.843 61.509 170.148C61.8783 170.447 62.3896 170.596 63.0429 170.596C63.3979 170.596 63.7175 170.557 64.0015 170.479C64.2927 170.393 64.6016 170.283 64.9282 170.148C65.1271 170.056 65.262 170.01 65.333 170.01C65.4608 170.01 65.5993 170.102 65.7484 170.287C65.9047 170.464 66.036 170.67 66.1425 170.905C66.2562 171.139 66.313 171.32 66.313 171.448C66.313 171.739 66.1141 171.988 65.7165 172.193C65.3259 172.399 64.8608 172.556 64.3211 172.662C63.7885 172.769 63.3198 172.822 62.9151 172.822ZM63.9376 166.74C63.9376 166.157 63.824 165.692 63.5968 165.344C63.3695 164.989 63.0287 164.812 62.5742 164.812C61.6369 164.812 61.0688 165.454 60.8699 166.74H63.9376ZM69.7109 172.694C68.9581 172.694 68.5818 172.495 68.5818 172.098V166.09C68.5818 165.181 68.5214 164.425 68.4007 163.821C68.3652 163.629 68.3474 163.495 68.3474 163.416C68.3474 163.274 68.4788 163.161 68.7416 163.076C69.0114 162.983 69.3132 162.916 69.647 162.873C69.9878 162.831 70.2612 162.809 70.4671 162.809C70.6873 162.809 70.84 162.891 70.9252 163.054C71.0175 163.218 71.0991 163.455 71.1702 163.768L71.2341 164.045C71.4755 163.605 71.7525 163.257 72.0649 163.001C72.3845 162.738 72.7928 162.607 73.2899 162.607C73.7017 162.607 73.9858 162.713 74.142 162.926C74.2982 163.132 74.3763 163.367 74.3763 163.629C74.3763 163.771 74.3515 163.974 74.3018 164.237C74.2521 164.492 74.181 164.719 74.0887 164.918C73.9964 165.117 73.8935 165.217 73.7798 165.217C73.7017 165.217 73.5846 165.195 73.4283 165.153C73.2153 165.096 73.0342 165.067 72.8851 165.067C72.5371 165.067 72.2318 165.167 71.969 165.366C71.7134 165.557 71.5181 165.774 71.3832 166.015V172.098C71.3832 172.495 70.9997 172.694 70.2328 172.694H69.7109ZM76.5812 161.126C76.1836 161.126 75.8924 161.077 75.7078 160.977C75.5303 160.878 75.4415 160.725 75.4415 160.519V158.996C75.4415 158.79 75.5338 158.637 75.7184 158.538C75.9031 158.431 76.1907 158.378 76.5812 158.378H77.1032C77.4937 158.378 77.7813 158.431 77.966 158.538C78.1506 158.637 78.2429 158.79 78.2429 158.996V160.519C78.2429 160.725 78.1506 160.878 77.966 160.977C77.7884 161.077 77.5008 161.126 77.1032 161.126H76.5812ZM76.5812 172.694C75.8214 172.694 75.4415 172.495 75.4415 172.098V163.321C75.4415 163.122 75.5338 162.973 75.7184 162.873C75.9031 162.774 76.1907 162.724 76.5812 162.724H77.1032C77.4937 162.724 77.7813 162.774 77.966 162.873C78.1506 162.973 78.2429 163.122 78.2429 163.321V172.098C78.2429 172.495 77.863 172.694 77.1032 172.694H76.5812ZM81.6621 172.694C80.9094 172.694 80.533 172.495 80.533 172.098V166.09C80.533 165.181 80.4727 164.425 80.352 163.821C80.3165 163.629 80.2987 163.495 80.2987 163.416C80.2987 163.274 80.4301 163.161 80.6928 163.076C80.9627 162.983 81.2645 162.916 81.5982 162.873C81.9391 162.831 82.2125 162.809 82.4184 162.809C82.6385 162.809 82.7912 162.891 82.8764 163.054C82.9687 163.218 83.0504 163.455 83.1214 163.768L83.1853 164.045C83.4836 163.647 83.8812 163.31 84.3783 163.033C84.8825 162.749 85.4222 162.607 85.9974 162.607C86.9489 162.607 87.6519 162.855 88.1064 163.353C88.5609 163.85 88.7881 164.62 88.7881 165.664V172.098C88.7881 172.495 88.4047 172.694 87.6377 172.694H87.1158C86.3631 172.694 85.9867 172.495 85.9867 172.098V166.09C85.9867 165.707 85.8944 165.415 85.7098 165.217C85.5322 165.018 85.2411 164.918 84.8363 164.918C84.4955 164.918 84.1937 165.032 83.9309 165.259C83.6682 165.486 83.4694 165.739 83.3344 166.015V172.098C83.3344 172.495 82.951 172.694 82.1841 172.694H81.6621ZM94.8596 176.678C91.8558 176.678 90.3539 175.804 90.3539 174.058C90.3539 173.568 90.4995 173.134 90.7907 172.758C91.0889 172.382 91.5185 172.083 92.0795 171.863L92.0902 171.789C91.8345 171.654 91.6357 171.462 91.4937 171.214C91.3516 170.965 91.2806 170.684 91.2806 170.372C91.2806 170.052 91.3765 169.758 91.5682 169.488C91.7671 169.218 92.0511 168.987 92.4204 168.796C91.9375 168.526 91.5576 168.156 91.2806 167.688C91.0108 167.219 90.8759 166.647 90.8759 165.973C90.8759 164.822 91.2487 163.974 91.9943 163.427C92.747 162.88 93.7341 162.607 94.9555 162.607C95.4668 162.607 95.9532 162.657 96.4148 162.756H99.4612C99.66 162.756 99.8056 162.834 99.8979 162.99C99.9902 163.139 100.036 163.377 100.036 163.704V164.024C100.036 164.62 99.8837 164.918 99.5783 164.918C99.4718 164.918 99.3262 164.911 99.1416 164.897C98.9641 164.883 98.8363 164.865 98.7581 164.844L98.7262 164.918C98.8114 165.032 98.8824 165.192 98.9392 165.398C98.996 165.596 99.0244 165.788 99.0244 165.973C99.0244 167.102 98.6694 167.943 97.9593 168.497C97.2492 169.044 96.3189 169.317 95.1685 169.317C94.3945 169.317 94.0075 169.491 94.0075 169.839C94.0075 169.996 94.0856 170.12 94.2418 170.212C94.398 170.297 94.5969 170.365 94.8383 170.415C95.0868 170.464 95.4384 170.518 95.8928 170.574C96.2195 170.61 96.5248 170.653 96.8089 170.702C97.7036 170.88 98.4173 171.171 98.9499 171.576C99.4825 171.973 99.7488 172.602 99.7488 173.461C99.7488 174.107 99.5464 174.672 99.1416 175.155C98.7368 175.638 98.1652 176.01 97.4267 176.273C96.6882 176.543 95.8325 176.678 94.8596 176.678ZM94.9555 167.304C95.3744 167.304 95.7153 167.194 95.978 166.974C96.2479 166.754 96.3828 166.42 96.3828 165.973C96.3828 165.525 96.2479 165.192 95.978 164.972C95.7153 164.744 95.3744 164.631 94.9555 164.631C94.5365 164.631 94.1921 164.744 93.9223 164.972C93.6595 165.192 93.5281 165.525 93.5281 165.973C93.5281 166.42 93.6595 166.754 93.9223 166.974C94.1921 167.194 94.5365 167.304 94.9555 167.304ZM95.0726 174.462C95.7118 174.462 96.1946 174.381 96.5213 174.217C96.855 174.054 97.0219 173.827 97.0219 173.536C97.0219 173.337 96.926 173.177 96.7343 173.056C96.5497 172.943 96.2479 172.847 95.8289 172.769C95.4171 172.698 94.8383 172.637 94.0927 172.588C93.7731 172.701 93.5246 172.85 93.3471 173.035C93.1695 173.22 93.0808 173.411 93.0808 173.61C93.0808 173.88 93.2441 174.089 93.5708 174.239C93.8974 174.388 94.398 174.462 95.0726 174.462ZM105.969 172.694C105.195 172.694 104.808 172.556 104.808 172.279C104.808 172.201 104.833 172.087 104.883 171.938L109.058 159.763C109.158 159.493 109.516 159.358 110.134 159.358H111.114C111.732 159.358 112.091 159.493 112.19 159.763L116.365 171.938C116.401 172.08 116.419 172.193 116.419 172.279C116.419 172.421 116.341 172.527 116.184 172.598C116.035 172.662 115.797 172.694 115.471 172.694H114.64C114.342 172.694 114.1 172.666 113.916 172.609C113.738 172.545 113.628 172.442 113.585 172.3L112.818 169.989H108.355L107.588 172.3C107.51 172.563 107.219 172.694 106.715 172.694H105.969ZM112.009 167.485L110.933 164.119C110.869 163.949 110.812 163.754 110.763 163.534C110.72 163.313 110.681 163.104 110.645 162.905H110.571L110.528 163.139C110.457 163.558 110.376 163.885 110.283 164.119L109.165 167.485H112.009ZM128.466 162.607C129.41 162.607 130.106 162.855 130.554 163.353C131.008 163.85 131.235 164.62 131.235 165.664V172.098C131.235 172.495 130.852 172.694 130.085 172.694H129.563C128.81 172.694 128.434 172.495 128.434 172.098V166.09C128.434 165.707 128.345 165.415 128.168 165.217C127.997 165.018 127.71 164.918 127.305 164.918C126.95 164.918 126.648 165.028 126.399 165.249C126.158 165.462 125.963 165.71 125.814 165.994V172.098C125.814 172.495 125.434 172.694 124.674 172.694H124.141C123.389 172.694 123.012 172.495 123.012 172.098V166.09C123.012 165.707 122.923 165.415 122.746 165.217C122.575 165.018 122.291 164.918 121.894 164.918C121.553 164.918 121.251 165.032 120.988 165.259C120.733 165.486 120.537 165.739 120.402 166.015V172.098C120.402 172.495 120.019 172.694 119.252 172.694H118.73C117.977 172.694 117.601 172.495 117.601 172.098V166.09C117.601 165.181 117.541 164.425 117.42 163.821C117.384 163.629 117.367 163.495 117.367 163.416C117.367 163.274 117.498 163.161 117.761 163.076C118.031 162.983 118.332 162.916 118.666 162.873C119.007 162.831 119.28 162.809 119.486 162.809C119.707 162.809 119.859 162.891 119.944 163.054C120.037 163.218 120.118 163.455 120.189 163.768L120.253 164.045C120.552 163.64 120.949 163.299 121.446 163.022C121.943 162.745 122.48 162.607 123.055 162.607C123.708 162.607 124.237 162.724 124.642 162.958C125.054 163.193 125.356 163.555 125.547 164.045C125.867 163.64 126.286 163.299 126.804 163.022C127.323 162.745 127.876 162.607 128.466 162.607ZM138.915 172.822C138.354 172.822 137.85 172.691 137.403 172.428C136.955 172.158 136.618 171.814 136.391 171.395L136.337 171.618C136.274 171.895 136.224 172.09 136.188 172.204C136.139 172.403 136.029 172.534 135.858 172.598C135.688 172.662 135.436 172.694 135.102 172.694H134.878C134.118 172.694 133.738 172.495 133.738 172.098V158.996C133.738 158.79 133.831 158.637 134.015 158.538C134.2 158.431 134.488 158.378 134.878 158.378H135.4C136.16 158.378 136.54 158.584 136.54 158.996V163.193C137.072 162.802 137.715 162.607 138.468 162.607C139.306 162.607 140.023 162.816 140.619 163.235C141.223 163.647 141.681 164.237 141.994 165.004C142.306 165.77 142.462 166.669 142.462 167.698C142.462 168.771 142.31 169.694 142.004 170.468C141.706 171.235 141.287 171.821 140.747 172.225C140.215 172.623 139.604 172.822 138.915 172.822ZM138.095 170.521C139.11 170.521 139.618 169.58 139.618 167.698C139.618 165.774 139.032 164.812 137.861 164.812C137.427 164.812 136.987 164.933 136.54 165.174V169.403C136.973 170.148 137.491 170.521 138.095 170.521ZM145.519 161.126C145.122 161.126 144.83 161.077 144.646 160.977C144.468 160.878 144.38 160.725 144.38 160.519V158.996C144.38 158.79 144.472 158.637 144.656 158.538C144.841 158.431 145.129 158.378 145.519 158.378H146.041C146.432 158.378 146.719 158.431 146.904 158.538C147.089 158.637 147.181 158.79 147.181 158.996V160.519C147.181 160.725 147.089 160.878 146.904 160.977C146.726 161.077 146.439 161.126 146.041 161.126H145.519ZM145.519 172.694C144.759 172.694 144.38 172.495 144.38 172.098V163.321C144.38 163.122 144.472 162.973 144.656 162.873C144.841 162.774 145.129 162.724 145.519 162.724H146.041C146.432 162.724 146.719 162.774 146.904 162.873C147.089 162.973 147.181 163.122 147.181 163.321V172.098C147.181 172.495 146.801 172.694 146.041 172.694H145.519ZM152.517 172.822C151.616 172.822 150.927 172.57 150.451 172.066C149.982 171.554 149.748 170.78 149.748 169.744V164.972H149.45C149.251 164.972 149.105 164.897 149.013 164.748C148.928 164.599 148.885 164.357 148.885 164.024V163.704C148.885 163.37 148.928 163.129 149.013 162.98C149.105 162.831 149.251 162.756 149.45 162.756H149.748L149.993 160.956C150.05 160.558 150.391 160.359 151.016 160.359H151.612C151.939 160.359 152.177 160.409 152.326 160.509C152.482 160.608 152.56 160.757 152.56 160.956V162.756H153.487C153.686 162.756 153.828 162.831 153.913 162.98C154.005 163.129 154.051 163.37 154.051 163.704V164.024C154.051 164.357 154.005 164.599 153.913 164.748C153.828 164.897 153.686 164.972 153.487 164.972H152.56V169.776C152.56 170.067 152.61 170.276 152.709 170.404C152.816 170.532 152.99 170.596 153.231 170.596C153.302 170.596 153.398 170.585 153.519 170.564C153.639 170.535 153.714 170.521 153.742 170.521C153.856 170.521 153.955 170.617 154.041 170.809C154.133 170.993 154.204 171.199 154.254 171.427C154.31 171.654 154.339 171.806 154.339 171.885C154.339 172.509 153.732 172.822 152.517 172.822ZM157.044 161.126C156.647 161.126 156.356 161.077 156.171 160.977C155.993 160.878 155.905 160.725 155.905 160.519V158.996C155.905 158.79 155.997 158.637 156.182 158.538C156.366 158.431 156.654 158.378 157.044 158.378H157.566C157.957 158.378 158.245 158.431 158.429 158.538C158.614 158.637 158.706 158.79 158.706 158.996V160.519C158.706 160.725 158.614 160.878 158.429 160.977C158.252 161.077 157.964 161.126 157.566 161.126H157.044ZM157.044 172.694C156.285 172.694 155.905 172.495 155.905 172.098V163.321C155.905 163.122 155.997 162.973 156.182 162.873C156.366 162.774 156.654 162.724 157.044 162.724H157.566C157.957 162.724 158.245 162.774 158.429 162.873C158.614 162.973 158.706 163.122 158.706 163.321V172.098C158.706 172.495 158.326 172.694 157.566 172.694H157.044ZM165.214 172.822C163.716 172.822 162.573 172.382 161.784 171.501C161.003 170.621 160.613 169.353 160.613 167.698C160.613 166.051 161.003 164.791 161.784 163.917C162.573 163.044 163.716 162.607 165.214 162.607C166.713 162.607 167.849 163.044 168.623 163.917C169.404 164.783 169.795 166.044 169.795 167.698C169.795 169.353 169.404 170.621 168.623 171.501C167.849 172.382 166.713 172.822 165.214 172.822ZM165.214 170.596C165.811 170.596 166.248 170.354 166.524 169.871C166.809 169.389 166.951 168.664 166.951 167.698C166.951 166.74 166.809 166.019 166.524 165.536C166.248 165.053 165.811 164.812 165.214 164.812C164.036 164.812 163.446 165.774 163.446 167.698C163.446 168.657 163.588 169.381 163.872 169.871C164.163 170.354 164.611 170.596 165.214 170.596ZM172.905 172.694C172.152 172.694 171.776 172.495 171.776 172.098V166.09C171.776 165.181 171.715 164.425 171.595 163.821C171.559 163.629 171.541 163.495 171.541 163.416C171.541 163.274 171.673 163.161 171.936 163.076C172.205 162.983 172.507 162.916 172.841 162.873C173.182 162.831 173.455 162.809 173.661 162.809C173.881 162.809 174.034 162.891 174.119 163.054C174.211 163.218 174.293 163.455 174.364 163.768L174.428 164.045C174.726 163.647 175.124 163.31 175.621 163.033C176.125 162.749 176.665 162.607 177.24 162.607C178.192 162.607 178.895 162.855 179.349 163.353C179.804 163.85 180.031 164.62 180.031 165.664V172.098C180.031 172.495 179.647 172.694 178.88 172.694H178.359C177.606 172.694 177.229 172.495 177.229 172.098V166.09C177.229 165.707 177.137 165.415 176.953 165.217C176.775 165.018 176.484 164.918 176.079 164.918C175.738 164.918 175.436 165.032 175.174 165.259C174.911 165.486 174.712 165.739 174.577 166.015V172.098C174.577 172.495 174.194 172.694 173.427 172.694H172.905ZM184.867 172.822C184.377 172.822 183.89 172.769 183.407 172.662C182.925 172.556 182.523 172.403 182.204 172.204C181.891 172.005 181.735 171.778 181.735 171.522C181.735 171.366 181.792 171.171 181.906 170.937C182.019 170.702 182.154 170.5 182.31 170.329C182.474 170.152 182.616 170.063 182.736 170.063C182.8 170.063 182.939 170.113 183.152 170.212C183.4 170.326 183.638 170.418 183.866 170.489C184.093 170.56 184.352 170.596 184.643 170.596C185.005 170.596 185.279 170.528 185.463 170.393C185.648 170.258 185.74 170.06 185.74 169.797C185.74 169.598 185.683 169.435 185.57 169.307C185.463 169.172 185.325 169.062 185.154 168.977C184.984 168.891 184.743 168.788 184.43 168.668L184.121 168.551C183.716 168.394 183.361 168.217 183.056 168.018C182.751 167.819 182.491 167.532 182.278 167.155C182.065 166.772 181.959 166.289 181.959 165.707C181.959 165.06 182.097 164.506 182.374 164.045C182.658 163.576 183.06 163.221 183.578 162.98C184.096 162.731 184.707 162.607 185.41 162.607C185.815 162.607 186.237 162.646 186.678 162.724C187.118 162.802 187.487 162.923 187.785 163.086C188.091 163.25 188.243 163.455 188.243 163.704C188.243 163.846 188.197 164.038 188.105 164.279C188.02 164.521 187.913 164.734 187.785 164.918C187.658 165.103 187.537 165.195 187.423 165.195C187.388 165.195 187.288 165.163 187.125 165.099C186.905 165.007 186.692 164.936 186.486 164.886C186.287 164.83 186.056 164.801 185.793 164.801C185.126 164.801 184.792 165.021 184.792 165.462C184.792 165.66 184.853 165.831 184.973 165.973C185.101 166.115 185.257 166.232 185.442 166.324C185.627 166.417 185.886 166.527 186.22 166.655C186.603 166.811 186.841 166.91 186.933 166.953C187.43 167.201 187.828 167.532 188.126 167.943C188.432 168.348 188.584 168.891 188.584 169.573C188.584 170.219 188.439 170.787 188.148 171.277C187.856 171.767 187.43 172.147 186.869 172.417C186.308 172.687 185.641 172.822 184.867 172.822Z" fill="#F57955"/>
<path d="M168.064 135.26H67.5189C65.0385 128.527 69.4382 127.435 71.9482 127.73C100.443 127.582 158.674 127.376 163.634 127.73C168.595 128.084 169.835 125.22 169.835 123.744V120.2C169.835 117.366 164.225 116.362 161.42 116.214H82.1355C58.0401 118.694 46.7011 90.9669 44.0436 76.7932L24.5547 8.13917H4.6229C1.43385 7.78482 0.341267 6.21977 0.19361 5.48154C-0.869421 1.93807 2.70354 0.461662 4.6229 0.166392H28.5411C31.7302 -0.542295 33.4133 3.41454 33.8562 5.48154L54.6739 80.3366C60.6977 89.9039 78.1492 89.9334 86.1219 88.7522V22.7558H100.739V88.7522H106.94V77.679C121.468 87.2463 132.187 76.6455 135.73 70.1492H147.689C143.083 91.0555 124.214 95.9868 115.355 95.8391H71.9482C65.2156 95.8391 60.5796 93.7721 59.1032 92.7386C61.5836 100.534 74.3104 106.322 80.3638 108.241H166.292C176.922 109.304 178.399 119.314 177.808 124.187C177.1 131.273 171.017 134.522 168.064 135.26Z" fill="#4D4B22"/>
<circle cx="91.4375" cy="142.347" r="10.1874" fill="#F57955" stroke="white" stroke-width="1.77172"/>
<circle cx="148.134" cy="142.347" r="10.1874" fill="#F57955" stroke="white" stroke-width="1.77172"/>
<path d="M86.5654 7.25332H94.5382C97.9629 7.25332 100.739 10.0296 100.739 13.4543V19.6553H86.5654V7.25332Z" fill="#F57955"/>
</svg>
