<svg width="35" height="35" viewBox="0 0 35 35" fill="none" xmlns="http://www.w3.org/2000/svg">
<rect width="35" height="35" rx="17.5" fill="white"/>
<g clip-path="url(#clip0_587_1173)">
<path d="M19.1884 17.5017L7.93964 28.3335C7.41288 27.9735 7.10013 27.3747 7.10566 26.7367V8.2667C7.10013 7.62872 7.41288 7.02992 7.93964 6.66992L19.1884 17.5017Z" fill="#2196F3"/>
<path d="M23.1244 13.7183L19.1883 17.5018L7.93958 6.67C7.98196 6.63715 8.02611 6.60659 8.07178 6.57846C8.66629 6.21814 9.40887 6.2065 10.0144 6.54795L23.1244 13.7183Z" fill="#4CAF50"/>
<path d="M27.8944 17.5018C27.9018 18.222 27.5104 18.8872 26.8774 19.2308L23.1244 21.2853L19.1884 17.5018L23.1244 13.7183L26.8774 15.7727C27.5104 16.1163 27.9018 16.7815 27.8944 17.5018Z" fill="#FFC107"/>
<path d="M23.1244 21.2854L10.0144 28.4558C9.40754 28.7919 8.66776 28.7803 8.07178 28.4253C8.02611 28.3971 7.98196 28.3666 7.93958 28.3337L19.1884 17.502L23.1244 21.2854Z" fill="#F44336"/>
</g>
<defs>
<clipPath id="clip0_587_1173">
<rect width="22.4" height="22.4" fill="white" transform="translate(6.30005 6.2998)"/>
</clipPath>
</defs>
</svg>
