<svg width="163" height="49" viewBox="0 0 163 49" fill="none" xmlns="http://www.w3.org/2000/svg">
<path d="M156.963 48.2963H6.03704C2.6563 48.2963 0 45.64 0 42.2593V6.03704C0 2.6563 2.6563 0 6.03704 0H156.963C160.344 0 163 2.6563 163 6.03704V42.2593C163 45.64 160.344 48.2963 156.963 48.2963Z" fill="#6B705C"/>
<path d="M57.2308 12.3145C57.2308 13.2804 56.9893 14.1256 56.3856 14.7293C55.6611 15.4538 54.816 15.816 53.7293 15.816C52.6426 15.816 51.7974 15.4538 51.073 14.7293C50.3485 14.0049 49.9863 13.1597 49.9863 12.073C49.9863 10.9864 50.3485 10.1412 51.073 9.41674C51.7974 8.6923 52.6426 8.33008 53.7293 8.33008C54.2123 8.33008 54.6952 8.45082 55.1782 8.6923C55.6611 8.93378 56.0234 9.17526 56.2648 9.53749L55.6611 10.1412C55.1782 9.53748 54.5745 9.296 53.7293 9.296C53.0048 9.296 52.2804 9.53748 51.7974 10.1412C51.1937 10.6242 50.9523 11.3486 50.9523 12.1938C50.9523 13.039 51.1937 13.7634 51.7974 14.2464C52.4011 14.7293 53.0048 15.0916 53.7293 15.0916C54.5745 15.0916 55.1782 14.8501 55.7819 14.2464C56.1441 13.8842 56.3856 13.4012 56.3856 12.7975H53.7293V11.8316H57.2308V12.3145ZM62.7848 9.296H59.5248V11.5901H62.5434V12.4353H59.5248V14.7293H62.7848V15.6953H58.5589V8.45082H62.7848V9.296ZM66.7693 15.6953H65.8034V9.296H63.7508V8.45082H68.8219V9.296H66.7693V15.6953ZM72.3234 15.6953V8.45082H73.2893V15.6953H72.3234ZM77.3945 15.6953H76.4285V9.296H74.376V8.45082H79.3263V9.296H77.2737V15.6953H77.3945ZM88.8648 14.7293C88.1404 15.4538 87.2952 15.816 86.2085 15.816C85.1219 15.816 84.2767 15.4538 83.5522 14.7293C82.8278 14.0049 82.4656 13.1597 82.4656 12.073C82.4656 10.9864 82.8278 10.1412 83.5522 9.41674C84.2767 8.6923 85.1219 8.33008 86.2085 8.33008C87.2952 8.33008 88.1404 8.6923 88.8648 9.41674C89.5893 10.1412 89.9515 10.9864 89.9515 12.073C89.9515 13.1597 89.5893 14.0049 88.8648 14.7293ZM84.2767 14.1256C84.7597 14.6086 85.4841 14.9708 86.2085 14.9708C86.933 14.9708 87.6574 14.7293 88.1404 14.1256C88.6234 13.6427 88.9856 12.9182 88.9856 12.073C88.9856 11.2279 88.7441 10.5034 88.1404 10.0204C87.6574 9.53749 86.933 9.17526 86.2085 9.17526C85.4841 9.17526 84.7597 9.41674 84.2767 10.0204C83.7937 10.5034 83.4315 11.2279 83.4315 12.073C83.4315 12.9182 83.673 13.6427 84.2767 14.1256ZM91.2797 15.6953V8.45082H92.3663L95.8678 14.1256V8.45082H96.8337V15.6953H95.8678L92.1248 9.77897V15.6953H91.2797Z" fill="white" stroke="white" stroke-width="0.241482" stroke-miterlimit="10"/>
<path d="M82.225 26.3203C79.3272 26.3203 77.0331 28.4937 77.0331 31.5122C77.0331 34.41 79.3272 36.704 82.225 36.704C85.1228 36.704 87.4169 34.5307 87.4169 31.5122C87.4169 28.3729 85.1228 26.3203 82.225 26.3203ZM82.225 34.5307C80.6554 34.5307 79.3272 33.2025 79.3272 31.3914C79.3272 29.5803 80.6554 28.2522 82.225 28.2522C83.7946 28.2522 85.1228 29.4596 85.1228 31.3914C85.1228 33.2025 83.7946 34.5307 82.225 34.5307ZM70.9961 26.3203C68.0983 26.3203 65.8043 28.4937 65.8043 31.5122C65.8043 34.41 68.0983 36.704 70.9961 36.704C73.8939 36.704 76.188 34.5307 76.188 31.5122C76.188 28.3729 73.8939 26.3203 70.9961 26.3203ZM70.9961 34.5307C69.4265 34.5307 68.0983 33.2025 68.0983 31.3914C68.0983 29.5803 69.4265 28.2522 70.9961 28.2522C72.5657 28.2522 73.8939 29.4596 73.8939 31.3914C73.8939 33.2025 72.5657 34.5307 70.9961 34.5307ZM57.5939 27.89V30.0633H62.7857C62.665 31.2707 62.182 32.2366 61.5783 32.8403C60.8539 33.5648 59.6465 34.41 57.5939 34.41C54.3339 34.41 51.9191 31.8744 51.9191 28.6144C51.9191 25.3544 54.4546 22.8188 57.5939 22.8188C59.2843 22.8188 60.6124 23.5433 61.5783 24.3885L63.148 22.8188C61.8198 21.6114 60.1294 20.6455 57.7146 20.6455C53.368 20.6455 49.625 24.2677 49.625 28.6144C49.625 32.9611 53.368 36.5833 57.7146 36.5833C60.1294 36.5833 61.8198 35.8588 63.2687 34.2892C64.7176 32.8403 65.2006 30.7877 65.2006 29.2181C65.2006 28.7351 65.2006 28.2522 65.0798 27.89H57.5939ZM112.41 29.5803C111.927 28.3729 110.72 26.3203 108.064 26.3203C105.407 26.3203 103.234 28.3729 103.234 31.5122C103.234 34.41 105.407 36.704 108.305 36.704C110.599 36.704 112.048 35.2551 112.531 34.41L110.841 33.2025C110.237 34.0477 109.512 34.6514 108.305 34.6514C107.098 34.6514 106.373 34.1685 105.769 33.0818L112.652 30.184L112.41 29.5803ZM105.407 31.2707C105.407 29.3388 106.977 28.2522 108.064 28.2522C108.909 28.2522 109.754 28.7351 109.995 29.3388L105.407 31.2707ZM99.7324 36.2211H102.026V21.1285H99.7324V36.2211ZM96.1102 27.407C95.5065 26.8033 94.5406 26.1996 93.3332 26.1996C90.7976 26.1996 88.3828 28.4937 88.3828 31.3914C88.3828 34.2892 90.6769 36.4625 93.3332 36.4625C94.5406 36.4625 95.5065 35.8588 95.9894 35.2551H96.1102V35.9796C96.1102 37.9114 95.0235 38.9981 93.3332 38.9981C92.005 38.9981 91.0391 38.0322 90.7976 37.187L88.8657 38.0322C89.4694 39.3603 90.9183 41.0507 93.4539 41.0507C96.1102 41.0507 98.2835 39.4811 98.2835 35.7381V26.5618H96.1102V27.407ZM93.4539 34.5307C91.8843 34.5307 90.5561 33.2025 90.5561 31.3914C90.5561 29.5803 91.8843 28.2522 93.4539 28.2522C95.0235 28.2522 96.2309 29.5803 96.2309 31.3914C96.2309 33.2025 95.0235 34.5307 93.4539 34.5307ZM122.915 21.1285H117.481V36.2211H119.775V30.5462H122.915C125.45 30.5462 127.865 28.7351 127.865 25.8374C127.865 22.9396 125.45 21.1285 122.915 21.1285ZM123.035 28.3729H119.775V23.1811H123.035C124.726 23.1811 125.692 24.63 125.692 25.7166C125.571 27.0448 124.605 28.3729 123.035 28.3729ZM136.921 26.1996C135.23 26.1996 133.54 26.924 132.936 28.4937L134.989 29.3388C135.472 28.4937 136.196 28.2522 137.041 28.2522C138.249 28.2522 139.335 28.9766 139.456 30.184V30.3048C139.094 30.0633 138.128 29.7011 137.162 29.7011C134.989 29.7011 132.815 30.9085 132.815 33.0818C132.815 35.1344 134.626 36.4625 136.558 36.4625C138.128 36.4625 138.852 35.7381 139.456 35.0137H139.577V36.2211H141.75V30.4255C141.509 27.7692 139.456 26.1996 136.921 26.1996ZM136.679 34.5307C135.955 34.5307 134.868 34.1685 134.868 33.2025C134.868 31.9951 136.196 31.6329 137.283 31.6329C138.249 31.6329 138.732 31.8744 139.335 32.1159C139.094 33.5648 137.886 34.5307 136.679 34.5307ZM149.357 26.5618L146.821 33.0818H146.701L144.044 26.5618H141.629L145.614 35.7381L143.32 40.8092H145.614L151.772 26.5618H149.357ZM129.072 36.2211H131.366V21.1285H129.072V36.2211Z" fill="white"/>
<path d="M25.5807 24.9345C25.58 24.8433 25.5611 24.7532 25.5253 24.6694C25.4894 24.5856 25.4372 24.5098 25.3717 24.4463L11.7194 11.234C11.6358 11.1531 11.5332 11.0948 11.421 11.0644C11.3089 11.034 11.1908 11.0326 11.0779 11.0602C10.9651 11.0878 10.861 11.1435 10.7755 11.2223C10.69 11.301 10.6259 11.4001 10.5891 11.5103C10.495 11.782 10.4458 12.0671 10.4434 12.3546V37.3122C10.4434 37.8292 10.5891 38.3146 10.8751 38.7546C10.9311 38.8402 11.0055 38.9122 11.0928 38.9656C11.18 39.0189 11.2781 39.0521 11.3798 39.0629C11.4815 39.0737 11.5844 39.0618 11.6809 39.0279C11.7774 38.9941 11.8653 38.9393 11.938 38.8673L25.3786 25.4267C25.443 25.362 25.494 25.2852 25.5287 25.2007C25.5634 25.1162 25.5811 25.0258 25.5807 24.9345ZM26.359 23.4893C26.4882 23.6159 26.6622 23.6862 26.843 23.6849C27.0239 23.6836 27.1969 23.6108 27.3242 23.4825L30.7961 20.0106C30.8711 19.9349 30.9275 19.8428 30.9609 19.7417C30.9944 19.6405 31.0039 19.533 30.9889 19.4275C30.9738 19.322 30.9346 19.2215 30.8742 19.1337C30.8138 19.0459 30.7339 18.9733 30.6407 18.9216L14.358 10.0047C14.211 9.93166 14.0427 9.91341 13.8835 9.95323C13.7242 9.99304 13.5843 10.0883 13.489 10.222C13.3945 10.3563 13.351 10.52 13.3664 10.6836C13.3818 10.8472 13.455 10.9999 13.5729 11.1143L26.359 23.4893ZM37.1734 22.498L33.1529 20.2952C33.0222 20.2244 32.8723 20.1975 32.7251 20.2185C32.578 20.2396 32.4416 20.3074 32.3361 20.4121L28.328 24.4202C28.2637 24.4847 28.2128 24.5614 28.1784 24.6457C28.1439 24.73 28.1266 24.8203 28.1273 24.9114C28.1281 25.0025 28.147 25.0925 28.1828 25.1763C28.2187 25.26 28.2708 25.3358 28.3362 25.3992L32.332 29.2671C32.4378 29.3686 32.5732 29.4338 32.7185 29.4533C32.8638 29.4728 33.0116 29.4456 33.1405 29.3757L37.1734 27.1675C38.0396 26.6931 38.5566 25.82 38.5566 24.8327C38.5566 23.8455 38.0396 22.9723 37.1734 22.498ZM27.3476 26.3576C27.218 26.2323 27.0443 26.163 26.864 26.1645C26.6837 26.166 26.5112 26.2383 26.3837 26.3658L14.9437 37.8058C14.8222 37.9215 14.7475 38.0778 14.7336 38.245C14.7197 38.4122 14.7677 38.5787 14.8684 38.7129C14.9692 38.847 15.1157 38.9395 15.2801 38.9728C15.4446 39.0061 15.6155 38.9779 15.7605 38.8935L30.616 30.759C30.7107 30.7074 30.7919 30.6342 30.853 30.5453C30.9141 30.4565 30.9534 30.3545 30.9678 30.2476C30.9821 30.1408 30.971 30.032 30.9355 29.9302C30.8999 29.8284 30.8409 29.7364 30.7631 29.6617L27.3476 26.3576Z" fill="white"/>
</svg>
