<svg width="172" height="52" viewBox="0 0 172 52" fill="none" xmlns="http://www.w3.org/2000/svg">
<path d="M170.136 45.5243C170.136 46.163 170.01 46.7954 169.765 47.3855C169.52 47.9755 169.162 48.5115 168.71 48.9629C168.258 49.4142 167.721 49.7721 167.131 50.0161C166.54 50.2601 165.908 50.3853 165.269 50.3846H6.00582C4.71498 50.386 3.47646 49.8747 2.56263 48.9632C1.6488 48.0518 1.13449 46.8148 1.13281 45.5243V6.76508C1.13449 5.474 1.6486 4.23636 2.56225 3.32391C3.47589 2.41145 4.7144 1.89877 6.00582 1.89844H165.268C165.907 1.89844 166.54 2.02433 167.13 2.26891C167.721 2.5135 168.257 2.87199 168.709 3.32392C169.161 3.77585 169.52 4.31235 169.764 4.90279C170.009 5.49323 170.134 6.12604 170.134 6.76508L170.136 45.5243Z" fill="#6B705C"/>
<path d="M170.136 45.5243C170.136 46.163 170.01 46.7954 169.765 47.3854C169.52 47.9755 169.162 48.5115 168.71 48.9629C168.258 49.4142 167.721 49.7721 167.131 50.0161C166.54 50.2601 165.908 50.3853 165.269 50.3846H6.00582C4.71498 50.386 3.47646 49.8747 2.56263 48.9632C1.6488 48.0518 1.13449 46.8148 1.13281 45.5243V6.76507C1.13449 5.474 1.6486 4.23636 2.56225 3.32391C3.47589 2.41145 4.7144 1.89877 6.00582 1.89844H165.268C165.907 1.89844 166.54 2.02433 167.13 2.26891C167.721 2.5135 168.257 2.87199 168.709 3.32392C169.161 3.77585 169.52 4.31235 169.764 4.90279C170.009 5.49323 170.134 6.12604 170.134 6.76507L170.136 45.5243Z" fill="#6B705C"/>
<path d="M38.2476 25.8758C38.2108 21.7858 41.5974 19.796 41.7523 19.7033C39.8343 16.9077 36.8615 16.5257 35.8168 16.4953C33.32 16.2326 30.8981 17.9889 29.6263 17.9889C28.329 17.9889 26.3704 16.5207 24.2595 16.5638C21.5431 16.6057 19.0019 18.178 17.6081 20.6196C14.7318 25.5979 16.877 32.9137 19.6327 36.9377C21.0112 38.9097 22.622 41.1089 24.7304 41.0315C26.7931 40.9478 27.5636 39.7181 30.0528 39.7181C32.5191 39.7181 33.2426 41.0315 35.3929 40.982C37.6066 40.9478 39.0003 39.0024 40.3306 37.0138C41.9236 34.7563 42.5634 32.5305 42.5888 32.4162C42.538 32.3985 38.2908 30.7767 38.2476 25.8758ZM34.1857 13.8481C35.2951 12.4611 36.0542 10.5741 35.8435 8.65918C34.2378 8.73024 32.2297 9.76956 31.0733 11.1261C30.0502 12.3215 29.1363 14.2809 29.3724 16.1235C31.1761 16.258 33.0281 15.2136 34.1857 13.8481Z" fill="white"/>
<path d="M68.1204 40.7483H65.2378L63.6587 35.7877H58.1701L56.6659 40.7483H53.8594L59.2985 23.8603H62.6572L68.1204 40.7483ZM63.1827 33.7066L61.7547 29.2968C61.6036 28.8463 61.3193 27.7854 60.903 26.1154H60.8522C60.6846 26.8336 60.4168 27.8945 60.05 29.2968L58.6461 33.7066H63.1827ZM82.0807 34.5098C82.0807 36.5809 81.5183 38.2179 80.3924 39.4196C79.3846 40.4894 78.1317 41.0237 76.6377 41.0237C75.0244 41.0237 73.8642 40.4488 73.1597 39.2965V45.686H70.4535V32.5733C70.4535 31.2726 70.4192 29.9389 70.3532 28.5709H72.7332L72.8843 30.5011H72.935C73.8375 29.0468 75.2072 28.3196 77.0452 28.3196C78.4821 28.3196 79.6816 28.8869 80.6412 30.0226C81.5996 31.1609 82.0807 32.6558 82.0807 34.5098ZM79.3236 34.6088C79.3236 33.4236 79.0571 32.4464 78.5214 31.6762C77.9363 30.8754 77.1505 30.4744 76.1655 30.4744C75.4978 30.4744 74.8911 30.6977 74.3491 31.1381C73.8058 31.5822 73.4504 32.1622 73.2841 32.8804C73.2099 33.1491 73.1677 33.4255 73.1584 33.704V35.7357C73.1584 36.6202 73.4301 37.3676 73.9734 37.9793C74.5166 38.5884 75.2224 38.8943 76.0906 38.8943C77.1099 38.8943 77.9033 38.4996 78.4706 37.7166C79.0393 36.9311 79.3236 35.8956 79.3236 34.6088ZM96.0904 34.5098C96.0904 36.5809 95.5281 38.2179 94.4022 39.4196C93.393 40.4894 92.1415 41.0237 90.6462 41.0237C89.0328 41.0237 87.8727 40.4488 87.1682 39.2965V45.686H84.4619V32.5733C84.4619 31.2726 84.4277 29.9389 84.3617 28.5709H86.7417L86.8927 30.5011H86.9435C87.8447 29.0468 89.2144 28.3196 91.0536 28.3196C92.4893 28.3196 93.6888 28.8869 94.651 30.0226C95.608 31.1609 96.0904 32.6558 96.0904 34.5098ZM93.3321 34.6088C93.3321 33.4236 93.0643 32.4464 92.5286 31.6762C91.9434 30.8754 91.1603 30.4744 90.1753 30.4744C89.5076 30.4744 88.9008 30.6977 88.3563 31.1381C87.813 31.5822 87.4589 32.1622 87.2926 32.8804C87.2101 33.2155 87.1656 33.4883 87.1656 33.704V35.7357C87.1656 36.6202 87.4385 37.3676 87.9793 37.9793C88.5226 38.5872 89.2283 38.8943 90.0991 38.8943C91.1196 38.8943 91.913 38.4996 92.4791 37.7166C93.0478 36.9311 93.3321 35.8956 93.3321 34.6088ZM111.754 36.0111C111.754 37.4489 111.251 38.6176 110.252 39.5199C109.153 40.5046 107.619 40.9983 105.651 40.9983C103.833 40.9983 102.376 40.648 101.277 39.9463L101.903 37.6912C103.09 38.3943 104.393 38.7445 105.812 38.7445C106.833 38.7445 107.626 38.5136 108.192 38.0554C108.76 37.5961 109.047 36.9819 109.047 36.2154C109.047 35.5289 108.809 34.954 108.343 34.4857C107.875 34.0187 107.101 33.5835 106.013 33.1837C103.055 32.081 101.575 30.4681 101.575 28.3463C101.575 26.9605 102.098 25.826 103.142 24.939C104.185 24.0532 105.569 23.6104 107.29 23.6104C108.827 23.6104 110.108 23.8781 111.124 24.4124L110.445 26.6179C109.488 26.1001 108.408 25.8413 107.2 25.8413C106.245 25.8413 105.496 26.076 104.961 26.543C104.51 26.9605 104.281 27.4694 104.281 28.0734C104.281 28.7397 104.542 29.293 105.06 29.727C105.509 30.1267 106.329 30.562 107.514 31.029C108.969 31.6152 110.038 32.298 110.722 33.0822C111.411 33.8665 111.754 34.8449 111.754 36.0111ZM120.725 30.6013H117.742V36.5136C117.742 38.0174 118.267 38.7674 119.321 38.7674C119.804 38.7674 120.205 38.7267 120.523 38.6417L120.598 40.6962C120.064 40.8955 119.363 40.9957 118.493 40.9957C117.424 40.9957 116.589 40.6696 115.986 40.0173C115.386 39.3651 115.084 38.2724 115.084 36.7344V30.5962H113.306V28.5658H115.084V26.3362L117.742 25.5342V28.5658H120.725V30.6013ZM134.157 34.5593C134.157 36.4311 133.621 37.9679 132.552 39.1696C131.434 40.4069 129.946 41.0237 128.092 41.0237C126.302 41.0237 124.879 40.431 123.818 39.247C122.757 38.0605 122.226 36.5656 122.226 34.7624C122.226 32.8754 122.774 31.3297 123.867 30.128C124.963 28.9249 126.438 28.3234 128.292 28.3234C130.08 28.3234 131.515 28.9173 132.602 30.1026C133.64 31.2523 134.157 32.737 134.157 34.5593ZM131.351 34.6215C131.351 33.5061 131.11 32.5492 130.627 31.7485C130.059 30.7815 129.247 30.298 128.195 30.298C127.111 30.298 126.279 30.7815 125.713 31.7485C125.228 32.5492 124.987 33.5226 124.987 34.6723C124.987 35.789 125.228 36.7484 125.713 37.5466C126.298 38.5136 127.114 38.997 128.172 38.997C129.206 38.997 130.017 38.5034 130.604 37.5225C131.101 36.7027 131.351 35.7395 131.351 34.6215ZM142.957 30.9503C142.676 30.8995 142.39 30.8744 142.104 30.8754C141.152 30.8754 140.416 31.2333 139.898 31.9541C139.449 32.5886 139.223 33.3906 139.223 34.3588V40.7483H136.516V32.4058C136.519 31.1275 136.493 29.8493 136.438 28.5722H138.795L138.894 30.9021H138.969C139.256 30.1013 139.705 29.4554 140.322 28.9719C140.887 28.5494 141.573 28.3206 142.278 28.3196C142.528 28.3196 142.754 28.3374 142.954 28.3691L142.957 30.9503ZM155.06 34.0835C155.067 34.4947 155.034 34.9057 154.961 35.3106H146.842C146.873 36.5136 147.266 37.4349 148.02 38.0694C148.705 38.6354 149.589 38.9196 150.676 38.9196C151.878 38.9196 152.975 38.7293 153.961 38.3448L154.385 40.2216C153.232 40.7242 151.872 40.9742 150.301 40.9742C148.413 40.9742 146.93 40.4183 145.851 39.3092C144.775 38.1988 144.235 36.7065 144.235 34.8372C144.235 33.0023 144.737 31.4731 145.741 30.2536C146.792 28.9516 148.212 28.3006 149.999 28.3006C151.755 28.3006 153.084 28.9516 153.986 30.2536C154.701 31.2853 155.06 32.5645 155.06 34.0835ZM152.48 33.3817C152.499 32.5784 152.321 31.8868 151.954 31.3018C151.486 30.548 150.765 30.1724 149.799 30.1724C148.914 30.1724 148.193 30.5391 147.645 31.2751C147.194 31.8602 146.926 32.5632 146.844 33.3792L152.48 33.3817Z" fill="white"/>
<path d="M57.3912 17.8893C56.6385 17.8893 55.9873 17.8525 55.4453 17.7903V9.62556C56.2034 9.50849 56.9694 9.45078 57.7365 9.45297C60.84 9.45297 62.2693 10.9796 62.2693 13.4681C62.2693 16.3386 60.5811 17.8893 57.3912 17.8893ZM57.8456 10.4999C57.4268 10.4999 57.0701 10.5253 56.7743 10.5862V16.7929C56.9342 16.8183 57.2414 16.8297 57.673 16.8297C59.7065 16.8297 60.8641 15.6724 60.8641 13.5049C60.8641 11.5722 59.8169 10.4999 57.8456 10.4999ZM66.7234 17.9515C64.9743 17.9515 63.8407 16.6457 63.8407 14.8729C63.8407 13.0252 64.9984 11.708 66.8224 11.708C68.5462 11.708 69.7051 12.9516 69.7051 14.7752C69.7051 16.6457 68.5106 17.9515 66.7234 17.9515ZM66.7742 12.6801C65.8133 12.6801 65.1977 13.5785 65.1977 14.8348C65.1977 16.067 65.826 16.9655 66.7615 16.9655C67.697 16.9655 68.3253 16.0049 68.3253 14.8094C68.3253 13.5912 67.7097 12.6801 66.7742 12.6801ZM79.6796 11.8311L77.8073 17.8157H76.5875L75.8119 15.2168C75.6191 14.5811 75.4585 13.936 75.3308 13.2841H75.3054C75.2077 13.9364 75.0224 14.5899 74.8256 15.2168L74.0006 17.8157H72.768L71.0062 11.8311H72.3733L73.0511 14.6762C73.211 15.3539 73.3456 15.9934 73.4573 16.5975H73.4827C73.5804 16.0937 73.7403 15.4643 73.9752 14.6889L74.8256 11.8324H75.9096L76.7233 14.628C76.92 15.3056 77.08 15.9706 77.2044 16.5987H77.2399C77.3262 15.9833 77.462 15.3297 77.6461 14.628L78.3734 11.8324L79.6796 11.8311ZM86.5721 17.8157H85.2418V14.3793C85.2418 13.3209 84.8356 12.7905 84.0347 12.7905C83.2464 12.7905 82.7044 13.4681 82.7044 14.2562V17.8157H81.3742V13.5417C81.3742 13.0125 81.3615 12.4453 81.3247 11.8298H82.495L82.5572 12.7537H82.594C82.952 12.1141 83.678 11.708 84.4917 11.708C85.7483 11.708 86.5734 12.6686 86.5734 14.232L86.5721 17.8157ZM90.2405 17.8157H88.909V9.08496H90.2405V17.8157ZM95.0907 17.9515C93.3428 17.9515 92.208 16.6457 92.208 14.8729C92.208 13.0252 93.3656 11.708 95.1884 11.708C96.9134 11.708 98.0711 12.9516 98.0711 14.7752C98.0724 16.6457 96.8766 17.9515 95.0907 17.9515ZM95.1402 12.6801C94.1793 12.6801 93.5636 13.5785 93.5636 14.8348C93.5636 16.067 94.1932 16.9655 95.1262 16.9655C96.063 16.9655 96.69 16.0049 96.69 14.8094C96.6913 13.5912 96.0769 12.6801 95.1402 12.6801ZM103.316 17.8157L103.22 17.1267H103.184C102.778 17.6812 102.185 17.9515 101.434 17.9515C100.361 17.9515 99.5994 17.2003 99.5994 16.1901C99.5994 14.713 100.88 13.9491 103.098 13.9491V13.8387C103.098 13.0506 102.68 12.6559 101.855 12.6559C101.265 12.6559 100.747 12.8044 100.291 13.1001L100.021 12.2258C100.574 11.8806 101.265 11.708 102.076 11.708C103.64 11.708 104.429 12.5329 104.429 14.1838V16.3881C104.429 16.9921 104.456 17.4604 104.516 17.817L103.316 17.8157ZM103.133 14.8348C101.656 14.8348 100.914 15.1927 100.914 16.0417C100.914 16.6698 101.296 16.9769 101.827 16.9769C102.504 16.9769 103.133 16.4604 103.133 15.7587V14.8348ZM110.889 17.8157L110.827 16.8551H110.79C110.408 17.581 109.766 17.9515 108.868 17.9515C107.425 17.9515 106.356 16.6825 106.356 14.897C106.356 13.0252 107.464 11.7067 108.977 11.7067C109.778 11.7067 110.346 11.977 110.665 12.5202H110.692V9.08496H112.024V16.2028C112.024 16.7815 112.038 17.3233 112.073 17.8157H110.889ZM110.692 14.2942C110.692 13.4567 110.137 12.7422 109.291 12.7422C108.305 12.7422 107.702 13.6166 107.702 14.8475C107.702 16.0543 108.327 16.8805 109.264 16.8805C110.101 16.8805 110.692 16.1533 110.692 15.2917V14.2942ZM120.466 17.9515C118.718 17.9515 117.585 16.6457 117.585 14.8729C117.585 13.0252 118.742 11.708 120.565 11.708C122.29 11.708 123.448 12.9516 123.448 14.7752C123.449 16.6457 122.255 17.9515 120.466 17.9515ZM120.516 12.6801C119.556 12.6801 118.94 13.5785 118.94 14.8348C118.94 16.067 119.569 16.9655 120.503 16.9655C121.44 16.9655 122.067 16.0049 122.067 14.8094C122.069 13.5912 121.454 12.6801 120.516 12.6801ZM130.602 17.8157H129.27V14.3793C129.27 13.3209 128.864 12.7905 128.063 12.7905C127.275 12.7905 126.734 13.4681 126.734 14.2562V17.8157H125.403V13.5417C125.403 13.0125 125.39 12.4453 125.353 11.8298H126.523L126.586 12.7537H126.622C126.979 12.1141 127.706 11.7067 128.519 11.7067C129.775 11.7067 130.602 12.6674 130.602 14.2308V17.8157ZM139.552 12.8285H138.088V15.7346C138.088 16.4744 138.345 16.8437 138.863 16.8437C139.097 16.8437 139.294 16.8183 139.453 16.7815L139.49 17.7916C139.232 17.8906 138.887 17.9401 138.458 17.9401C137.409 17.9401 136.782 17.3614 136.782 15.8462V12.8285H135.909V11.8311H136.782V10.7347L138.088 10.34V11.8298H139.552V12.8285ZM146.594 17.8157H145.265V14.4046C145.265 13.3336 144.86 12.7917 144.058 12.7917C143.369 12.7917 142.727 13.26 142.727 14.2079V17.8157H141.398V9.08496H142.727V12.6801H142.753C143.172 12.0278 143.779 11.7067 144.553 11.7067C145.82 11.7067 146.594 12.6915 146.594 14.2562V17.8157ZM153.809 15.1432H149.817C149.842 16.2764 150.593 16.916 151.703 16.916C152.294 16.916 152.837 16.817 153.317 16.633L153.524 17.5568C152.957 17.803 152.291 17.9261 151.515 17.9261C149.643 17.9261 148.535 16.7434 148.535 14.9097C148.535 13.0747 149.67 11.6953 151.366 11.6953C152.895 11.6953 153.855 12.8285 153.855 14.5404C153.863 14.7424 153.848 14.9448 153.809 15.1432ZM152.589 14.1952C152.589 13.2714 152.123 12.6191 151.273 12.6191C150.509 12.6191 149.905 13.2841 149.818 14.1952H152.589Z" fill="white"/>
</svg>
