<svg width="172" height="51" viewBox="0 0 172 51" fill="none" xmlns="http://www.w3.org/2000/svg">
<path d="M170.136 44.7548C170.136 45.3935 170.01 46.0259 169.765 46.6159C169.52 47.2059 169.162 47.7419 168.71 48.1933C168.258 48.6447 167.721 49.0026 167.131 49.2466C166.54 49.4905 165.908 49.6157 165.269 49.6151H6.00582C4.71498 49.6164 3.47646 49.1052 2.56263 48.1937C1.6488 47.2823 1.13449 46.0453 1.13281 44.7548V5.99554C1.13449 4.70447 1.6486 3.46683 2.56225 2.55437C3.47589 1.64192 4.7144 1.12924 6.00582 1.12891H165.268C165.907 1.12891 166.54 1.25479 167.13 1.49938C167.721 1.74397 168.257 2.10246 168.709 2.55439C169.161 3.00631 169.52 3.54282 169.764 4.13326C170.009 4.7237 170.134 5.35651 170.134 5.99554L170.136 44.7548Z" fill="white"/>
<path d="M170.136 44.7548C170.136 45.3935 170.01 46.0259 169.765 46.6159C169.52 47.2059 169.162 47.7419 168.71 48.1933C168.258 48.6447 167.721 49.0026 167.131 49.2466C166.54 49.4905 165.908 49.6157 165.269 49.6151H6.00582C4.71498 49.6164 3.47646 49.1052 2.56263 48.1937C1.6488 47.2823 1.13449 46.0453 1.13281 44.7548V5.99554C1.13449 4.70447 1.6486 3.46683 2.56225 2.55437C3.47589 1.64192 4.7144 1.12924 6.00582 1.12891H165.268C165.907 1.12891 166.54 1.25479 167.13 1.49938C167.721 1.74397 168.257 2.10246 168.709 2.55439C169.161 3.00631 169.52 3.54282 169.764 4.13326C170.009 4.7237 170.134 5.35651 170.134 5.99554L170.136 44.7548Z" fill="white"/>
<path d="M38.2476 25.1063C38.2108 21.0162 41.5974 19.0264 41.7523 18.9338C39.8343 16.1382 36.8615 15.7562 35.8168 15.7258C33.32 15.4631 30.8981 17.2194 29.6263 17.2194C28.329 17.2194 26.3704 15.7511 24.2595 15.7943C21.5431 15.8362 19.0019 17.4085 17.6081 19.85C14.7318 24.8283 16.877 32.1442 19.6327 36.1682C21.0112 38.1402 22.622 40.3394 24.7304 40.262C26.7931 40.1782 27.5636 38.9486 30.0528 38.9486C32.5191 38.9486 33.2426 40.262 35.3929 40.2125C37.6066 40.1782 39.0003 38.2329 40.3306 36.2443C41.9236 33.9868 42.5634 31.7609 42.5888 31.6467C42.538 31.6289 38.2908 30.0072 38.2476 25.1063ZM34.1857 13.0786C35.2951 11.6916 36.0542 9.80458 35.8435 7.88965C34.2378 7.96071 32.2297 9.00003 31.0733 10.3566C30.0502 11.552 29.1363 13.5113 29.3724 15.3539C31.1761 15.4885 33.0281 14.4441 34.1857 13.0786Z" fill="#6B705C"/>
<path d="M68.1204 39.9787H65.2378L63.6587 35.0182H58.1701L56.6659 39.9787H53.8594L59.2985 23.0908H62.6572L68.1204 39.9787ZM63.1827 32.937L61.7547 28.5272C61.6036 28.0767 61.3193 27.0158 60.903 25.3458H60.8522C60.6846 26.0641 60.4168 27.125 60.05 28.5272L58.6461 32.937H63.1827ZM82.0807 33.7403C82.0807 35.8113 81.5183 37.4483 80.3924 38.6501C79.3846 39.7199 78.1317 40.2541 76.6377 40.2541C75.0244 40.2541 73.8642 39.6793 73.1597 38.527V44.9164H70.4535V31.8038C70.4535 30.5031 70.4192 29.1694 70.3532 27.8014H72.7332L72.8843 29.7315H72.935C73.8375 28.2772 75.2072 27.5501 77.0452 27.5501C78.4821 27.5501 79.6816 28.1173 80.6412 29.2531C81.5996 30.3914 82.0807 31.8863 82.0807 33.7403ZM79.3236 33.8393C79.3236 32.654 79.0571 31.6769 78.5214 30.9066C77.9363 30.1059 77.1505 29.7049 76.1655 29.7049C75.4978 29.7049 74.8911 29.9282 74.3491 30.3686C73.8058 30.8127 73.4504 31.3927 73.2841 32.1109C73.2099 32.3795 73.1677 32.656 73.1584 32.9345V34.9662C73.1584 35.8507 73.4301 36.5981 73.9734 37.2098C74.5166 37.8189 75.2224 38.1247 76.0906 38.1247C77.1099 38.1247 77.9033 37.7301 78.4706 36.9471C79.0393 36.1616 79.3236 35.1261 79.3236 33.8393ZM96.0904 33.7403C96.0904 35.8113 95.5281 37.4483 94.4022 38.6501C93.393 39.7199 92.1415 40.2541 90.6462 40.2541C89.0328 40.2541 87.8727 39.6793 87.1682 38.527V44.9164H84.4619V31.8038C84.4619 30.5031 84.4277 29.1694 84.3617 27.8014H86.7417L86.8927 29.7315H86.9435C87.8447 28.2772 89.2144 27.5501 91.0536 27.5501C92.4893 27.5501 93.6888 28.1173 94.651 29.2531C95.608 30.3914 96.0904 31.8863 96.0904 33.7403ZM93.3321 33.8393C93.3321 32.654 93.0643 31.6769 92.5286 30.9066C91.9434 30.1059 91.1603 29.7049 90.1753 29.7049C89.5076 29.7049 88.9008 29.9282 88.3563 30.3686C87.813 30.8127 87.4589 31.3927 87.2926 32.1109C87.2101 32.4459 87.1656 32.7188 87.1656 32.9345V34.9662C87.1656 35.8507 87.4385 36.5981 87.9793 37.2098C88.5226 37.8176 89.2283 38.1247 90.0991 38.1247C91.1196 38.1247 91.913 37.7301 92.4791 36.9471C93.0478 36.1616 93.3321 35.1261 93.3321 33.8393ZM111.754 35.2415C111.754 36.6793 111.251 37.8481 110.252 38.7503C109.153 39.7351 107.619 40.2287 105.651 40.2287C103.833 40.2287 102.376 39.8785 101.277 39.1767L101.903 36.9217C103.09 37.6247 104.393 37.975 105.812 37.975C106.833 37.975 107.626 37.744 108.192 37.2859C108.76 36.8265 109.047 36.2123 109.047 35.4459C109.047 34.7593 108.809 34.1845 108.343 33.7162C107.875 33.2492 107.101 32.8139 106.013 32.4142C103.055 31.3114 101.575 29.6985 101.575 27.5768C101.575 26.191 102.098 25.0565 103.142 24.1695C104.185 23.2837 105.569 22.8408 107.29 22.8408C108.827 22.8408 110.108 23.1086 111.124 23.6428L110.445 25.8484C109.488 25.3306 108.408 25.0717 107.2 25.0717C106.245 25.0717 105.496 25.3065 104.961 25.7735C104.51 26.191 104.281 26.6999 104.281 27.3039C104.281 27.9701 104.542 28.5234 105.06 28.9574C105.509 29.3572 106.329 29.7924 107.514 30.2594C108.969 30.8457 110.038 31.5284 110.722 32.3127C111.411 33.0969 111.754 34.0753 111.754 35.2415ZM120.725 29.8318H117.742V35.7441C117.742 37.2478 118.267 37.9978 119.321 37.9978C119.804 37.9978 120.205 37.9572 120.523 37.8722L120.598 39.9267C120.064 40.1259 119.363 40.2262 118.493 40.2262C117.424 40.2262 116.589 39.9001 115.986 39.2478C115.386 38.5955 115.084 37.5029 115.084 35.9649V29.8267H113.306V27.7963H115.084V25.5666L117.742 24.7646V27.7963H120.725V29.8318ZM134.157 33.7898C134.157 35.6616 133.621 37.1984 132.552 38.4001C131.434 39.6374 129.946 40.2541 128.092 40.2541C126.302 40.2541 124.879 39.6615 123.818 38.4775C122.757 37.291 122.226 35.7961 122.226 33.9928C122.226 32.1058 122.774 30.5602 123.867 29.3584C124.963 28.1554 126.438 27.5539 128.292 27.5539C130.08 27.5539 131.515 28.1478 132.602 29.3331C133.64 30.4828 134.157 31.9675 134.157 33.7898ZM131.351 33.852C131.351 32.7365 131.11 31.7797 130.627 30.979C130.059 30.012 129.247 29.5285 128.195 29.5285C127.111 29.5285 126.279 30.012 125.713 30.979C125.228 31.7797 124.987 32.753 124.987 33.9027C124.987 35.0195 125.228 35.9788 125.713 36.777C126.298 37.744 127.114 38.2275 128.172 38.2275C129.206 38.2275 130.017 37.7339 130.604 36.7529C131.101 35.9332 131.351 34.97 131.351 33.852ZM142.957 30.1808C142.676 30.1299 142.39 30.1049 142.104 30.1059C141.152 30.1059 140.416 30.4637 139.898 31.1845C139.449 31.819 139.223 32.621 139.223 33.5893V39.9787H136.516V31.6363C136.519 30.358 136.493 29.0798 136.438 27.8026H138.795L138.894 30.1325H138.969C139.256 29.3318 139.705 28.6859 140.322 28.2024C140.887 27.7799 141.573 27.5511 142.278 27.5501C142.528 27.5501 142.754 27.5679 142.954 27.5996L142.957 30.1808ZM155.06 33.3139C155.067 33.7252 155.034 34.1362 154.961 34.5411H146.842C146.873 35.7441 147.266 36.6654 148.02 37.2999C148.705 37.8658 149.589 38.1501 150.676 38.1501C151.878 38.1501 152.975 37.9598 153.961 37.5752L154.385 39.4521C153.232 39.9546 151.872 40.2046 150.301 40.2046C148.413 40.2046 146.93 39.6488 145.851 38.5397C144.775 37.4293 144.235 35.937 144.235 34.0677C144.235 32.2327 144.737 30.7036 145.741 29.4841C146.792 28.1821 148.212 27.5311 149.999 27.5311C151.755 27.5311 153.084 28.1821 153.986 29.4841C154.701 30.5158 155.06 31.7949 155.06 33.3139ZM152.48 32.6122C152.499 31.8089 152.321 31.1173 151.954 30.5323C151.486 29.7785 150.765 29.4028 149.799 29.4028C148.914 29.4028 148.193 29.7696 147.645 30.5056C147.194 31.0906 146.926 31.7937 146.844 32.6096L152.48 32.6122Z" fill="#6B705C"/>
<path d="M57.3912 17.1198C56.6385 17.1198 55.9873 17.083 55.4453 17.0208V8.85603C56.2034 8.73895 56.9694 8.68125 57.7365 8.68344C60.84 8.68344 62.2693 10.2101 62.2693 12.6986C62.2693 15.5691 60.5811 17.1198 57.3912 17.1198ZM57.8456 9.73037C57.4268 9.73037 57.0701 9.75575 56.7743 9.81666V16.0234C56.9342 16.0488 57.2414 16.0602 57.673 16.0602C59.7065 16.0602 60.8641 14.9028 60.8641 12.7354C60.8641 10.8027 59.8169 9.73037 57.8456 9.73037ZM66.7234 17.182C64.9743 17.182 63.8407 15.8762 63.8407 14.1034C63.8407 12.2557 64.9984 10.9385 66.8224 10.9385C68.5462 10.9385 69.7051 12.1821 69.7051 14.0057C69.7051 15.8762 68.5106 17.182 66.7234 17.182ZM66.7742 11.9105C65.8133 11.9105 65.1977 12.809 65.1977 14.0653C65.1977 15.2975 65.826 16.196 66.7615 16.196C67.697 16.196 68.3253 15.2353 68.3253 14.0399C68.3253 12.8217 67.7097 11.9105 66.7742 11.9105ZM79.6796 11.0616L77.8073 17.0462H76.5875L75.8119 14.4473C75.6191 13.8116 75.4585 13.1665 75.3308 12.5146H75.3054C75.2077 13.1668 75.0224 13.8204 74.8256 14.4473L74.0006 17.0462H72.768L71.0062 11.0616H72.3733L73.0511 13.9067C73.211 14.5843 73.3456 15.2239 73.4573 15.8279H73.4827C73.5804 15.3241 73.7403 14.6947 73.9752 13.9194L74.8256 11.0628H75.9096L76.7233 13.8584C76.92 14.5361 77.08 15.2011 77.2044 15.8292H77.2399C77.3262 15.2137 77.462 14.5602 77.6461 13.8584L78.3734 11.0628L79.6796 11.0616ZM86.5721 17.0462H85.2418V13.6097C85.2418 12.5514 84.8356 12.0209 84.0347 12.0209C83.2464 12.0209 82.7044 12.6986 82.7044 13.4866V17.0462H81.3742V12.7722C81.3742 12.243 81.3615 11.6758 81.3247 11.0603H82.495L82.5572 11.9841H82.594C82.952 11.3445 83.678 10.9385 84.4917 10.9385C85.7483 10.9385 86.5734 11.8991 86.5734 13.4625L86.5721 17.0462ZM90.2405 17.0462H88.909V8.31543H90.2405V17.0462ZM95.0907 17.182C93.3428 17.182 92.208 15.8762 92.208 14.1034C92.208 12.2557 93.3656 10.9385 95.1884 10.9385C96.9134 10.9385 98.0711 12.1821 98.0711 14.0057C98.0724 15.8762 96.8766 17.182 95.0907 17.182ZM95.1402 11.9105C94.1793 11.9105 93.5636 12.809 93.5636 14.0653C93.5636 15.2975 94.1932 16.196 95.1262 16.196C96.063 16.196 96.69 15.2353 96.69 14.0399C96.6913 12.8217 96.0769 11.9105 95.1402 11.9105ZM103.316 17.0462L103.22 16.3571H103.184C102.778 16.9117 102.185 17.182 101.434 17.182C100.361 17.182 99.5994 16.4307 99.5994 15.4206C99.5994 13.9435 100.88 13.1795 103.098 13.1795V13.0691C103.098 12.2811 102.68 11.8864 101.855 11.8864C101.265 11.8864 100.747 12.0349 100.291 12.3306L100.021 11.4562C100.574 11.111 101.265 10.9385 102.076 10.9385C103.64 10.9385 104.429 11.7633 104.429 13.4143V15.6186C104.429 16.2226 104.456 16.6909 104.516 17.0475L103.316 17.0462ZM103.133 14.0653C101.656 14.0653 100.914 14.4232 100.914 15.2721C100.914 15.9003 101.296 16.2074 101.827 16.2074C102.504 16.2074 103.133 15.6909 103.133 14.9891V14.0653ZM110.889 17.0462L110.827 16.0856H110.79C110.408 16.8114 109.766 17.182 108.868 17.182C107.425 17.182 106.356 15.913 106.356 14.1275C106.356 12.2557 107.464 10.9372 108.977 10.9372C109.778 10.9372 110.346 11.2075 110.665 11.7506H110.692V8.31543H112.024V15.4333C112.024 16.012 112.038 16.5538 112.073 17.0462H110.889ZM110.692 13.5247C110.692 12.6872 110.137 11.9727 109.291 11.9727C108.305 11.9727 107.702 12.8471 107.702 14.078C107.702 15.2848 108.327 16.1109 109.264 16.1109C110.101 16.1109 110.692 15.3838 110.692 14.5221V13.5247ZM120.466 17.182C118.718 17.182 117.585 15.8762 117.585 14.1034C117.585 12.2557 118.742 10.9385 120.565 10.9385C122.29 10.9385 123.448 12.1821 123.448 14.0057C123.449 15.8762 122.255 17.182 120.466 17.182ZM120.516 11.9105C119.556 11.9105 118.94 12.809 118.94 14.0653C118.94 15.2975 119.569 16.196 120.503 16.196C121.44 16.196 122.067 15.2353 122.067 14.0399C122.069 12.8217 121.454 11.9105 120.516 11.9105ZM130.602 17.0462H129.27V13.6097C129.27 12.5514 128.864 12.0209 128.063 12.0209C127.275 12.0209 126.734 12.6986 126.734 13.4866V17.0462H125.403V12.7722C125.403 12.243 125.39 11.6758 125.353 11.0603H126.523L126.586 11.9841H126.622C126.979 11.3445 127.706 10.9372 128.519 10.9372C129.775 10.9372 130.602 11.8978 130.602 13.4612V17.0462ZM139.552 12.059H138.088V14.965C138.088 15.7049 138.345 16.0741 138.863 16.0741C139.097 16.0741 139.294 16.0488 139.453 16.012L139.49 17.0221C139.232 17.1211 138.887 17.1706 138.458 17.1706C137.409 17.1706 136.782 16.5919 136.782 15.0767V12.059H135.909V11.0616H136.782V9.96514L138.088 9.57048V11.0603H139.552V12.059ZM146.594 17.0462H145.265V13.6351C145.265 12.5641 144.86 12.0222 144.058 12.0222C143.369 12.0222 142.727 12.4905 142.727 13.4384V17.0462H141.398V8.31543H142.727V11.9105H142.753C143.172 11.2583 143.779 10.9372 144.553 10.9372C145.82 10.9372 146.594 11.9219 146.594 13.4866V17.0462ZM153.809 14.3737H149.817C149.842 15.5069 150.593 16.1465 151.703 16.1465C152.294 16.1465 152.837 16.0475 153.317 15.8635L153.524 16.7873C152.957 17.0335 152.291 17.1566 151.515 17.1566C149.643 17.1566 148.535 15.9739 148.535 14.1402C148.535 12.3052 149.67 10.9258 151.366 10.9258C152.895 10.9258 153.855 12.059 153.855 13.7709C153.863 13.9729 153.848 14.1752 153.809 14.3737ZM152.589 13.4257C152.589 12.5019 152.123 11.8496 151.273 11.8496C150.509 11.8496 149.905 12.5146 149.818 13.4257H152.589Z" fill="#6B705C"/>
</svg>
