<svg width="35" height="35" viewBox="0 0 35 35" fill="none" xmlns="http://www.w3.org/2000/svg">
<rect width="35" height="35" rx="17.5" fill="white"/>
<g clip-path="url(#clip0_587_1164)">
<path d="M17.5 28.6998C23.6856 28.6998 28.7 23.6854 28.7 17.4998C28.7 11.3142 23.6856 6.2998 17.5 6.2998C11.3145 6.2998 6.30005 11.3142 6.30005 17.4998C6.30005 23.6854 11.3145 28.6998 17.5 28.6998Z" fill="#333333"/>
<path d="M17.1933 12.415L20.125 15.3362L13.3605 23.9294L18.3614 28.6674C24.1445 28.2276 28.7 23.3958 28.7 17.5C28.7 17.3555 28.6964 17.2118 28.691 17.0686L20.3674 8.74512L17.1933 12.415Z" fill="#1A1A1A"/>
<path d="M14.6644 24.6546C14.2152 24.637 13.5441 24.1472 13.2535 23.8177C12.5096 22.9743 11.9037 22.0397 11.4752 20.9983C10.9873 19.813 10.6964 18.5836 10.7111 17.2931C10.7217 16.3648 10.9029 15.4745 11.3676 14.6642C11.9422 13.6623 12.7905 13.0035 13.9242 12.7371C14.3753 12.6311 14.8351 12.5886 15.286 12.722C15.7367 12.8554 16.1809 13.0128 16.6231 13.1728C17.0063 13.3114 17.3824 13.4117 17.7847 13.2374C18.0491 13.1228 18.324 13.0326 18.5947 12.933C19.0381 12.7698 19.4863 12.6185 19.9637 12.6043C20.8869 12.5767 21.7386 12.8032 22.4899 13.3559C22.7998 13.5838 23.0602 13.8607 23.2763 14.1852C23.2466 14.2076 23.2238 14.2261 23.1997 14.2427C22.8761 14.4652 22.5896 14.7278 22.3417 15.0325C21.6837 15.8414 21.4553 16.7648 21.6106 17.7887C21.719 18.5031 22.0269 19.1199 22.5291 19.6397C22.8361 19.9574 23.3514 20.2898 23.7481 20.4823C23.679 20.6462 23.5434 20.9107 23.4776 21.0761C23.1966 21.7822 22.8185 22.4339 22.3735 23.0486C22.0571 23.4857 21.7387 23.9191 21.3064 24.2548C20.9109 24.5619 20.4731 24.7154 19.9686 24.6804C19.5843 24.6537 19.2286 24.5336 18.8843 24.3743C18.1319 24.0259 17.3597 23.9564 16.5661 24.2048C16.3682 24.2668 16.1814 24.364 15.9841 24.4281C15.6707 24.5299 14.9937 24.6674 14.6644 24.6546Z" fill="white"/>
<path d="M22.5291 19.6397C22.0269 19.1198 21.719 18.5031 21.6107 17.7887C21.4554 16.7648 21.6837 15.8414 22.3417 15.0325C22.5896 14.7278 22.8762 14.4652 23.1998 14.2427C23.2239 14.2261 23.2466 14.2076 23.2763 14.1852C23.0602 13.8607 22.7998 13.5838 22.4899 13.3559C21.7386 12.8032 20.8869 12.5768 19.9637 12.6043C19.4864 12.6185 19.0381 12.7698 18.5947 12.933C18.324 13.0326 18.049 13.1228 17.7847 13.2374C17.5884 13.3225 17.3983 13.3419 17.2106 13.3236V24.0726C17.7793 24.0159 18.3371 24.1209 18.8843 24.3743C19.2286 24.5337 19.5844 24.6537 19.9686 24.6804C20.4731 24.7154 20.9109 24.5618 21.3064 24.2548C21.7387 23.9191 22.0572 23.4857 22.3736 23.0486C22.8185 22.4339 23.1966 21.7822 23.4776 21.0761C23.5434 20.9107 23.679 20.6463 23.7481 20.4823C23.3515 20.2898 22.8361 19.9574 22.5291 19.6397Z" fill="#CCCCCC"/>
<path d="M20.3675 8.74512C20.3656 8.9983 20.3945 9.25625 20.3562 9.50379C20.2142 10.4213 19.7835 11.1866 19.0583 11.7696C18.5208 12.2018 17.9125 12.4597 17.1934 12.415C17.1525 12.1379 17.1616 11.8629 17.2213 11.5937C17.4349 10.631 17.947 9.86459 18.7693 9.31759C19.1937 9.03527 19.6595 8.84255 20.1687 8.76817C20.1931 8.76459 20.325 8.74512 20.3675 8.74512Z" fill="#CCCCCC"/>
</g>
<defs>
<clipPath id="clip0_587_1164">
<rect width="22.4" height="22.4" fill="white" transform="translate(6.30005 6.2998)"/>
</clipPath>
</defs>
</svg>
