<svg width="24" height="24" viewBox="0 0 24 24" fill="none" xmlns="http://www.w3.org/2000/svg">
<g clip-path="url(#clip0_587_1143)">
<path d="M12.0098 0C5.38811 0 0.0196533 5.36841 0.0196533 11.9902C0.0196533 17.0724 3.17758 21.4145 7.63806 23.1612C7.5295 22.2138 7.44067 20.7533 7.67753 19.7171C7.89465 18.7796 9.07886 13.7566 9.07886 13.7566C9.07886 13.7566 8.72359 13.0362 8.72359 11.9803C8.72359 10.3125 9.69072 9.06909 10.8947 9.06909C11.921 9.06909 12.4144 9.83883 12.4144 10.7566C12.4144 11.7829 11.7631 13.3224 11.4177 14.7533C11.1315 15.9474 12.0197 16.9244 13.194 16.9244C15.3256 16.9244 16.9637 14.6744 16.9637 11.4375C16.9637 8.5658 14.9012 6.5625 11.9506 6.5625C8.53614 6.5625 6.53284 9.11841 6.53284 11.7631C6.53284 12.7895 6.92758 13.8947 7.42098 14.4967C7.51965 14.6151 7.52954 14.7237 7.49992 14.8421C7.41109 15.2171 7.20386 16.0362 7.16439 16.2039C7.11503 16.4211 6.98673 16.4704 6.75976 16.3618C5.25976 15.6612 4.32226 13.4802 4.32226 11.7138C4.32226 7.93416 7.06567 4.46048 12.2466 4.46048C16.4012 4.46048 19.6381 7.42102 19.6381 11.3881C19.6381 15.523 17.0328 18.8486 13.4209 18.8486C12.2071 18.8486 11.0624 18.217 10.6775 17.467C10.6775 17.467 10.0756 19.7565 9.92753 20.319C9.66109 21.3651 8.93083 22.6677 8.43737 23.467C9.56237 23.8124 10.7466 23.9999 11.99 23.9999C18.6117 23.9999 23.9802 18.6315 23.9802 12.0098C23.9999 5.36841 18.6315 0 12.0098 0Z" fill="#E60023"/>
</g>
<defs>
<clipPath id="clip0_587_1143">
<rect width="24" height="24" fill="white"/>
</clipPath>
</defs>
</svg>
