<svg width="80" height="37" viewBox="0 0 80 37" fill="none" xmlns="http://www.w3.org/2000/svg">
<g clip-path="url(#clip0_611_24638)">
<path fill-rule="evenodd" clip-rule="evenodd" d="M84.3674 -14.5508H-4.9361C-8.72982 -14.5508 -11.8057 -11.4681 -11.8057 -7.67435V43.8337C-11.8057 47.6317 -8.72209 50.7101 -4.93524 50.7101H84.3682C88.1628 50.7101 91.2387 47.6274 91.2387 43.8337V-7.67435C91.2378 -11.4724 88.1542 -14.5508 84.3674 -14.5508Z" fill="white"/>
<path opacity="0.938" fill-rule="evenodd" clip-rule="evenodd" d="M4.71642 23.1355C4.64773 23.09 5.1243 21.2524 6.26207 17.1831C7.16628 13.9458 8.01811 10.9172 8.15292 10.4526L8.39937 9.60938L11.9552 9.67464C16.113 9.7502 16.7528 9.80516 17.4217 10.1435C18.6067 10.7437 18.933 11.6659 18.5251 13.264C18.1765 14.6242 17.5118 15.5507 16.2264 16.4652C15.9825 16.6387 15.7696 16.8508 15.7541 16.9358C15.7352 17.0311 15.8872 17.2406 16.1431 17.4742C16.3749 17.6845 16.6197 17.9662 16.6892 18.0993C16.8747 18.46 16.8429 19.1795 16.5845 20.4289C16.4582 21.0412 16.3311 21.9162 16.3011 22.373L16.2496 23.2042H14.5279C13.3085 23.2042 12.7753 23.1733 12.6989 23.0969C12.5306 22.9286 12.5683 22.5001 12.8603 21.2722C13.1849 19.906 13.2046 19.3693 12.9419 19.0361C12.5958 18.5948 12.2807 18.5003 11.0373 18.4582C10.0326 18.4247 9.86516 18.4402 9.71317 18.5776C9.47617 18.7923 9.28382 19.3453 8.72224 21.4293L8.2448 23.2042L6.53085 23.2034C5.588 23.2025 4.77138 23.1725 4.71642 23.1355ZM13.7645 15.5103C14.5811 15.2682 14.9255 14.7349 14.9272 13.7105C14.9272 13.4022 14.8757 13.1858 14.77 13.0579C14.5219 12.7591 13.7748 12.6577 12.3734 12.7316L11.1549 12.7977L10.9772 13.3954C10.7032 14.3176 10.5118 15.2098 10.5418 15.4202C10.5607 15.5576 10.656 15.6271 10.8836 15.6718C11.3808 15.7697 13.2433 15.6649 13.7645 15.5103ZM19.5289 23.3992C18.9845 23.2051 18.556 22.841 18.3766 22.4211C18.0348 21.6225 18.3491 19.8467 19.5968 15.5266C19.8956 14.4928 20.1403 13.6358 20.1403 13.6238C20.1403 13.6109 20.2039 13.5379 20.2811 13.4606C20.3962 13.3447 20.659 13.3189 21.7134 13.3189C22.4236 13.3189 23.1045 13.3567 23.2273 13.4031L23.4506 13.489L23.2282 14.279C22.6821 16.2196 22.1145 18.5742 22.0174 19.3101C21.9281 19.979 21.9316 20.1559 22.0372 20.3774C22.2785 20.8815 23.1552 20.9871 23.9005 20.6041C24.7756 20.1542 24.9396 19.7686 26.3452 14.8646C26.5513 14.1459 26.7093 13.7715 26.8845 13.5843L27.1327 13.3181H28.5375C29.6237 13.3181 29.9526 13.3456 29.9878 13.4383C30.0222 13.5302 28.2378 20.1765 27.4856 22.7551L27.3671 23.1596L25.8652 23.2042C25.0392 23.23 24.3642 23.224 24.3642 23.1931C24.3642 23.1622 24.4252 22.9638 24.4999 22.7517C24.8039 21.8904 24.4252 21.8372 23.3192 22.5834C22.2261 23.321 21.7684 23.4953 20.8221 23.5357C20.1824 23.5623 19.9016 23.5331 19.5289 23.3992ZM29.513 23.133C29.4331 23.0814 29.896 21.2988 31.2656 16.3716L33.1272 9.67893L36.2726 9.70469C40.1969 9.73818 40.998 9.80773 41.7571 10.1813C42.3805 10.4878 42.6776 10.7626 42.955 11.289C43.4221 12.1734 43.4144 13.1996 42.9301 14.607C42.1865 16.7709 40.798 18.1929 38.9681 18.6669C38.6718 18.7442 37.7419 18.8472 36.9012 18.8979C34.125 19.0636 34.2925 19.0327 34.1439 19.4131C34.0726 19.5951 33.7953 20.5234 33.5274 21.474L33.0405 23.2042L31.3317 23.2034C30.3906 23.2025 29.5731 23.1708 29.513 23.133ZM37.607 15.9294C38.5216 15.8117 39.0024 15.5292 39.3073 14.9307C39.6353 14.2884 39.722 13.5877 39.5133 13.2691C39.2283 12.8338 38.8376 12.7393 37.3683 12.747C36.6367 12.7505 36.0013 12.79 35.9575 12.8338C35.857 12.9351 35.2388 15.3781 35.2388 15.6752C35.2388 15.7954 35.2654 15.9216 35.2989 15.9551C35.3839 16.0401 36.8763 16.0238 37.607 15.9294ZM42.7429 23.4361C41.685 22.993 41.4102 22.2605 41.7554 20.7973C42.2371 18.7528 43.2993 18.0692 46.9454 17.4561C49.147 17.0852 49.6966 16.8147 49.8546 16.023C49.9723 15.4373 49.4699 15.1179 48.4335 15.1162C47.786 15.1162 47.5439 15.2106 46.9823 15.6804L46.5297 16.0599L45.3636 16.09C44.0129 16.1243 43.5973 16.0702 43.5973 15.8615C43.5973 15.6177 44.1271 14.8732 44.6217 14.4206C45.1541 13.9346 45.8582 13.562 46.6208 13.3645C48.2214 12.9471 50.9778 12.9952 51.9249 13.4572C52.4316 13.7045 52.8824 14.115 53.0971 14.5254C53.2997 14.9135 53.2276 15.3163 52.2701 19.1108C51.8004 20.9742 51.4157 22.6573 51.4157 22.8513V23.2042H50.3054C49.6949 23.2042 49.0088 23.23 48.7795 23.2618L48.3648 23.3185L48.1819 22.8925C47.9672 22.3919 47.9423 22.3919 46.8123 22.9011C45.5852 23.4524 45.1352 23.5761 44.1821 23.6207C43.3706 23.6585 43.2298 23.6405 42.7429 23.4361ZM47.5739 21.3366C48.193 21.0618 48.8937 19.9403 48.8972 19.2147L48.8997 18.8644L48.3287 18.9176C47.6967 18.9777 46.3606 19.4079 45.8711 19.7102C45.4572 19.9661 45.2151 20.3783 45.2159 20.8231C45.2177 21.2499 45.2803 21.3666 45.5766 21.4929C45.9149 21.6371 47.1051 21.5444 47.5739 21.3366ZM52.5234 27.4617C52.1628 27.3809 52.1499 27.247 52.3998 26.2595C52.7347 24.9388 52.7132 24.9663 53.5419 24.8375C54.4349 24.6984 54.8342 24.5026 55.0334 24.1033C55.2541 23.6611 55.2378 21.9265 54.9707 17.2732C54.8222 14.6834 54.7852 13.5087 54.8505 13.4306C54.9175 13.349 55.3726 13.3189 56.5439 13.3189H58.1453L58.1737 16.3244C58.1925 18.3767 58.2338 19.3633 58.3007 19.4311C58.4648 19.5943 59.0658 18.5776 61.5303 13.9698L61.8789 13.3189H63.2923C64.0703 13.3189 64.7255 13.3499 64.7487 13.3876C64.7942 13.4606 62.6518 17.2792 60.5024 20.9579C57.4472 26.1865 56.8719 26.9069 55.4387 27.3062C54.9707 27.4368 52.9013 27.5467 52.5234 27.4617Z" fill="#6B705C"/>
<path fill-rule="evenodd" clip-rule="evenodd" d="M65.7666 26.2633L69.9682 10.8721L73.968 18.8262L65.7666 26.2633Z" fill="#6B705C"/>
<path fill-rule="evenodd" clip-rule="evenodd" d="M63.167 26.3191L67.3686 10.9287L71.3684 18.8819L63.167 26.3191Z" fill="#6B705C"/>
</g>
<defs>
<clipPath id="clip0_611_24638">
<rect x="0.21582" y="0.046875" width="79" height="36.0652" rx="3.43478" fill="white"/>
</clipPath>
</defs>
</svg>
