<svg width="58" height="37" viewBox="0 0 58 37" fill="none" xmlns="http://www.w3.org/2000/svg">
<path fill-rule="evenodd" clip-rule="evenodd" d="M53.4327 0H4.01706C1.91783 0 0.21582 1.70581 0.21582 3.80504V32.3068C0.21582 34.4084 1.9221 36.1118 4.01754 36.1118H53.4332C55.5329 36.1118 57.2349 34.406 57.2349 32.3068V3.80504C57.2345 1.70343 55.5282 0 53.4327 0Z" fill="white"/>
<path d="M41.075 24.2444H38.635L42.0254 12H44.4654L41.075 24.2444ZM39.8078 12.3835C39.641 12.1501 39.3798 12.0333 39.0241 12.0333H25.618L24.9566 14.4344H37.151L36.4396 16.9967H26.6852V16.9911H24.2452L22.222 24.3H24.662L26.0182 19.3978H36.9843C37.3289 19.3978 37.6512 19.2811 37.9514 19.0476C38.2515 18.8142 38.4516 18.5252 38.5461 18.1806L39.9022 13.2784C40.0078 12.9115 39.9745 12.6169 39.8078 12.3835ZM20.7992 23.4774C20.6658 23.961 20.2211 24.3 19.7209 24.3H7.14299C6.79839 24.3 6.54272 24.1833 6.37598 23.9498C6.20924 23.7164 6.17033 23.4274 6.27037 23.0828L9.33843 12.0333H11.7784L9.03829 21.9045H18.7983L21.5384 12.0333H23.9784L20.7992 23.4774Z" fill="#6B705C"/>
<path d="M48.6779 12.0225L51.7626 18.1586L45.2764 24.2947L48.6779 12.0225Z" fill="#6B705C"/>
<path d="M46.5116 12.0225L49.5963 18.1586L43.1045 24.2947L46.5116 12.0225Z" fill="#6B705C"/>
</svg>
