<svg width="172" height="165" viewBox="0 0 172 165" fill="none" xmlns="http://www.w3.org/2000/svg">
<path d="M56.8583 162.601C57.7886 162.134 58.7896 161.365 58.7896 160.871C58.7896 160.376 58.9829 159.14 59.2722 158.728C59.5619 158.316 59.8517 157.945 60.3827 157.904C60.9137 157.863 62.8934 157.369 63.2796 157.121C63.6657 156.874 65.2593 156.998 65.3557 156.874C65.4522 156.751 63.7142 155.926 64.2452 155.102C64.7763 154.278 66.1281 153.496 66.3214 152.301C66.5147 151.106 67.7701 150.57 68.7837 150.9C69.7978 151.23 70.3768 151.698 70.3768 150.804C70.3768 149.911 70.3283 147.274 70.3768 146.573C70.4252 145.873 69.7973 145.214 69.7973 144.555C69.7973 143.895 69.3142 142.412 69.6524 141.835C69.9906 141.258 71.3904 140.269 71.9219 139.239C72.4529 138.21 73.0324 137.385 72.8391 136.685C72.6457 135.985 72.8875 135.655 73.2252 135.284C73.5634 134.913 73.7083 133.966 73.2252 133.224C72.7427 132.482 73.1288 130.752 72.4529 130.175C71.777 129.598 71.3909 128.527 72.0183 127.909C72.6457 127.291 72.4045 126.343 71.9219 125.643C71.4388 124.942 71.1496 123.047 71.8255 122.676C72.5014 122.305 73.2257 122.099 73.2742 121.234C73.3226 120.369 74.1914 119.998 74.6744 119.874C75.1575 119.75 76.268 119.627 76.5573 119.874C76.847 120.121 77.909 120.701 77.9575 119.731C78.006 118.762 78.3437 118.515 78.9232 118.102C79.5026 117.69 79.2129 116.866 79.9372 116.866C80.6616 116.866 82.6893 116.825 83.0754 116.454C83.4616 116.083 84.0961 116.372 84.9381 115.795C85.7795 115.218 85.828 114.929 85.2485 114.971C84.669 115.012 84.3863 114.518 84.9381 114.518C85.4898 114.518 86.1657 114.93 86.3105 114.147C86.4554 113.364 86.359 113.57 85.7795 113.776C85.2 113.982 85.3449 113.075 85.876 112.705C86.407 112.334 88.0485 111.715 88.9662 111.056C89.8834 110.397 90.3664 110.067 91.2357 109.738C92.1049 109.408 91.8152 108.337 92.6844 107.966C93.5536 107.595 95.1467 106.277 95.9675 106.153C96.7882 106.03 96.7398 105.453 97.5126 104.629C98.2849 103.805 100.313 102.486 100.603 101.497C100.893 100.508 102.003 99.6841 102.775 99.1487C103.548 98.6132 104.9 98.5305 105.624 97.7478C106.348 96.9652 108.714 96.5943 108.714 96.5943C108.714 96.5943 110.645 96.3057 110.935 95.6053C111.225 94.9049 112.094 94.2454 112.625 93.9985C113.156 93.7513 111.659 93.1332 112.625 92.7214C113.591 92.3091 114.411 91.8973 114.122 91.5264C113.832 91.1556 112.722 91.4851 113.301 91.1556C113.88 90.826 113.928 90.3729 113.397 90.002C112.866 89.6311 112.77 88.4776 113.397 88.0653C114.025 87.6535 114.412 86.6645 115.57 86.8704C116.729 87.0763 116.246 86.8704 117.26 86.4995C118.274 86.1286 118.998 86.3345 119.433 85.4282C119.867 84.5219 120.06 84.4392 120.398 84.0683C120.736 83.6975 119.722 82.929 120.398 83.0453C121.074 83.1616 121.412 83.6561 121.074 84.2742C120.736 84.8924 120.929 85.1396 121.46 85.3455C121.991 85.5514 122.522 85.3869 122.957 84.6861C123.391 83.9856 123.053 83.4911 123.681 83.5325C124.309 83.5738 123.826 84.4388 124.55 84.4388C125.275 84.4388 125.951 84.8506 126.047 84.2738C126.144 83.697 125.951 82.873 125.516 82.4608C125.081 82.0485 125.081 80.895 124.985 79.9064C124.889 78.9178 124.454 78.5465 124.792 78.0524C125.13 77.5579 124.309 77.0225 123.875 77.1461C123.44 77.2697 124.164 76.1162 123.585 75.7862C123.005 75.4567 121.654 75.6626 122.088 74.7149C122.523 73.7673 124.019 73.3964 123.392 72.8196C122.764 72.2428 123.344 70.7184 122.668 70.9243C121.992 71.1302 119.529 71.1302 119.336 70.2239C119.143 69.3176 119.046 69.3176 119.336 68.7408C119.626 68.164 119.336 68.0817 120.205 68.0404C121.075 67.999 121.267 67.1341 121.316 66.7218C121.364 66.3096 121.702 66.1451 122.378 66.2687C123.054 66.3923 123.44 66.724 123.778 66.2286C124.116 65.7333 123.005 65.6506 123.15 65.1151C123.295 64.5797 122.716 64.4561 122.088 64.6206C121.461 64.7856 121.219 64.332 120.639 63.8789C120.06 63.4257 119.867 62.8489 119.336 62.9725C118.805 63.0962 118.032 62.5194 118.901 62.0249C119.77 61.5304 119.577 61.5304 120.108 60.8713C120.639 60.2123 120.204 59.2233 120.88 59.1819C121.556 59.1406 122.377 59.5941 122.232 60.2532C122.087 60.9122 122.232 61.5304 122.86 61.0359C123.487 60.5414 123.777 58.9295 124.164 59.1793C124.55 59.4292 123.681 60.3355 124.598 60.6241C125.516 60.9123 125.468 62.0249 126.288 61.6954C127.109 61.3658 127.158 60.0886 127.93 60.5005C128.703 60.9123 129.185 61.2831 128.896 61.7367C128.606 62.1899 128.557 62.6844 129.185 63.5498C129.813 64.4151 128.944 64.827 129.571 65.2801C130.199 65.7333 131.551 65.3624 131.937 65.8155C132.324 66.2687 134.11 65.1565 135.124 65.486C136.138 65.8155 137.2 65.5683 137.972 65.486C138.745 65.4037 139.904 65.6096 140.773 65.321C141.642 65.0324 143.235 65.1974 143.429 65.5269C143.622 65.8565 144.539 65.6919 144.78 66.0214C145.022 66.351 144.925 67.2164 144.394 66.8868C143.863 66.5573 143.187 66.8046 143.284 67.5459C143.38 68.2876 144.249 69.6471 143.187 69.6885C142.125 69.7298 141.691 70.2239 141.401 70.5125C141.111 70.8011 141.015 71.2129 140.049 71.2542C139.083 71.2956 139.084 72.5314 138.166 72.7787C137.249 73.0259 137.587 74.3445 137.973 74.9213C138.359 75.498 139.904 76.2398 140.049 76.8166C140.194 77.3934 140.242 78.3824 141.111 77.9292C141.98 77.4761 142.367 76.693 142.028 75.9516C141.69 75.2099 142.222 75.1276 142.559 74.3036C142.898 73.4795 143.477 73.0677 144.056 73.2323C144.636 73.3973 144.403 73.3973 144.906 74.9217C145.408 76.4461 145.167 77.5588 146.229 78.8773C147.291 80.1959 146.664 81.4317 147.34 81.9676C148.016 82.503 148.45 81.4321 149.078 82.2148C149.706 82.9975 150.43 82.0912 150.478 81.4321C150.527 80.7726 150.044 79.99 149.947 79.0837C149.851 78.1773 149.271 77.1061 150.141 76.4466C151.01 75.7871 151.589 74.2626 151.155 73.3563C150.72 72.45 149.706 71.5024 149.996 71.0901C150.286 70.6779 150.34 71.2138 151.302 71.1315C152.265 71.0492 152.989 70.9665 154.003 71.2965C155.017 71.626 156.514 71.7496 156.031 70.5961C155.548 69.4425 156.272 68.2889 156.852 67.5881C157.431 66.8877 158.397 65.5278 157.624 64.4156C156.852 63.3029 157.431 62.5203 157.431 62.5203C157.431 62.5203 159.99 60.8722 159.604 59.9659C159.218 59.0596 159.507 57.5761 159.41 57.0406C159.314 56.5052 159.459 55.3512 159.99 55.3512C160.521 55.3512 161.487 54.5272 161.487 54.5272L164.528 52.0551C164.528 52.0551 165.542 51.0251 166.363 51.0251C167.184 51.0251 167.763 50.6133 168.343 51.0251C168.922 51.4369 169.695 52.1378 170.129 51.6846C170.564 51.2315 168.874 50.2838 169.019 49.7479C169.164 49.2125 169.067 48.6767 169.984 48.0585C170.902 47.4404 170.999 46.74 170.999 46.1632C170.999 45.5864 170.515 44.8447 169.84 44.9269C169.164 45.0092 168.294 45.1617 167.667 44.9205C167.04 44.6797 166.75 44.0615 166.17 44.6383C165.591 45.2151 164.915 45.8742 164.915 45.2151C164.915 44.556 166.412 43.6493 166.074 43.1139C165.736 42.5785 165.108 40.8477 164.722 41.3008C164.336 41.754 163.805 42.7016 163.515 42.1662C163.225 41.6308 163.998 41.1772 164.095 40.7654C164.191 40.3532 162.984 40.23 162.984 39.5705C162.984 38.911 162.163 39.241 160.908 40.3945C159.653 41.5481 159.749 42.2485 158.735 42.084C157.721 41.919 156.321 41.8367 155.645 41.4658C154.969 41.0949 153.521 40.889 152.797 42.084C152.072 43.2789 151.01 44.9683 149.803 45.1328C148.597 45.2974 147.582 45.3387 147.341 45.9982C147.1 46.6573 147.631 47.3168 146.858 47.3581C146.086 47.3995 144.782 47.3581 144.541 48.4294C144.299 49.5007 144.299 50.1597 143.671 50.1597C143.044 50.1597 142.561 50.6129 142.126 50.407C141.692 50.2011 141.161 50.4484 140.63 50.9424C140.099 51.4369 139.519 51.4369 139.278 50.9011C139.037 50.3656 138.264 50.0357 137.926 50.3243C137.588 50.6129 138.747 50.9011 138.312 51.3542C137.878 51.8074 138.264 52.6314 139.374 52.5078C140.485 52.3842 141.354 52.5078 141.402 53.1259C141.45 53.7441 140.195 54.1559 141.112 54.5267C142.029 54.8976 142.078 55.6803 141.498 55.7217C140.919 55.763 140.339 55.0212 139.857 55.5157C139.374 56.0103 140.002 56.3398 138.795 56.3398C137.588 56.3398 136.574 55.7216 135.898 56.2984C135.222 56.8752 135.174 56.8339 133.822 56.9166C132.47 56.9988 131.987 55.5571 131.456 56.2575C130.925 56.9579 130.973 57.2874 129.911 57.3702C128.849 57.4524 127.014 57.6997 126.676 57.1229C126.338 56.5461 125.806 56.3811 125.372 56.7934C124.937 57.2052 124.792 57.1643 123.971 56.6284C123.151 56.093 123.006 55.1862 122.523 55.4335C122.04 55.6807 123.247 54.3208 122.619 54.1149C121.992 53.909 122.282 52.6728 122.813 52.3432C123.344 52.0137 122.668 50.7365 122.088 50.4066C121.509 50.077 121.171 49.7884 120.639 50.1593C120.108 50.5302 118.612 51.766 118.418 52.3842C118.225 53.0023 118.37 54.5267 117.984 54.8153C117.598 55.1035 117.453 55.928 117.887 56.1748C118.322 56.4221 119.433 57.2461 119.239 57.7815C119.046 58.317 118.515 59.0587 118.37 59.5123C118.225 59.9654 117.79 59.8418 117.211 59.43C116.632 59.0178 117.115 59.7595 116.004 59.9655C114.894 60.1713 114.604 60.4186 113.928 60.0891C113.252 59.7595 113.011 59.3473 111.707 59.8005C110.403 60.2536 110.017 60.1714 108.762 59.5946C107.506 59.0178 106.589 59.1001 105.382 59.265C104.175 59.43 104.851 57.8229 104.126 57.9052C103.402 57.9874 103.016 58.8528 102.291 58.6469C101.567 58.441 100.746 57.0402 99.7805 57.2461C98.8149 57.452 97.608 57.452 98.0906 56.8752C98.5731 56.2984 98.0421 55.1035 97.3182 55.2271C96.5939 55.3508 96.3041 54.2795 95.7247 54.4031C95.1452 54.5267 93.8898 55.8862 93.3103 55.433C92.7308 54.9799 91.9585 54.6504 91.4755 54.8149C90.9924 54.9799 91.1372 55.6803 90.6547 55.639C90.1716 55.5976 86.7921 54.6499 85.7296 53.9909C84.6675 53.3318 83.1224 52.9609 82.4465 52.8782C81.7706 52.796 80.9014 52.3428 79.8878 51.5188C78.8737 50.6947 77.1357 49.3348 75.9283 49.1289C74.7214 48.923 72.5483 48.1813 72.1142 47.5632C71.6796 46.945 72.6937 46.121 72.7416 45.4619C72.7901 44.8029 72.5483 43.9375 73.2727 43.6489C73.997 43.3603 73.6588 42.0422 74.4796 41.6299C75.3004 41.2181 76.4109 39.9819 76.266 39.5287C76.1211 39.0756 76.0247 38.2929 74.7209 38.2929C73.417 38.2929 73.1278 37.2216 72.3065 36.933C71.4858 36.6448 70.5681 35.3263 69.3127 35.3263C68.0573 35.3263 67.1881 33.3073 66.6086 33.4309C66.0291 33.5546 65.1251 33.8669 64.8222 33.4253C64.3427 32.7267 65.0211 31.39 64.4991 30.6332C63.9772 29.8759 63.0898 28.9851 62.8808 28.4062C62.6718 27.8273 62.8288 27.07 62.3069 26.8473C61.7849 26.6246 63.3508 25.7782 64.1337 26.09C64.9166 26.4019 64.6036 27.3371 65.595 27.4706C66.5869 27.6041 66.7434 26.5798 67.6828 26.535C68.6222 26.4902 69.1966 25.7777 69.0396 25.2879C68.8831 24.7982 67.7868 23.7734 68.0477 23.1501C68.3087 22.5264 67.1603 22.081 66.3774 22.2593C65.5945 22.4376 64.8636 21.7247 65.49 21.1458C66.1164 20.5669 66.5864 20.3442 65.96 19.8096C65.3335 19.275 65.229 18.429 66.012 18.2951C66.7949 18.1615 67.8913 19.0075 68.3087 18.2951C68.7262 17.5826 68.2567 16.2016 68.9351 15.9345C69.6135 15.6675 71.4928 14.9546 71.5973 14.1081C71.7018 13.2617 72.1717 12.193 72.5892 11.7476C73.0067 11.3022 73.2676 9.69849 72.2762 9.34226C71.2844 8.98603 69.0401 7.87253 68.2047 7.69419C67.3698 7.51586 67.1088 8.27313 65.4905 8.09523C63.8722 7.91689 62.7243 8.40709 62.0979 8.98603C61.4715 9.56496 60.8976 10.2331 59.3317 10.1439C57.7659 10.0547 56.8785 8.40666 55.7826 8.49583C54.6863 8.585 54.3213 7.51586 54.1643 7.07046C54.0079 6.62506 53.2769 6.00133 52.285 5.37802C51.2932 4.75429 50.0408 4.62076 48.8924 3.68559C47.7441 2.74999 46.8047 1.01318 46.0218 1.19108C45.2389 1.36942 44.7689 1.47754 43.5166 1.17816C42.2637 0.879217 41.3243 0.923585 40.0195 1.59169C38.7146 2.25979 38.7146 2.43812 36.9923 2.43812C35.27 2.43812 34.1736 2.48249 34.0691 2.88352C33.9647 3.28455 33.5472 4.04139 32.4508 4.44242C31.355 4.84346 30.9895 5.64509 31.198 6.26882C31.407 6.89256 31.5634 7.24879 33.0248 7.20442C34.4861 7.16006 34.6951 8.62979 35.5825 9.16436C36.4699 9.69893 37.5137 9.87726 38.1402 10.8124C38.7666 11.748 38.9231 12.8167 38.0357 13.3513C37.1483 13.8859 37.6182 14.4204 36.4699 14.9994C35.3215 15.5783 36.3134 16.0237 36.3134 17.6718C36.3134 19.3198 35.7395 21.3689 36.3654 22.2597C36.9918 23.1505 38.0357 23.2841 38.8186 24.0413C39.6015 24.7986 40.8544 25.1105 41.5848 24.9765C42.3157 24.843 41.8982 25.5554 42.2632 26.1792C42.6287 26.8029 44.5074 26.4911 45.1339 27.1148C45.7603 27.7385 45.9168 28.6737 45.2384 28.852C44.5599 29.0303 42.8896 29.0303 42.0542 29.5201C41.2188 30.0099 40.4359 30.5445 40.8014 31.1682C41.1668 31.7919 42.1587 32.5044 41.3233 32.6827C40.4884 32.8611 40.4884 33.6627 40.8533 34.0189C41.2188 34.3752 41.5318 35.8897 40.6969 35.5778C39.8615 35.266 39.3395 35.9789 38.6611 36.4686C37.9827 36.9584 38.5046 37.4042 37.7217 37.5821C36.9388 37.7605 36.9388 38.2059 37.0433 38.5621C37.1478 38.9183 37.7217 39.4529 36.9913 39.8091C36.2604 40.1654 34.7471 40.0762 34.2251 40.4772C33.7032 40.8783 34.0686 42.4372 33.1288 43.5063C32.1894 44.5754 31.354 45.8668 30.0491 46.2235C28.7443 46.5797 27.5439 47.1587 27.074 48.2726C26.604 49.3861 25.8736 48.9407 25.2472 50.0098C24.6207 51.079 24.9342 51.5244 23.4724 51.7023C22.011 51.8806 20.2882 51.7466 19.7143 52.1477C19.1404 52.5487 17.5221 52.8158 17.6785 51.7466C17.835 50.6775 17.3656 49.9202 16.5302 50.2321C15.6948 50.544 14.3379 51.1229 14.3379 51.791C14.3379 52.4591 14.0769 53.0829 12.6676 53.8845C11.2583 54.6861 10.4754 55.8444 10.6318 56.6904C10.7883 57.5369 11.5712 58.0266 12.4066 58.0714C13.242 58.1158 14.4944 58.1158 14.4424 58.9179C14.3904 59.7195 13.555 61.1005 13.555 61.1005C13.555 61.1005 13.503 61.813 14.1289 62.5702C14.7554 63.3275 14.6509 63.9956 15.8512 63.461C17.0516 62.9265 17.1041 63.5502 16.8431 64.2183C16.5822 64.8864 16.3732 65.4653 17.2086 66.1334C18.044 66.8015 17.5215 67.2469 18.2525 67.915C18.9834 68.5831 19.1399 69.1177 18.6699 69.6966C18.2 70.2756 18.3569 70.0977 18.6179 70.6318C18.8789 71.1664 18.6699 71.2999 17.626 71.5226C16.5822 71.7453 15.4858 72.0572 15.5383 71.0772C15.5903 70.0972 14.9118 70.3643 14.7034 70.6318C14.4944 70.8989 12.6676 71.3891 12.6676 71.3891C12.6676 71.3891 11.0099 72.1463 10.6121 71.7901C10.2144 71.4339 9.63995 70.4095 8.49209 70.721C7.34372 71.0328 6.40433 70.7653 5.72591 70.5874C5.04749 70.4091 4.83851 70.6766 4.63004 71.3447C4.42106 72.0128 3.79464 72.503 2.95974 72.3247C2.12433 72.1463 1.37826 72.4117 1.39391 72.8144C1.41814 73.4304 1.46861 73.7772 1.11325 74.0369C0.757888 74.2967 1.31617 74.4703 1.72252 74.2967C2.12886 74.1231 2.2808 73.3869 2.63616 73.4735C2.99153 73.5601 2.99153 72.9971 3.70225 72.9105C4.41298 72.8239 5.37761 72.7373 4.81933 73.0406C4.26105 73.3438 4.26105 73.6036 3.49934 73.8638C2.73763 74.1235 2.33179 74.167 2.38227 74.5138C2.43325 74.8605 3.19445 75.3369 3.29591 75.987C3.39737 76.637 3.65128 77.1134 4.66689 77.4601C5.68199 77.8069 6.64662 79.1931 7.50979 79.0199C8.37296 78.8467 8.2715 79.1931 9.79441 79.0634C11.3173 78.9333 11.0634 78.5435 11.9776 78.5004C12.8912 78.4569 12.9422 78.0671 12.9422 77.6337C12.9422 77.2004 13.3486 76.6374 14.1098 77.0272C14.8715 77.4171 15.4297 76.8971 15.8866 77.1138C16.3434 77.3305 16.5463 77.7638 15.6837 78.0236C14.8205 78.2837 14.6176 78.5 14.3637 78.9333C14.1097 79.3667 13.9573 78.5435 13.5515 78.8898C13.1451 79.2366 13.0437 80.926 12.4344 80.926C11.8251 80.926 11.4698 80.3195 11.1654 80.6227C10.861 80.926 10.0483 81.5325 9.8454 81.3158C9.64248 81.0992 9.28711 80.9691 9.18565 81.3158C9.08419 81.6626 8.37346 81.4459 7.76419 81.6191C7.15493 81.7922 6.34274 82.0722 6.13932 81.8021C5.9364 81.5321 6.08885 81.0556 5.93641 80.9256C5.78397 80.7955 5.53005 80.7524 5.22567 81.0556C4.92129 81.3589 4.61641 82.7455 5.98738 83.5252C7.35836 84.3048 9.64248 86.6012 10.0998 87.1642C10.5566 87.7272 13.3491 90.2837 13.9583 90.6735C14.5676 91.0634 16.2429 91.15 17.7154 90.7166C19.1878 90.2833 20.8122 89.5902 21.269 89.7203C21.7258 89.8504 22.8939 89.1569 23.3507 88.8536C23.8075 88.5503 23.1983 88.4203 23.8585 88.0739C24.5183 87.7272 25.077 86.6443 24.7722 86.3841C24.4678 86.1243 24.5692 85.3012 23.96 85.5174C23.3507 85.7341 22.691 85.1707 23.1478 85.0841C23.6046 84.9975 24.0614 85.0841 24.0614 84.8239C24.0614 84.5641 23.8075 84.2174 24.3153 84.0873C24.8231 83.9572 24.4168 82.9178 25.1275 82.7442C25.8382 82.571 25.3304 83.2641 25.8892 83.2206C26.4475 83.1771 27.7675 83.0871 28.3263 83.0457C28.8846 83.0044 28.8846 83.5674 28.3263 83.5674C27.768 83.5674 27.1588 83.091 26.8034 83.6109C26.448 84.1308 26.9048 84.6507 26.9048 84.6507C26.9048 84.6507 27.717 84.4341 27.717 84.7373C27.717 85.0406 27.4126 84.8674 27.0573 85.2137C26.7019 85.5605 26.2956 86.2966 26.7529 86.3401C27.2097 86.3837 28.1239 86.167 27.9714 86.5133C27.819 86.8601 27.0068 87.2499 27.1592 87.5097C27.3117 87.7694 26.8039 88.0296 26.7024 88.4629C26.601 88.8963 26.7024 88.9828 27.2607 89.2426C27.819 89.5023 27.9205 89.9357 27.9205 90.4125C27.9205 90.8889 28.5297 91.7991 28.3773 92.1019C28.3773 92.1019 27.9704 92.938 27.5313 93.2749C27.0921 93.6122 27.5752 94.7356 27.3117 95.1478C27.0482 95.56 26.3461 96.4211 26.5217 96.9083C26.6974 97.395 27.3117 99.3055 27.2239 99.8297C27.136 100.354 27.6191 101.665 27.5752 102.976C27.5313 104.287 27.7508 106.347 28.3212 107.021C28.8916 107.695 28.7165 108.819 29.0673 109.456C29.4186 110.092 29.5938 111.254 29.3747 112.078C29.1551 112.902 29.5065 116.011 29.7261 116.497C29.9456 116.984 30.6038 117.734 30.5599 118.37C30.516 119.007 31.6573 118.483 31.833 119.457C32.0086 120.431 32.0526 121.554 32.8425 122.341C33.6325 123.127 34.6421 124.25 34.4664 124.588C34.2907 124.925 34.6421 125.112 34.9929 125.599C35.3442 126.086 35.0807 126.198 35.3881 126.536C35.6955 126.873 35.6955 128.483 35.8707 128.933C36.0464 129.382 37.3189 131.255 37.275 132.154C37.2311 133.053 37.802 135.712 38.1967 136.686C38.5919 137.66 41.3132 141.593 41.8397 142.342C42.3662 143.091 42.4101 143.091 43.4196 144.552C44.4292 146.012 44.1657 148.559 45.3509 149.833C46.5361 151.106 46.7996 152.305 46.887 153.69C46.9748 155.076 47.5891 157.361 48.2473 158.185C48.9056 159.009 49.4325 160.657 50.5299 161.406C51.6273 162.155 52.7686 162.605 53.3829 163.129C53.9973 163.653 54.6121 163.766 55.1385 163.803C55.6676 163.84 56.3389 162.862 56.8583 162.601Z" fill="url(#paint0_linear_367_106029)" stroke="white" stroke-width="0.5" stroke-miterlimit="10"/>
<path d="M58.7903 160.869C58.7903 160.375 58.9836 159.139 59.2728 158.727C59.5626 158.315 59.8523 157.944 60.3834 157.903C60.9144 157.861 62.8941 157.367 63.2803 157.12C63.6664 156.873 65.26 156.997 65.3564 156.873C65.4528 156.749 63.7149 155.925 64.2459 155.101C64.7769 154.277 66.1287 153.494 66.3221 152.3C66.5154 151.105 67.7708 150.569 68.7843 150.899C69.7984 151.228 70.3779 151.697 70.3779 150.803C70.3779 149.91 70.3295 147.273 70.3779 146.572C70.4264 145.872 69.7984 145.213 69.7984 144.553C69.7984 143.894 69.3154 142.411 69.6536 141.834C69.9918 141.257 71.3915 140.268 71.9231 139.238C72.4541 138.208 73.0336 137.384 72.8402 136.684C72.6469 135.983 72.8887 135.654 73.2264 135.283C73.5646 134.912 73.7095 133.964 73.2264 133.223C73.2229 133.217 73.2203 133.21 73.2168 133.205C72.4405 133.272 72.4738 133.087 71.8448 132.872C71.0523 132.602 71.2638 133.368 70.3128 133.696C69.3618 134.023 68.8863 133.954 68.0938 133.729C67.3013 133.504 67.8823 134.495 67.1958 134.676C66.5088 134.856 65.6638 134.901 65.1878 135.307C64.7123 135.712 63.9728 134.991 62.9688 135.081C61.9648 135.171 62.3878 135.848 62.2293 136.479C62.0708 137.11 61.9653 137.246 60.7498 137.651C59.5348 138.057 59.7988 136.705 59.2178 136.389C58.6368 136.073 58.3723 136.434 57.4213 136.208C56.4703 135.983 57.2098 137.065 56.2063 137.2C55.2023 137.336 55.4138 137.967 55.9423 138.463C56.4708 138.959 55.3608 139.139 54.9913 139.861C54.6213 140.582 55.9953 140.221 56.4178 140.492C56.8403 140.762 55.8368 141.348 55.1498 141.709C54.4628 142.07 54.5688 142.836 53.7233 142.173C52.8778 141.51 52.5608 142.566 51.9268 142.25C51.2928 141.934 50.7113 142.656 50.2277 143.197C49.7442 143.738 48.8623 143.197 48.2808 142.836C47.6998 142.476 47.3298 143.467 46.6428 143.918C45.9558 144.369 48.2808 144.459 48.1748 144.91C48.0693 145.361 48.5448 145.451 49.2157 145.541C49.8865 145.631 50.0768 146.173 49.4958 146.443C48.9148 146.714 49.3373 147.3 49.8658 147.345C50.3943 147.39 51.0283 148.067 50.6053 148.517C50.1828 148.968 50.3413 149.78 50.2883 150.411C50.2353 151.042 51.2393 151.312 51.8733 150.862C52.5073 150.411 53.0883 150.862 53.2468 151.493C53.4053 152.124 52.8768 154.018 52.8506 154.649C52.8243 155.28 54.3563 155.506 53.8278 155.821C53.2993 156.137 53.5108 157.264 52.7708 157.76C52.0313 158.256 53.1933 159.338 52.7708 159.653C52.3483 159.969 52.9293 161.051 52.5593 161.367C52.4033 161.5 52.2569 161.915 52.1393 162.35C52.6391 162.622 53.0782 162.865 53.3856 163.127C53.9999 163.652 54.6148 163.764 55.1412 163.802C55.6677 163.839 56.3391 162.861 56.8585 162.6C57.7893 162.132 58.7903 161.364 58.7903 160.869Z" fill="url(#paint1_linear_367_106029)" stroke="white" stroke-width="0.5" stroke-miterlimit="10"/>
<path d="M52.1389 162.352C52.2565 161.917 52.4029 161.503 52.5588 161.369C52.9288 161.053 52.3473 159.971 52.7703 159.655C53.1928 159.34 52.0308 158.258 52.7703 157.762C53.5098 157.266 53.2988 156.139 53.8273 155.823C54.3558 155.507 52.8233 155.282 52.8501 154.651C52.8763 154.02 53.4048 152.126 53.2463 151.495C53.0878 150.864 52.5069 150.413 51.8729 150.864C51.2389 151.315 50.2348 151.044 50.2878 150.413C50.3408 149.782 50.1823 148.97 50.6048 148.519C51.0273 148.068 50.3933 147.392 49.8653 147.347C49.3368 147.302 48.9143 146.716 49.4953 146.445C50.0763 146.175 49.8865 145.634 49.2152 145.543C48.5443 145.453 48.0688 145.363 48.1743 144.912C48.2798 144.461 45.9554 144.371 46.6424 143.92C47.1224 143.605 47.448 143.027 47.7988 142.83L46.5151 141.756C46.5151 141.756 45.2158 141.17 44.0003 140.9C42.7853 140.629 42.5738 139.682 41.9398 139.276C41.3058 138.871 41.8343 138.465 40.8303 137.608C40.3498 137.198 39.3251 137.079 38.3867 137.064C39.1181 138.415 41.3684 141.668 41.8424 142.342C42.3694 143.091 42.4128 143.091 43.4224 144.552C44.4319 146.013 44.1684 148.56 45.3537 149.833C46.5389 151.106 46.8019 152.305 46.8897 153.691C46.9775 155.077 47.5918 157.361 48.2501 158.185C48.9083 159.009 49.4353 160.657 50.5327 161.406C51.1091 161.8 51.6957 162.11 52.2131 162.392C52.1878 162.379 52.1646 162.366 52.1389 162.352Z" fill="url(#paint2_linear_367_106029)" stroke="white" stroke-width="0.5" stroke-miterlimit="10"/>
<path d="M100.164 100.951C99.5303 100.864 98.7378 102.169 98.2623 102.935C97.7868 103.702 96.5713 103.116 96.0433 103.206C95.5148 103.296 94.8808 102.484 94.6168 101.989C94.3528 101.493 93.3488 101.763 92.6618 101.718C91.9748 101.673 92.3978 102.62 91.9223 103.296C91.4468 103.972 91.0768 103.431 90.4958 103.837C89.9148 104.243 90.3373 105.415 89.6503 105.19C88.9633 104.964 88.4353 105.46 87.8538 105.776C87.2728 106.092 87.0613 104.784 86.1603 104.739C85.2593 104.694 85.3178 105.596 86.0018 106.227C86.6858 106.858 84.9387 107.309 84.9387 107.309L82.2008 108.03C82.2008 108.03 80.0343 108.571 78.9778 108.617C77.9213 108.662 77.7098 109.338 77.0228 109.383C76.3358 109.428 76.6528 110.105 76.9173 110.42C77.1813 110.736 78.7668 111.007 79.2423 111.502C79.7178 111.998 77.6573 112.765 77.1818 112.675C76.7063 112.585 76.1253 113.532 75.5968 113.351C75.0683 113.171 74.1703 113.396 73.5373 113.9C72.9043 114.405 73.9058 114.253 74.4873 114.343C75.0683 114.433 74.4873 114.974 73.5373 114.974C72.5873 114.974 72.3738 113.666 71.7398 113.937C71.1058 114.207 71.3698 115.244 70.9998 115.468C70.6298 115.692 69.8903 115.515 69.1508 115.47C68.4113 115.425 67.8828 116.236 67.1428 116.372C66.4033 116.507 66.5618 117.454 66.0333 118.04C65.5048 118.626 64.8708 118.175 63.9728 118.634C63.0748 119.094 61.6478 118.987 60.7498 118.941C59.8518 118.896 60.0628 119.663 59.5873 120.114C59.1118 120.565 57.1038 119.933 57.1038 119.933C57.1038 119.933 55.6773 119.302 55.3073 118.806C54.9373 118.31 53.5108 119.031 52.9828 119.166C52.4543 119.302 53.0358 120.699 52.3488 121.105C51.6618 121.511 53.3528 123.179 53.3528 123.945C53.3528 124.71 51.6618 123.991 50.9223 123.946C50.1828 123.901 51.5563 125.163 50.8168 125.479C50.0768 125.795 50.4998 126.426 51.0808 126.742C51.6618 127.057 51.4508 128.094 51.8072 128.199C52.1641 128.304 52.8243 128.365 53.4583 128.229C54.0923 128.094 54.6208 128.41 54.8318 129.086C55.0428 129.762 54.1978 129.537 53.7223 129.808C53.2468 130.078 52.4543 129.086 52.0843 129.086C51.7143 129.086 51.7143 129.898 52.0843 130.168C52.4543 130.439 52.0843 131.296 52.5068 131.431C52.9293 131.566 53.5108 131.16 53.9389 130.845C54.3669 130.529 55.4128 131.431 55.8358 131.521C56.2583 131.611 57.3153 130.529 58.1078 130.664C58.9003 130.799 59.2173 131.16 59.1643 131.476C59.1113 131.791 59.6398 132.422 60.3268 132.332C61.0138 132.242 60.8553 133.37 61.2248 133.865C61.5948 134.361 62.0703 134.361 62.0173 134.677C61.9643 134.993 61.1193 136.03 60.5908 136.12C60.0623 136.21 59.6479 137.063 59.6479 137.063C59.816 137.491 60.0058 137.901 60.7493 137.653C61.9643 137.247 62.0703 137.112 62.2288 136.481C62.3873 135.849 61.9648 135.173 62.9683 135.083C63.9723 134.993 64.7118 135.714 65.1873 135.308C65.6628 134.902 66.5083 134.857 67.1953 134.677C67.8823 134.496 67.3008 133.505 68.0933 133.73C68.8858 133.955 69.3613 134.025 70.3123 133.697C71.2633 133.37 71.0518 132.603 71.8443 132.873C72.4733 133.088 72.44 133.273 73.2163 133.206C72.7499 132.455 73.1244 130.748 72.4536 130.175C71.7777 129.598 71.3915 128.527 72.019 127.909C72.6464 127.291 72.4051 126.343 71.9226 125.643C71.4395 124.942 71.1502 123.047 71.8261 122.676C72.502 122.305 73.2264 122.099 73.2749 121.234C73.3233 120.369 74.192 119.998 74.6751 119.874C75.1582 119.751 76.2687 119.627 76.5579 119.874C76.8477 120.122 77.9097 120.702 77.9582 119.732C78.0066 118.762 78.3443 118.515 78.9238 118.103C79.5033 117.691 79.2136 116.867 79.9379 116.867C80.6623 116.867 82.6899 116.825 83.0761 116.454C83.4623 116.083 84.0968 116.372 84.9387 115.795C85.7802 115.218 85.8287 114.93 85.2492 114.971C84.6697 115.013 84.387 114.518 84.9387 114.518C85.4905 114.518 86.1664 114.93 86.3112 114.147C86.4561 113.364 86.3597 113.57 85.7802 113.776C85.2007 113.982 85.3456 113.076 85.8766 112.705C86.4077 112.334 88.0492 111.716 88.9668 111.057C89.8845 110.398 90.3671 110.068 91.2363 109.738C92.1056 109.409 91.8158 108.338 92.6851 107.967C93.5543 107.596 95.1473 106.277 95.9681 106.154C96.7889 106.03 96.7404 105.453 97.5132 104.629C98.2856 103.805 100.314 102.487 100.603 101.498C100.649 101.341 100.722 101.19 100.804 101.043C100.54 101.005 100.312 100.972 100.164 100.951Z" fill="url(#paint3_linear_367_106029)" stroke="white" stroke-width="0.5" stroke-miterlimit="10"/>
<path d="M85.7199 112.844C85.6797 112.886 85.643 112.931 85.6104 112.978" stroke="white" stroke-width="0.5" stroke-miterlimit="10"/>
<path d="M85.4473 113.306C85.4794 113.201 85.5322 113.091 85.6021 112.988C85.5317 113.091 85.4794 113.201 85.4473 113.306Z" fill="url(#paint4_linear_367_106029)" stroke="white" stroke-width="0.5" stroke-miterlimit="10"/>
<path d="M85.7432 112.82C85.7844 112.779 85.8287 112.739 85.8769 112.705C85.8282 112.739 85.7844 112.779 85.7432 112.82Z" fill="url(#paint5_linear_367_106029)" stroke="white" stroke-width="0.5" stroke-miterlimit="10"/>
<path d="M100.716 101.215C100.672 101.308 100.632 101.402 100.604 101.498C100.632 101.402 100.673 101.308 100.716 101.215Z" fill="url(#paint6_linear_367_106029)" stroke="white" stroke-width="0.5" stroke-miterlimit="10"/>
<path d="M115.806 85.6833C114.88 85.5076 115.446 84.9364 114.777 84.9803C114.108 85.0242 113.542 84.7606 113.49 84.3212C113.439 83.8819 112.975 83.9258 112.409 83.9698C111.842 84.0137 112.1 83.3546 110.916 83.0466C109.732 82.7382 108.085 81.8612 108.085 81.8612C108.085 81.8612 107.519 82.3006 107.673 82.696C107.827 83.0914 107.57 84.8485 106.746 84.9364C105.922 85.0242 106.386 84.3652 105.922 84.4531C105.459 84.5409 104.584 84.4531 104.018 84.2334C103.452 84.0137 103.349 84.7606 102.525 84.7167C101.701 84.6727 101.856 83.9258 102.062 83.4429C102.268 82.9596 101.341 82.5642 100.803 82.696C100.266 82.8278 99.4365 82.6081 98.4073 83.0466C97.3776 83.4852 96.7087 82.6081 96.3483 82.4035C95.9879 82.1989 95.782 82.5203 95.8334 83.0466C95.8849 83.573 94.0319 84.0581 93.1884 84.2773C92.3454 84.497 92.9506 85.4632 93.1561 85.9465C93.362 86.4298 92.5383 86.5177 91.7664 87.2202C90.9941 87.9232 91.5605 88.5818 91.2516 89.1091C90.9427 89.6363 89.8105 89.9878 89.0381 89.9878C88.2658 89.9878 87.4425 90.2515 87.1851 90.7348C86.9277 91.2181 86.6702 91.6135 86.0024 91.7014C85.3341 91.7892 85.6925 94.0735 85.5895 94.8205C85.4865 95.5674 86.0014 96.0068 86.5677 96.0942C87.1341 96.1821 88.1124 96.5336 88.1124 97.2805C88.1124 98.0274 87.3401 97.2366 86.5168 97.1487C85.693 97.0608 85.0691 96.1382 85.0691 96.1382C85.0691 96.1382 83.531 95.523 83.0162 95.7427C82.5013 95.9624 82.9132 97.0604 83.531 97.6316C84.1489 98.2028 84.7152 100.223 84.9398 100.751C85.1645 101.278 85.1781 103.035 84.3033 103.474C83.428 103.914 83.2226 105.056 82.1414 105.627C81.0601 106.198 80.042 108.487 80.042 108.487C81.0692 108.313 82.2019 108.03 82.2019 108.03L84.9398 107.309C84.9398 107.309 86.6869 106.858 86.0029 106.227C85.3189 105.596 85.2609 104.694 86.1614 104.739C87.0624 104.784 87.2734 106.092 87.8549 105.776C88.4365 105.46 88.9644 104.964 89.6514 105.19C90.3384 105.415 89.9155 104.243 90.497 103.837C91.078 103.431 91.448 103.972 91.9235 103.296C92.399 102.62 91.9764 101.673 92.6629 101.718C93.3499 101.763 94.3535 101.493 94.618 101.989C94.882 102.484 95.516 103.296 96.0445 103.206C96.573 103.116 97.788 103.702 98.2635 102.935C98.739 102.169 99.5315 100.864 100.165 100.951C100.313 100.972 100.541 101.005 100.804 101.044C101.242 100.257 102.126 99.6006 102.777 99.1496C103.549 98.6141 104.901 98.5314 105.625 97.7487C106.349 96.9661 108.715 96.5952 108.715 96.5952C108.715 96.5952 110.647 96.3066 110.936 95.6062C111.226 94.9058 112.095 94.2463 112.626 93.9995C113.157 93.7522 111.661 93.1341 112.626 92.7223C113.592 92.31 114.413 91.8982 114.123 91.5274C113.833 91.1565 112.723 91.486 113.302 91.1565C113.882 90.8269 113.93 90.3738 113.399 90.0029C112.868 89.632 112.771 88.4785 113.399 88.0662C114.027 87.6544 114.413 86.6654 115.571 86.8713C116.536 87.0428 116.365 86.9282 116.866 86.671C116.703 86.1718 116.408 85.797 115.806 85.6833Z" fill="url(#paint7_linear_367_106029)" stroke="white" stroke-width="0.5" stroke-miterlimit="10"/>
<path d="M55.4748 114.631C55.5718 115.043 55.5718 115.951 55.2628 116.364C54.9539 116.777 56.0553 116.818 56.3456 116.859C56.6358 116.901 56.1523 117.602 55.6202 117.685C55.0882 117.767 55.3078 118.805 55.3078 118.805C55.6778 119.301 57.1043 119.932 57.1043 119.932C57.1043 119.932 59.1118 120.563 59.5878 120.113C60.0633 119.662 59.8518 118.896 60.7503 118.941C61.6483 118.986 63.0753 119.093 63.9733 118.634C64.8713 118.174 65.5058 118.625 66.0338 118.039C66.5623 117.453 66.4038 116.506 67.1433 116.371C67.8828 116.236 68.4113 115.424 69.1513 115.469C69.8908 115.515 70.6308 115.691 71.0003 115.468C71.3703 115.244 71.1058 114.207 71.7403 113.936C72.3743 113.666 72.5883 114.973 73.5378 114.973C74.4878 114.973 75.0688 114.432 74.4878 114.342C73.9068 114.252 72.9053 114.404 73.5378 113.9C74.1708 113.395 75.0688 113.17 75.5973 113.35C76.1258 113.531 76.7068 112.584 77.1823 112.674C77.6578 112.764 79.7183 111.998 79.2428 111.502C78.7673 111.006 77.1823 110.735 76.9178 110.42C76.6538 110.104 76.3368 109.428 77.0233 109.382C77.306 109.364 77.5089 109.238 77.7224 109.093C77.7224 109.093 77.7224 108.482 77.7224 108.05C77.7224 107.619 77.5291 107.244 76.7552 106.955C75.9814 106.666 76.5135 106.377 76.0783 105.51C75.6432 104.644 74.9179 104.85 74.192 104.19C73.4666 103.529 72.6443 103.653 71.6772 103.529C70.71 103.406 70.8064 103.117 71.1815 102.373C71.5565 101.63 70.4198 101.754 70.8549 101.215C71.29 100.675 71.29 99.3608 70.8549 98.989C70.4198 98.6177 67.9529 98.8654 67.1791 99.0717C66.4053 99.2781 65.6799 99.4017 64.6159 98.7827C63.5518 98.1637 63.6972 97.5034 62.7295 97.7097C61.7623 97.916 61.8108 97.2557 60.9401 97.297C60.0693 97.3384 61.3752 99.0717 60.6983 99.3194C60.0214 99.5671 59.6827 100.723 59.6827 100.723C59.6827 100.723 58.6186 100.269 58.1512 100.475C57.6837 100.681 58.0866 101.672 58.135 102.126C58.1835 102.58 58.1835 103.488 57.2163 103.859C56.2492 104.23 56.8292 105.18 56.442 105.428C56.0543 105.675 56.6358 106.748 56.0074 107.202C55.3784 107.656 56.2492 107.739 56.1523 108.275C56.0553 108.812 55.6687 109.266 55.3784 109.637C55.0882 110.009 56.3456 110.174 56.4329 110.463C56.5202 110.752 55.9589 111.04 55.2088 111.412C54.4587 111.783 55.1851 112.155 55.2088 112.91C55.232 113.664 55.3779 114.218 55.4748 114.631Z" fill="url(#paint8_linear_367_106029)" stroke="white" stroke-width="0.5" stroke-miterlimit="10"/>
<path d="M61.2241 133.864C60.8541 133.368 61.0126 132.241 60.3261 132.331C59.6391 132.421 59.1106 131.79 59.1636 131.474C59.2166 131.158 58.8996 130.798 58.1071 130.663C57.3146 130.527 56.2576 131.609 55.8351 131.519C55.4126 131.429 54.3661 130.527 53.9381 130.843C53.51 131.159 52.9291 131.565 52.5061 131.429C52.0836 131.294 52.4531 130.437 52.0836 130.167C51.7136 129.896 51.7136 129.085 52.0836 129.085C52.4536 129.085 53.2461 130.077 53.7216 129.806C54.1971 129.536 55.0426 129.761 54.8311 129.085C54.6196 128.408 54.0916 128.093 53.4576 128.228C52.8236 128.363 52.1633 128.302 51.8064 128.197C51.4496 128.093 51.6611 127.056 51.0801 126.74C50.4991 126.424 50.076 125.793 50.8161 125.478C51.5556 125.162 50.1821 123.899 50.9216 123.945C51.6611 123.99 53.3521 124.709 53.3521 123.943C53.3521 123.178 51.6611 121.509 52.3481 121.104C53.0351 120.698 52.4536 119.3 52.9821 119.165C53.5106 119.03 54.9371 118.308 55.3066 118.804C55.3066 118.804 55.087 117.766 55.619 117.684C56.1511 117.601 56.6346 116.9 56.3444 116.859C56.0541 116.817 54.9527 116.776 55.2616 116.363C55.5706 115.951 55.5706 115.043 55.4736 114.63C55.3767 114.217 55.2313 113.664 55.2071 112.909C55.1834 112.153 54.457 111.782 55.2071 111.41C55.9572 111.039 56.5185 110.75 56.4312 110.461C56.3439 110.172 55.0865 110.007 55.3767 109.636C55.667 109.264 56.0536 108.81 56.1505 108.274C56.2475 107.737 55.3767 107.655 56.0057 107.201C56.3893 106.924 56.3227 106.417 56.3 106.007C55.6518 105.811 55.4974 105.367 55.2505 105.247C54.8841 105.068 53.8361 105.694 53.9376 106.052C54.0391 106.409 52.8932 107.169 52.2123 107.303C51.5313 107.437 50.9029 108.555 50.065 108.784C49.227 109.013 50.0649 109.627 49.4365 109.94C48.808 110.253 48.6506 110.074 48.5461 110.56C48.4416 111.046 47.4462 110.79 46.1615 111.013C44.8769 111.237 44.7229 110.343 44.1464 110.611C43.5705 110.879 44.3559 112.309 44.1464 112.909C43.937 113.508 42.994 112.846 42.3656 113.145C41.7371 113.444 41.0562 113.248 40.5322 113.145C40.0083 113.042 40.0083 113.606 39.5373 113.829C39.0664 114.053 38.4899 114.321 37.8614 114.857C37.233 115.394 36.8665 114.679 36.2563 114.857C35.646 115.036 35.0332 116.243 35.5047 116.467C35.9761 116.69 36.4996 117.629 36.1331 117.986C35.7666 118.344 35.8711 119.461 35.1902 119.336C34.5092 119.211 34.5092 119.73 34.1953 120.275C33.8808 120.82 33.4098 120.177 32.6239 119.336C32.3735 119.069 32.0272 119.021 31.6719 119.08C31.7461 119.172 31.8051 119.292 31.8344 119.456C32.0101 120.43 32.054 121.553 32.844 122.34C33.634 123.126 34.6435 124.25 34.4678 124.587C34.2922 124.924 34.6435 125.111 34.9943 125.598C35.3456 126.085 35.0822 126.197 35.3896 126.535C35.697 126.872 35.697 128.483 35.8721 128.932C36.0478 129.381 37.3203 131.254 37.2769 132.153C37.233 133.052 37.8034 135.711 38.1986 136.685L38.3859 137.062C39.3243 137.077 40.349 137.196 40.8295 137.606C41.8335 138.463 41.305 138.869 41.939 139.275C42.573 139.68 42.7845 140.627 43.9995 140.898C45.2145 141.168 46.5143 141.755 46.5143 141.755L47.798 142.828C47.9489 142.743 48.1044 142.728 48.2796 142.837C48.8605 143.197 49.7429 143.738 50.2265 143.197C50.71 142.656 51.291 141.935 51.9256 142.25C52.5596 142.566 52.8766 141.51 53.7221 142.173C54.5676 142.837 54.4616 142.07 55.1486 141.709C55.8356 141.349 56.8396 140.763 56.4166 140.492C55.9941 140.221 54.6201 140.582 54.9901 139.861C55.3601 139.139 56.4696 138.959 55.9411 138.463C55.4126 137.967 55.2011 137.336 56.2051 137.201C57.2091 137.065 56.4691 135.983 57.4201 136.209C58.3711 136.434 58.6356 136.073 59.2166 136.389C59.4422 136.512 59.5406 136.791 59.6476 137.062C59.6476 137.062 60.0621 136.209 60.5906 136.119C61.1191 136.029 61.9641 134.991 62.0171 134.676C62.0696 134.36 61.5941 134.36 61.2241 133.864Z" fill="url(#paint9_linear_367_106029)" stroke="white" stroke-width="0.5" stroke-miterlimit="10"/>
<path d="M95.8921 79.031C95.2627 78.6132 95.3323 76.7028 94.7029 76.3444C94.0734 75.986 92.604 74.6132 92.0447 74.1355C91.4849 73.6578 91.0655 74.1355 90.5753 74.6726C90.0857 75.2098 88.9661 74.9113 88.1267 74.5223C87.2872 74.1329 87.847 75.0905 87.1474 75.389C86.4478 75.6875 84.6987 75.1504 84.1647 75.3295C83.6306 75.5087 82.3899 75.1504 81.6908 74.6726C80.9911 74.1949 80.5712 74.9712 81.0613 75.389C81.5509 75.8068 80.9911 76.4039 80.6413 76.8217C80.2915 77.2395 81.9007 77.4786 82.5302 77.1801C83.1596 76.8816 83.9294 77.8964 84.1394 78.4336C84.3494 78.9707 83.2298 79.9261 82.1804 80.4038C81.1309 80.8816 81.5509 82.135 80.8513 82.6726C80.1517 83.2098 79.1724 82.5533 78.4026 83.0452C77.6333 83.5376 77.913 84.1053 77.1432 84.7023C76.3734 85.2994 76.7232 85.7172 76.5324 86.2544C76.3411 86.7915 75.8141 86.5529 75.6127 88.0454C75.4113 89.538 74.7647 89.2989 74.4149 89.5974C74.0651 89.896 73.7854 90.4331 74.1352 91.09C74.485 91.7469 74.9747 92.3435 74.7021 92.7019C74.4295 93.0603 74.9747 94.493 74.4149 94.7915C73.8551 95.09 73.7153 95.4484 74.3447 95.7465C74.9742 96.045 73.9248 96.9405 74.7016 97.2938C75.4785 97.647 75.744 98.6717 76.3032 99.0297C76.863 99.3881 76.3033 100.283 75.6122 100.283C74.9212 100.283 74.4845 100.582 73.7148 100.945C72.945 101.308 73.6446 101.895 73.2251 102.313C72.9854 102.552 72.9056 103.16 72.8809 103.638C73.3528 103.698 73.7874 103.82 74.1913 104.188C74.9166 104.848 75.642 104.642 76.0776 105.508C76.5127 106.375 75.9807 106.664 76.7545 106.953C77.5283 107.242 77.7217 107.617 77.7217 108.048C77.7217 108.48 77.7217 109.091 77.7217 109.091C77.6909 109.112 77.6601 109.131 77.6298 109.151C77.9635 108.935 78.2936 108.643 78.9776 108.614C79.2698 108.602 79.6479 108.551 80.0406 108.484C80.0406 108.484 81.0587 106.195 82.14 105.624C83.2212 105.053 83.4267 103.911 84.302 103.472C85.1772 103.032 85.1636 101.275 84.9385 100.748C84.7138 100.221 84.1475 98.2001 83.5297 97.6289C82.9118 97.0577 82.4999 95.9597 83.0148 95.74C83.5296 95.5203 85.0677 96.1355 85.0677 96.1355C85.0677 96.1355 85.6916 97.0581 86.5154 97.146C87.3392 97.2339 88.111 98.0247 88.111 97.2778C88.111 96.5309 87.1328 96.1798 86.5664 96.0915C86 96.0036 85.4852 95.5643 85.5881 94.8178C85.6911 94.0708 85.3327 91.7865 86.001 91.6987C86.6694 91.6108 86.9268 91.2154 87.1837 90.7321C87.4412 90.2488 88.265 89.9851 89.0368 89.9851C89.8091 89.9851 90.9413 89.6336 91.2502 89.1064C91.5591 88.5791 90.9928 87.9201 91.7651 87.2175C92.5374 86.5145 93.3607 86.4267 93.1547 85.9438C92.9488 85.4605 92.3436 84.4943 93.187 84.2746C94.03 84.0549 95.883 83.5699 95.8321 83.0439C95.7806 82.5176 95.9865 82.1962 96.3469 82.4008C96.3469 82.4008 95.8911 81.5966 96.4509 81.1788C97.0107 80.7609 97.5705 80.7609 97.5705 80.0446C97.571 79.33 96.5216 79.4493 95.8921 79.031Z" fill="url(#paint10_linear_367_106029)" stroke="white" stroke-width="0.5" stroke-miterlimit="10"/>
<path d="M76.9913 110.485C76.9616 110.463 76.9359 110.442 76.918 110.42C76.9359 110.442 76.961 110.463 76.9913 110.485Z" fill="url(#paint11_linear_367_106029)" stroke="white" stroke-width="0.5" stroke-miterlimit="10"/>
<path d="M77.3141 109.316C77.2906 109.324 77.2677 109.334 77.2432 109.341" stroke="white" stroke-width="0.5" stroke-miterlimit="10"/>
<path d="M77.5189 109.22C77.4933 109.235 77.4671 109.249 77.4404 109.263C77.4666 109.249 77.4933 109.235 77.5189 109.22Z" fill="url(#paint12_linear_367_106029)" stroke="white" stroke-width="0.5" stroke-miterlimit="10"/>
<path d="M76.302 99.0305C75.7422 98.6721 75.4767 97.6478 74.7004 97.2945C73.9235 96.9413 74.9729 96.0458 74.3435 95.7473C73.714 95.4488 73.8538 95.0904 74.4136 94.7923C74.9734 94.4938 74.4283 93.0611 74.7009 92.7027C74.9734 92.3443 74.4838 91.7477 74.134 91.0908C73.7842 90.4339 74.0638 89.8968 74.4136 89.5982C74.4767 89.5444 74.5504 89.5078 74.6287 89.4755C73.9881 88.8629 73.079 88.0497 72.6394 87.9248C71.9211 87.7206 71.6818 88.3336 70.6041 88.1289C69.5269 87.9248 69.7061 87.9756 68.8682 88.2823C68.0302 88.5886 68.1499 87.8735 67.0903 87.3631C66.0303 86.8522 65.6361 88.1802 64.1399 88.3848C62.6432 88.589 62.3444 88.589 61.5661 88.2827C60.7882 87.976 60.9078 88.3335 60.2491 88.7423C59.5909 89.1511 58.3335 88.6911 57.2972 88.6911C56.2608 88.6911 55.5203 88.7423 55.7 88.1802C55.8797 87.6185 56.538 88.1294 57.1366 87.8739C57.7353 87.6185 56.538 86.6993 55.5804 86.4947C54.6228 86.2905 54.3235 87.261 53.4255 87.2097C52.5275 87.1585 51.8693 88.3336 51.3307 89.202C50.7921 90.0704 50.2535 89.8149 49.1758 89.7744C48.0986 89.7339 47.4399 90.0195 47.5595 89.2532C47.6791 88.4869 47.4399 88.334 46.0033 88.2827C44.5667 88.2315 43.6687 88.6915 42.7712 87.8231C41.8732 86.9547 39.2398 86.9547 39.2398 86.9547C39.2398 86.9547 38.7607 86.0355 38.5815 85.5246C38.4018 85.0137 37.8632 84.7074 37.2646 85.1158C36.6659 85.5246 36.1273 85.0137 35.3489 84.8604C34.5706 84.707 34.3914 85.933 33.9724 86.5972C33.5535 87.2614 34.8103 87.721 35.2293 87.6698C35.6483 87.6185 36.4267 87.3635 36.7855 87.6698C37.1449 87.976 35.3489 88.2827 34.4873 88.3848C33.6251 88.4869 33.5535 89.0999 33.1345 89.1511C32.7155 89.2024 34.2117 90.7858 34.4514 91.2455C34.6907 91.7051 33.6731 92.1138 33.1946 92.4201C32.7155 92.7264 32.2966 92.2668 31.6727 92.1134C31.0488 91.9601 31.2789 93.9523 30.8004 94.4632C30.3214 94.9741 29.6631 94.5653 29.3638 94.1569C29.2053 93.9407 28.4123 93.497 27.6991 93.1261C27.645 93.1821 27.59 93.233 27.5345 93.276C27.0953 93.6133 27.5784 94.7367 27.3149 95.149C27.0514 95.5612 26.3493 96.4223 26.5249 96.9094C26.7006 97.3962 27.3149 99.3066 27.2271 99.8308C27.1393 100.355 27.6223 101.666 27.5784 102.977C27.5345 104.288 27.7541 106.348 28.3245 107.022C28.8949 107.696 28.7197 108.82 29.0705 109.457C29.4218 110.094 29.597 111.255 29.3779 112.079C29.1584 112.903 29.5097 116.012 29.7293 116.498C29.9488 116.985 30.6071 117.734 30.5631 118.371C30.5268 118.901 31.3072 118.63 31.6732 119.082C32.0285 119.024 32.3748 119.071 32.6252 119.338C33.4111 120.178 33.8821 120.822 34.1965 120.277C34.5105 119.731 34.5105 119.213 35.1915 119.338C35.8724 119.463 35.7674 118.346 36.1344 117.988C36.5008 117.63 35.9774 116.692 35.5059 116.468C35.0345 116.245 35.6478 115.038 36.2575 114.859C36.8678 114.68 37.2343 115.395 37.8627 114.859C38.4912 114.323 39.0676 114.054 39.5386 113.831C40.0095 113.607 40.0101 113.044 40.5335 113.147C41.0575 113.25 41.7384 113.446 42.3669 113.147C42.9953 112.847 43.9382 113.509 44.1477 112.91C44.3572 112.311 43.5718 110.881 44.1477 110.613C44.7237 110.344 44.8781 111.239 46.1628 111.015C47.4474 110.791 48.4429 111.048 48.5474 110.562C48.6518 110.076 48.8093 110.255 49.4378 109.942C50.0662 109.629 49.2283 109.015 50.0662 108.785C50.9042 108.556 51.5326 107.439 52.2136 107.305C52.8945 107.171 54.0398 106.411 53.9389 106.054C53.8374 105.696 54.8848 105.07 55.2518 105.249C55.4986 105.369 55.6526 105.813 56.3012 106.008V106.01C56.2866 105.747 56.2901 105.524 56.4416 105.428C56.8292 105.18 56.2487 104.231 57.2159 103.859C58.183 103.488 58.183 102.58 58.1346 102.126C58.0861 101.672 57.6833 100.682 58.1507 100.475C58.6182 100.269 59.6822 100.723 59.6822 100.723C59.6822 100.723 60.0209 99.5672 60.6978 99.3195C61.3747 99.0718 60.0689 97.3385 60.9396 97.2971C61.8104 97.2558 61.7619 97.9161 62.7291 97.7098C63.6962 97.5035 63.5513 98.1638 64.6154 98.7828C65.6795 99.4018 66.4049 99.2782 67.1787 99.0718C67.9525 98.8655 70.4188 98.6178 70.8545 98.9891C71.2896 99.3604 71.2896 100.675 70.8545 101.215C70.4193 101.755 71.5556 101.631 71.181 102.374C70.8065 103.117 70.7096 103.405 71.6767 103.529C72.1058 103.584 72.5051 103.593 72.8817 103.64C72.9064 103.162 72.9861 102.554 73.2259 102.315C73.6459 101.897 72.9463 101.31 73.7155 100.947C74.4848 100.584 74.922 100.285 75.613 100.285C76.302 100.284 76.8618 99.3889 76.302 99.0305Z" fill="url(#paint13_linear_367_106029)" stroke="white" stroke-width="0.5" stroke-miterlimit="10"/>
<path d="M28.3283 83.5674C27.77 83.5674 27.1607 83.091 26.8053 83.6109C26.45 84.1308 26.9068 84.6507 26.9068 84.6507C26.9068 84.6507 27.719 84.4341 27.719 84.7373C27.719 85.0406 27.4146 84.8674 27.0592 85.2137C26.7039 85.5605 26.2975 86.2967 26.7549 86.3402C27.2117 86.3837 28.1258 86.167 27.9734 86.5133C27.8209 86.8601 27.0088 87.2499 27.1612 87.5097C27.3136 87.7694 26.8058 88.0296 26.7044 88.4629C26.6029 88.8963 26.7044 88.9829 27.2627 89.2426C27.821 89.5023 27.9224 89.9357 27.9224 90.4125C27.9224 90.8889 28.5317 91.7987 28.3792 92.1019C28.3792 92.1019 28.0688 92.739 27.6978 93.1254C28.411 93.4963 29.2046 93.9404 29.3625 94.1562C29.6619 94.565 30.3201 94.9734 30.7991 94.4625C31.2782 93.9516 31.0475 91.9598 31.6714 92.1127C32.2953 92.2661 32.7143 92.7257 33.1933 92.4194C33.6723 92.1127 34.69 91.7044 34.4502 91.2448C34.2109 90.7851 32.7143 89.2017 33.1332 89.1504C33.5522 89.0996 33.6239 88.4862 34.486 88.3841C35.3482 88.282 37.1437 87.9753 36.7843 87.6691C36.4254 87.3628 35.647 87.6178 35.2281 87.6691C34.8091 87.7203 33.5522 87.2603 33.9711 86.5965C34.3901 85.9322 34.5698 84.7067 35.3477 84.8597C35.5072 84.8911 35.6551 84.9389 35.7974 84.9893C35.8262 84.5142 35.8257 83.9727 35.7101 83.7014C35.4779 83.1569 36.1165 83.2064 36.3482 83.0453C36.5803 82.8842 35.6521 82.5133 35.3618 82.1171C35.0716 81.7212 36.2901 81.5726 37.2184 81.3249C38.1467 81.0772 38.0306 80.1369 37.6247 79.5424C37.2184 78.9484 37.0448 78.5026 36.4643 78.0076C35.8843 77.5127 36.0004 76.8687 35.2457 76.8687C34.4916 76.8687 33.215 76.5715 33.0989 75.6803C32.9828 74.789 31.9965 74.6404 32.0545 73.9387C32.1126 73.2366 31.3004 73.3038 30.7199 73.1556C30.1394 73.007 31.0101 71.5713 30.4296 71.0764C29.8496 70.5814 28.457 70.9773 27.5867 70.7792C26.7165 70.581 25.0921 69.8879 25.0921 69.8879C25.0921 69.8879 22.5975 69.4916 21.6692 69.6402C21.2296 69.7104 19.9848 69.6252 18.7945 69.5162C18.7592 69.5756 18.7213 69.6351 18.6724 69.6949C18.2024 70.2739 18.3594 70.096 18.6204 70.6301C18.8813 71.1647 18.6724 71.2982 17.6285 71.5209C16.5846 71.7436 15.4882 72.0555 15.5407 71.0755C15.5927 70.0955 14.9143 70.363 14.7058 70.6301C14.4969 70.8972 12.6701 71.3874 12.6701 71.3874C12.6701 71.3874 11.0124 72.1446 10.6146 71.7884C10.2168 71.4322 9.64241 70.4078 8.49404 70.7193C7.34568 71.0307 6.40628 70.7636 5.72786 70.5857C5.04944 70.4074 4.84047 70.6749 4.63199 71.343C4.42301 72.0111 3.7971 72.5013 2.96169 72.323C2.12628 72.1446 1.38021 72.41 1.39586 72.8127C1.42009 73.4287 1.47057 73.7755 1.1152 74.0352C0.759841 74.2954 1.31813 74.4686 1.72447 74.2954C2.13082 74.1222 2.28275 73.3856 2.63812 73.4722C2.99348 73.5588 2.99348 72.9958 3.70421 72.9092C4.41493 72.8226 5.37957 72.7361 4.82128 73.0393C4.263 73.3426 4.26301 73.6023 3.5013 73.8625C2.73959 74.1222 2.33374 74.1657 2.38422 74.5125C2.4352 74.8593 3.1964 75.3357 3.29786 75.9857C3.39932 76.6357 3.65323 77.1121 4.66884 77.4589C5.68395 77.8056 6.64857 79.1918 7.51174 79.0186C8.37491 78.8455 8.27345 79.1918 9.79636 79.0621C11.3193 78.932 11.0654 78.5422 11.9795 78.4987C12.8932 78.4552 12.9442 78.0654 12.9442 77.632C12.9442 77.1987 13.3505 76.6357 14.1117 77.0255C14.8734 77.4154 15.4317 76.8954 15.8885 77.1121C16.3453 77.3288 16.5483 77.7621 15.6856 78.0219C14.8224 78.282 14.6195 78.4983 14.3656 78.9316C14.1117 79.365 13.9593 78.5418 13.5534 78.8881C13.1471 79.2349 13.0456 80.9243 12.4364 80.9243C11.8271 80.9243 11.4717 80.3178 11.1673 80.621C10.863 80.9243 10.0503 81.5308 9.84735 81.3141C9.64443 81.0975 9.28906 80.9674 9.1876 81.3141C9.08614 81.6609 8.37543 81.4442 7.76616 81.6174C7.1569 81.7905 6.3447 82.0705 6.14178 81.8004C5.93886 81.5304 6.09079 81.0539 5.93886 80.9239C5.78641 80.7938 5.53252 80.7507 5.22813 81.0539C4.92375 81.3572 4.61887 82.7438 5.98984 83.5235C7.36082 84.3031 9.64494 86.5995 10.1023 87.1625C10.5591 87.7255 13.3515 90.2816 13.9608 90.6718C14.57 91.0617 16.2454 91.1483 17.7178 90.7149C19.1903 90.2816 20.8146 89.5885 21.2715 89.7186C21.7283 89.8487 22.8964 89.1551 23.3532 88.8519C23.81 88.5486 23.2007 88.4186 23.861 88.0722C24.5207 87.7255 25.0795 86.6426 24.7746 86.3828C24.4702 86.1231 24.5717 85.2999 23.9624 85.5161C23.3532 85.7328 22.6934 85.1694 23.1502 85.0828C23.6071 84.9962 24.0639 85.0828 24.0639 84.8226C24.0639 84.5629 23.81 84.2161 24.3178 84.086C24.8256 83.9559 24.4193 82.9161 25.13 82.7429C25.8407 82.5698 25.3329 83.2629 25.8917 83.2193C26.45 83.1758 27.77 83.0858 28.3288 83.0445C28.887 83.0044 28.887 83.5674 28.3283 83.5674Z" fill="url(#paint14_linear_367_106029)" stroke="white" stroke-width="0.5" stroke-miterlimit="10"/>
<path d="M87.249 71.6717C87.249 71.6717 87.9709 70.8244 87.249 70.5935C86.5272 70.3626 85.8952 70.5552 85.2249 70.7089C84.5545 70.8631 84.3163 69.8233 83.6394 69.517C82.9625 69.2108 82.8272 68.5913 82.015 68.8037C81.2028 69.0161 79.7137 68.5142 79.0368 68.5142C78.3599 68.5142 78.5856 68.9377 78.4952 69.2073C78.4049 69.477 77.0061 69.477 76.5548 69.2844C76.1036 69.0919 75.9683 68.5913 75.6523 68.2062C75.3363 67.8212 75.0657 68.6297 74.8401 68.9764C74.6145 69.3232 73.4863 69.2461 72.8801 68.9764C72.2738 68.7068 74.569 68.1291 74.5241 67.8212C74.4792 67.5132 74.2985 67.5903 73.3959 67.4744C72.4934 67.3589 72.5838 67.0122 71.9972 67.2047C71.4107 67.3973 70.7337 67.8207 70.1018 68.5526C69.4703 69.2844 70.0114 68.0904 69.3345 67.8978C68.6576 67.7053 68.8832 68.5526 67.9807 68.5138C67.0782 68.4755 68.432 67.4356 67.7101 67.3202C66.9883 67.2047 66.9429 67.8591 66.4018 68.1675C65.8601 68.4755 65.5896 67.5127 64.9576 67.5127C64.3256 67.5127 65.3639 66.4346 65.1383 66.0878C64.9127 65.741 64.687 66.0878 64.371 66.3575C64.055 66.6271 63.6941 66.5883 63.2429 66.7809C62.7916 66.9734 64.1005 69.1686 63.739 69.7458C63.3781 70.3234 65.4538 72.1334 65.6794 72.5185C65.9051 72.9036 65.3185 73.5584 64.6416 73.0191C63.9647 72.4798 63.7845 73.25 63.1525 72.7494C62.521 72.2489 62.205 72.2872 61.4378 72.5569C60.6705 72.8265 61.1218 70.1692 61.0314 69.3607C60.9411 68.5521 62.0692 68.0512 61.5276 67.5123C60.986 66.973 61.6629 66.0107 62.4302 65.7794C63.1974 65.5485 64.2802 65.5485 64.4155 64.8554C64.5507 64.1623 65.5436 63.1996 65.8142 62.699C66.0848 62.1985 66.2655 60.5427 65.8142 60.0034C65.3629 59.4641 63.9188 58.8098 63.9188 58.8098C63.9188 58.8098 62.0233 58.6172 61.3918 58.8098C60.7604 59.0023 59.6771 59.8879 59.0002 60.5039C58.3233 61.1199 56.7439 61.3124 56.7439 61.3124C56.7439 61.3124 55.3451 62.2368 53.9913 63.0454C52.6375 63.8539 52.2311 63.8156 51.5123 64.0081C50.7935 64.2007 51.0126 64.8166 50.4261 65.3943C49.8395 65.9719 51.0126 67.0501 51.5123 67.3969C52.0121 67.7436 53.9009 66.6267 54.3068 66.4729C54.7131 66.3187 55.751 67.1276 55.751 67.6282C55.751 68.1287 54.5778 68.2058 53.8555 68.1287C53.1337 68.0516 53.5395 68.5521 52.9081 69.0527C52.2766 69.5532 53.1786 70.208 53.5849 70.208C53.9913 70.208 54.5778 71.517 53.5849 71.6329C52.592 71.7488 52.9984 72.8653 52.953 73.3628C52.908 73.8608 52.1857 73.25 51.5123 72.942C50.839 72.634 49.2979 73.0191 48.5761 72.9036C47.8542 72.7882 48.4857 74.2898 47.5832 74.5211C46.6806 74.752 46.771 74.752 45.7331 75.1759C44.6953 75.5993 44.1537 74.637 44.56 74.136C44.9664 73.6355 45.9138 74.0977 46.4943 73.9396C47.0748 73.7815 46.41 72.211 46.4555 71.6333C46.5004 71.0557 46.5908 70.2472 46.1395 69.7466C45.6882 69.2461 44.8311 70.2859 44.0184 70.3626C43.2062 70.4397 44.56 68.3988 44.0184 67.9366C43.4768 67.4744 42.8902 68.861 42.1684 69.3615C41.4466 69.8621 41.7171 68.553 41.1306 68.861C40.544 69.169 40.6793 70.4785 40.7247 71.0174C40.7697 71.5562 40.8151 72.7886 41.176 73.0199C41.5369 73.2508 41.492 74.2523 40.8196 74.5603C40.1473 74.8683 40.7248 75.9465 40.8151 76.447C40.9055 76.9476 39.5966 76.9863 39.0554 77.4481C38.5138 77.9103 39.5516 77.9874 39.0554 78.6073C38.5592 79.2275 37.0166 78.6073 37.0166 78.6073C37.2256 78.8946 37.3856 79.1931 37.6249 79.5433C38.0313 80.1373 38.1469 81.0781 37.2186 81.3258C36.2903 81.5734 35.0717 81.722 35.362 82.1179C35.6522 82.5142 36.5805 82.8847 36.3483 83.0462C36.1161 83.2073 35.4781 83.1578 35.7103 83.7022C35.8259 83.9736 35.8264 84.5151 35.7976 84.9902C36.3478 85.1857 36.7875 85.4408 37.2635 85.116C37.8622 84.7072 38.4008 85.0139 38.5805 85.5247C38.7602 86.0356 39.2387 86.9549 39.2387 86.9549C39.2387 86.9549 41.8726 86.9549 42.7701 87.8233C43.6681 88.6917 44.5656 88.232 46.0022 88.2829C47.4388 88.3337 47.678 88.4871 47.5584 89.2534C47.4388 90.0197 48.097 89.7341 49.1747 89.7746C50.2524 89.8151 50.791 90.0705 51.3296 89.2021C51.8682 88.3337 52.5269 87.159 53.4244 87.2099C54.3224 87.2611 54.6218 86.2906 55.5793 86.4948C56.5369 86.699 57.7342 87.6187 57.1356 87.8741C56.5369 88.1295 55.8787 87.6187 55.699 88.1804C55.5193 88.7421 56.2598 88.6912 57.2961 88.6912C58.3324 88.6912 59.5893 89.1508 60.248 88.7425C60.9062 88.3337 60.7866 87.9762 61.565 88.2829C62.3433 88.5891 62.6427 88.5891 64.1388 88.385C65.6355 88.1808 66.0297 86.8528 67.0893 87.3632C68.1488 87.8741 68.0292 88.5891 68.8671 88.2824C69.705 87.9757 69.5253 87.9249 70.603 88.1291C71.6802 88.3333 71.92 87.7203 72.6383 87.9249C73.0779 88.0498 73.9875 88.8631 74.6276 89.4756C74.982 89.3296 75.4458 89.2685 75.6104 88.046C75.8118 86.5534 76.3388 86.792 76.5301 86.2549C76.7214 85.7177 76.3716 85.2999 77.1409 84.7029C77.9107 84.1058 77.6305 83.5381 78.4003 83.0458C79.1701 82.5538 80.1493 83.2103 80.849 82.6732C81.5486 82.136 81.1286 80.8821 82.178 80.4044C83.2275 79.9267 84.3466 78.9717 84.1371 78.4341C83.9271 77.8969 83.1578 76.8817 82.5279 77.1806C81.8984 77.4791 80.2892 77.2405 80.639 76.8222C80.9888 76.4044 81.5486 75.8073 81.059 75.3895C80.5693 74.9717 80.9888 74.1955 81.6884 74.6732C82.388 75.1509 83.6283 75.5088 84.1623 75.3301C84.6964 75.1509 86.4454 75.688 87.1451 75.3895C87.7609 75.1268 87.402 74.3544 87.8795 74.4384C87.769 73.7139 87.7387 73.0966 87.9255 72.9807C88.4227 72.6727 87.249 71.6717 87.249 71.6717Z" fill="url(#paint15_linear_367_106029)" stroke="white" stroke-width="0.5" stroke-miterlimit="10"/>
<path d="M126.676 57.122C126.338 56.5453 125.807 56.3803 125.372 56.7925C124.938 57.2043 124.793 57.1634 123.972 56.6275C123.151 56.0921 123.007 55.1854 122.523 55.4326C122.04 55.6799 123.248 54.32 122.62 54.1141C121.992 53.9082 122.282 52.6719 122.813 52.3424C123.344 52.0129 122.668 50.7357 122.089 50.4057C121.509 50.0762 121.172 49.7876 120.64 50.1585C120.109 50.5293 118.612 51.7652 118.419 52.3833C118.226 53.0014 118.371 54.5259 117.985 54.8145C117.598 55.1027 117.453 55.9267 117.888 56.174C118.323 56.4212 119.433 57.2452 119.24 57.7807C119.101 58.1653 118.79 58.6547 118.571 59.0686C118.999 59.3542 119.414 59.6532 119.438 59.7565C119.489 59.9736 119.031 60.5379 118.6 60.8416C118.169 61.1453 118.014 61.4494 117.303 61.8832C116.59 62.3174 117.811 63.7496 118.422 63.8797C119.032 64.0098 117.886 64.9648 117.886 64.9648C117.886 64.9648 117.811 66.0064 117.354 66.3971C116.896 66.7878 118.066 67.8728 117.862 68.3066C117.659 68.7404 117.862 69.8689 117.862 69.8689C117.862 69.8689 117.71 71.0406 117.506 71.5614C117.303 72.0822 115.981 72.9501 115.269 73.5144C114.557 74.0787 113.438 74.2523 112.848 73.9383C112.259 73.6243 112.37 74.3824 112.115 74.8162C111.861 75.2504 111.76 75.1634 110.844 75.337C109.928 75.5105 109.928 75.9447 109.457 76.5956C108.986 77.2465 108.555 76.2919 108.148 76.0748C107.742 75.8577 107.487 76.0313 107.08 76.3785C106.673 76.7257 107.029 76.7257 106.318 77.3766C105.605 78.0274 106.572 78.5052 107.182 78.5917C107.793 78.6787 108.098 79.156 108.505 79.3296C108.912 79.5032 109.674 79.243 110.234 79.3296C110.793 79.4166 110.031 80.1541 110.234 80.5883C110.438 81.0221 111.251 81.1957 111.658 81.3697C112.065 81.5433 113.133 82.8454 112.777 83.044C112.421 83.243 111.925 83.6777 111.925 83.6777C112.06 83.8556 112.146 83.9878 112.409 83.9671C112.976 83.9232 113.439 83.8793 113.49 84.3186C113.542 84.758 114.108 85.0216 114.778 84.9777C115.447 84.9337 114.881 85.5049 115.807 85.6807C116.408 85.7944 116.703 86.1692 116.866 86.6684C116.967 86.6167 117.092 86.5598 117.262 86.4978C118.276 86.1269 119 86.3328 119.434 85.4265C119.869 84.5202 120.062 84.4375 120.4 84.0671C120.738 83.6962 119.724 82.9277 120.4 83.044C121.076 83.1603 121.414 83.6548 121.076 84.273C120.738 84.8911 120.931 85.1384 121.462 85.3443C121.993 85.5502 122.524 85.3856 122.959 84.6852C123.393 83.9848 123.055 83.4903 123.683 83.5316C124.31 83.573 123.828 84.4379 124.552 84.4379C125.277 84.4379 125.952 84.8497 126.049 84.273C126.145 83.6962 125.952 82.8721 125.518 82.4599C125.083 82.0477 125.083 80.8941 124.987 79.9055C124.89 78.917 124.456 78.5456 124.793 78.0516C125.132 77.5571 124.31 77.0216 123.876 77.1453C123.442 77.2689 124.166 76.1153 123.587 75.7854C123.007 75.4558 121.655 75.6617 122.09 74.7141C122.524 73.7664 124.021 73.3955 123.394 72.8188C122.766 72.242 123.345 70.7175 122.669 70.9234C121.993 71.1293 119.531 71.1293 119.338 70.223C119.144 69.3167 119.048 69.3167 119.338 68.7399C119.628 68.1632 119.338 68.0809 120.207 68.0395C121.076 67.9982 121.269 67.1332 121.318 66.721C121.366 66.3088 121.704 66.1442 122.38 66.2678C123.056 66.3915 123.442 66.7231 123.78 66.2278C124.118 65.7324 123.007 65.6497 123.152 65.1143C123.297 64.5788 122.717 64.4552 122.09 64.6198C121.462 64.7847 121.221 64.3312 120.641 63.878C120.062 63.4248 119.868 62.8481 119.337 62.9717C118.806 63.0953 118.033 62.5185 118.903 62.024C119.772 61.5295 119.579 61.5295 120.11 60.8705C120.641 60.211 120.206 59.2224 120.882 59.1811C121.558 59.1397 122.379 59.5933 122.234 60.2523C122.089 60.9114 122.234 61.5295 122.862 61.035C123.489 60.5405 123.779 58.9286 124.166 59.1785C124.552 59.4283 123.683 60.3346 124.6 60.6232C125.517 60.9118 125.469 62.024 126.29 61.6945C127.111 61.365 127.159 60.0878 127.932 60.4996C128.029 60.5517 128.122 60.603 128.209 60.6538C128.396 60.1145 128.594 59.4692 128.594 59.1487C128.594 58.5418 128.902 57.455 128.903 57.4529C127.95 57.5248 126.921 57.5399 126.676 57.122Z" fill="url(#paint16_linear_367_106029)" stroke="white" stroke-width="0.5" stroke-miterlimit="10"/>
<path d="M111.925 83.6783C111.925 83.6783 112.42 83.2433 112.777 83.0447C113.133 82.8457 112.065 81.5439 111.658 81.3703C111.251 81.1968 110.437 81.0232 110.234 80.589C110.03 80.1548 110.793 79.4169 110.234 79.3303C109.674 79.2437 108.911 79.5039 108.504 79.3303C108.098 79.1567 107.792 78.6794 107.182 78.5924C106.572 78.5054 105.605 78.0281 106.317 77.3772C107.029 76.7264 106.673 76.7264 107.08 76.3792C107.487 76.032 107.741 75.8584 108.148 76.0755C108.555 76.2926 108.985 77.2472 109.457 76.5963C109.928 75.9454 109.928 75.5112 110.843 75.3376C111.759 75.164 111.861 75.2506 112.115 74.8168C112.369 74.3826 112.258 73.6249 112.848 73.939C113.438 74.253 114.557 74.0794 115.268 73.5151C115.981 72.9508 117.303 72.0828 117.506 71.5621C117.709 71.0413 117.862 69.8696 117.862 69.8696C117.862 69.8696 117.658 68.741 117.862 68.3073C118.063 67.8778 116.924 66.813 117.341 66.412C117.126 66.2276 116.878 66.02 116.618 65.8132C115.882 65.2291 115.92 66.088 115.276 66.4542C114.633 66.8203 115.115 67.0034 114.204 67.3239C113.292 67.6443 113.453 68.4684 113.346 68.9719C113.238 69.4755 113.185 69.979 112.595 70.0247C112.004 70.0703 111.361 70.4365 110.556 70.2078C109.752 69.979 110.288 71.2149 109.591 71.7296C108.893 72.2444 109.43 70.62 108.571 70.62C107.713 70.62 107.391 69.796 107.391 69.796C107.391 69.796 106.479 69.3842 105.621 69.5672C104.763 69.7503 104.494 70.7117 103.475 70.7307C102.456 70.7497 102.349 71.261 101.705 71.7645C101.061 72.2681 100.632 71.6728 99.9348 71.2153C99.2377 70.7574 98.9691 71.6732 98.0575 72.1307C97.1453 72.5885 96.2872 71.1235 96.2872 71.1235C96.2872 71.1235 95.5361 70.5287 94.8925 70.8031C94.2489 71.0779 93.7659 71.3984 92.8542 71.0779C91.9421 70.7574 92.1031 71.3984 91.406 71.7188C90.7089 72.0393 91.6206 72.6803 91.406 72.909C91.1915 73.1378 91.138 73.9398 91.138 73.9398L91.0986 74.1496C91.3934 73.9148 91.6907 73.8347 92.0446 74.1362C92.6044 74.614 94.0733 75.9868 94.7027 76.3452C95.3322 76.7031 95.2625 78.6139 95.892 79.0318C96.5214 79.4496 97.5709 79.3303 97.5709 80.0466C97.5709 80.763 97.0111 80.763 96.4513 81.1808C95.8915 81.5986 96.3473 82.4029 96.3473 82.4029C96.7077 82.6075 97.377 83.4845 98.4063 83.046C99.4355 82.6075 100.265 82.8272 100.802 82.6954C101.34 82.5635 102.267 82.959 102.061 83.4423C101.855 83.9256 101.7 84.6721 102.524 84.716C103.348 84.76 103.451 84.013 104.017 84.2327C104.583 84.4524 105.458 84.5403 105.921 84.4524C106.385 84.3645 105.921 85.0236 106.745 84.9357C107.569 84.8478 107.826 83.0908 107.672 82.6954C107.518 82.2999 108.084 81.8605 108.084 81.8605C108.084 81.8605 109.731 82.7376 110.915 83.046C111.67 83.2424 111.839 83.5806 112.009 83.7895C111.982 83.7541 111.955 83.718 111.925 83.6783Z" fill="url(#paint17_linear_367_106029)" stroke="white" stroke-width="0.5" stroke-miterlimit="10"/>
<path d="M118.572 59.069C118.487 59.2306 118.412 59.3835 118.372 59.511C118.227 59.9641 117.793 59.8405 117.213 59.4287C116.634 59.0169 117.117 59.7582 116.006 59.9641C114.896 60.17 114.606 60.4173 113.93 60.0878C113.254 59.7582 113.013 59.346 111.709 59.7992C110.405 60.2523 110.019 60.17 108.764 59.5933C107.508 59.0165 106.591 59.0988 105.384 59.2637C104.177 59.4287 104.853 57.8216 104.128 57.9038C103.404 57.9861 103.018 58.8515 102.293 58.6456C101.569 58.4397 100.748 57.0389 99.7826 57.2448C98.8169 57.4507 97.61 57.4507 98.0925 56.8739C98.5751 56.2971 98.0441 55.1022 97.3197 55.2258C96.5954 55.3495 96.3056 54.2782 95.7267 54.4018C95.2875 54.4953 94.4607 55.2978 93.8332 55.4843C93.9463 55.8694 94.0765 56.2334 94.2068 56.4233C94.5642 56.9432 94.4077 57.8095 95.0679 57.853C95.7277 57.8965 96.5908 58.9794 96.5404 59.3262C96.4894 59.6729 95.8296 59.1961 95.2714 59.4994C94.7131 59.8026 94.865 59.8461 94.5606 60.1494C94.2562 60.4526 95.4743 60.8424 95.8296 61.1457C96.185 61.449 95.2204 61.2758 94.916 61.4925C94.6116 61.7091 95.1699 62.4022 95.6777 62.6624C96.1855 62.9221 97.4035 63.442 97.5716 63.7888C97.7392 64.1356 97.0992 64.5254 96.3884 64.5254C95.6777 64.5254 94.7636 65.0018 94.7636 65.0018C94.7636 65.0018 93.4945 65.7815 93.2406 66.2583C92.9867 66.7347 91.6667 67.3848 91.0989 67.7746C90.531 68.1644 90.9055 69.2908 91.4638 69.7677C91.7641 70.024 91.9757 70.6171 92.1074 71.1121C92.2583 70.9872 92.4491 70.935 92.8545 71.0776C93.7666 71.3981 94.2492 71.0776 94.8928 70.8028C95.5364 70.528 96.2875 71.1233 96.2875 71.1233C96.2875 71.1233 97.1456 72.5883 98.0577 72.1304C98.9698 71.6725 99.2379 70.7571 99.935 71.215C100.633 71.6729 101.062 72.2678 101.705 71.7642C102.349 71.2607 102.456 70.7498 103.475 70.7304C104.495 70.7115 104.763 69.75 105.621 69.567C106.479 69.3839 107.392 69.7957 107.392 69.7957C107.392 69.7957 107.714 70.6197 108.572 70.6197C109.43 70.6197 108.894 72.2445 109.591 71.7293C110.288 71.2146 109.752 69.9788 110.557 70.2075C111.361 70.4362 112.005 70.0701 112.595 70.0244C113.185 69.9788 113.238 69.4752 113.346 68.9717C113.453 68.4681 113.292 67.6441 114.204 67.3236C115.116 67.0031 114.633 66.82 115.277 66.4539C115.92 66.0878 115.882 65.2288 116.618 65.8129C116.878 66.0193 117.126 66.2273 117.342 66.4117C117.346 66.4069 117.349 66.4018 117.354 66.397C117.812 66.0063 117.886 64.9648 117.886 64.9648C117.886 64.9648 119.032 64.0098 118.422 63.8797C117.812 63.7496 116.591 62.3173 117.303 61.8831C118.015 61.4489 118.17 61.1453 118.601 60.8416C119.032 60.5379 119.49 59.9736 119.439 59.7565C119.415 59.6531 119 59.3546 118.572 59.069Z" fill="url(#paint18_linear_367_106029)" stroke="white" stroke-width="0.5" stroke-miterlimit="10"/>
<path d="M36.465 78.0073C36.7032 78.2106 36.8718 78.4062 37.0172 78.6065C37.0172 78.6065 38.5593 79.2267 39.056 78.6065C39.5522 77.9862 38.5143 77.9091 39.056 77.4473C39.5976 76.9851 40.906 76.9468 40.8156 76.4462C40.7253 75.9457 40.1478 74.8675 40.8202 74.5595C41.4925 74.2515 41.538 73.25 41.1765 73.0191C40.8156 72.7882 40.7702 71.5559 40.7253 71.0166C40.6798 70.4777 40.5446 69.1682 41.1311 68.8602C41.7177 68.5522 41.4471 69.8613 42.1689 69.3607C42.8908 68.8602 43.4773 67.4736 44.0189 67.9358C44.5606 68.398 43.2068 70.4389 44.0189 70.3618C44.8311 70.2847 45.6887 69.2453 46.14 69.7458C46.5913 70.2464 46.5009 71.0553 46.456 71.6325C46.4111 72.2102 47.0754 73.7807 46.4949 73.9388C45.9144 74.0969 44.9669 73.6347 44.5606 74.1352C44.1547 74.6358 44.6959 75.5985 45.7337 75.1751C46.7715 74.7516 46.6811 74.7516 47.5837 74.5203C48.4862 74.2894 47.8542 72.7874 48.5766 72.9028C49.2984 73.0183 50.839 72.6332 51.5129 72.9412C52.1867 73.2492 52.9086 73.8595 52.9535 73.362C52.9989 72.8641 52.5926 71.7475 53.5855 71.6321C54.5784 71.5167 53.9918 70.2072 53.5855 70.2072C53.1791 70.2072 52.2771 69.5524 52.9086 69.0519C53.5406 68.5513 53.1342 68.0508 53.856 68.1279C54.5779 68.205 55.7515 68.1279 55.7515 67.6274C55.7515 67.1268 54.7137 66.3183 54.3073 66.4721C53.901 66.6259 52.0121 67.7428 51.5129 67.3961C51.0131 67.0493 49.84 65.9711 50.4266 65.3935C51.0131 64.8158 50.7936 64.1999 51.5129 64.0073C52.2317 63.8148 52.638 63.8531 53.9918 63.0446C55.3456 62.236 56.7444 61.3116 56.7444 61.3116C56.7444 61.3116 58.3238 61.1191 59.0007 60.5031C59.6776 59.8871 60.7604 59.0015 61.3924 58.809C61.4449 58.793 61.509 58.7805 61.5771 58.7693C61.458 58.4458 61.2177 58.1387 60.7362 58.0771C59.6479 57.938 59.5393 58.7271 58.9407 58.4949C58.342 58.2628 58.1244 58.4484 57.5258 58.7232C56.9271 58.9976 57.3082 58.2628 57.7257 57.6593C58.1431 57.0558 56.9271 57.1949 57.4712 56.8236C58.0154 56.4523 57.6343 55.6627 56.8181 55.5236C56.0019 55.3845 55.8388 54.5484 55.7843 53.8996C55.7298 53.2509 55.6213 53.1092 54.9681 53.1092C54.3154 53.1092 54.1518 53.8523 53.5385 53.8988C52.9252 53.9453 53.4446 52.6914 53.2816 52.227C53.1186 51.7627 53.9343 51.3448 53.2816 50.9731C52.6284 50.6018 52.2478 51.7627 51.7037 52.0409C51.1595 52.3196 51.105 51.5301 50.7789 51.1587C50.4523 50.7874 49.7997 51.5301 49.5816 51.9944C49.364 52.4588 48.8744 53.0623 48.2212 52.8766C47.5685 52.6909 48.3848 51.2514 48.4933 50.787C48.6018 50.3226 47.0784 49.3939 46.4257 49.1152C45.773 48.8365 46.0446 47.8617 45.664 47.4435C45.2829 47.0257 45.664 46.0504 45.664 46.0504C45.664 46.0504 44.9568 44.843 44.1951 45.0752C43.4334 45.3074 42.8893 44.4717 42.2361 44.3787C41.5829 44.2856 40.6036 44.6574 40.7626 44.3787C40.9216 44.1 40.2225 43.3108 40.6036 42.893C40.9847 42.4752 40.6036 41.8717 40.277 41.7321C39.9504 41.593 40.114 40.8034 39.4063 40.9425C38.6991 41.0817 37.5563 40.3851 36.9576 40.3851C36.676 40.3851 35.5286 40.3851 34.3918 40.3851C34.3333 40.4131 34.2722 40.4398 34.2273 40.4743C33.7053 40.8753 34.0708 42.4342 33.1309 43.5034C32.191 44.5725 31.3561 45.8639 30.0513 46.2206C28.7464 46.5768 27.5455 47.1557 27.0761 48.2697C26.6061 49.3832 25.8757 48.9378 25.2493 50.0069C24.6229 51.076 24.9364 51.5214 23.4745 51.6993C22.0132 51.8777 20.2904 51.7437 19.7165 52.1447C19.1425 52.5458 17.5242 52.8128 17.6807 51.7437C17.8372 50.6746 17.3672 49.9173 16.5323 50.2292C15.6969 50.541 14.3401 51.12 14.3401 51.7881C14.3401 52.4562 14.0791 53.0799 12.6698 53.8815C11.2604 54.6832 10.4775 55.8415 10.634 56.6875C10.7905 57.5339 11.5734 58.0237 12.4088 58.0681C13.2442 58.1124 14.4966 58.1124 14.4446 58.9145C14.3926 59.7161 13.5572 61.0971 13.5572 61.0971C13.5572 61.0971 13.5052 61.8096 14.1311 62.5669C14.7575 63.3241 14.653 63.9922 15.8534 63.4577C17.0537 62.9231 17.1063 63.5468 16.8453 64.2149C16.5843 64.883 16.3753 65.462 17.2107 66.1301C18.0462 66.7982 17.5237 67.2436 18.2546 67.9117C18.9093 68.5104 19.0991 69.0019 18.7942 69.5145C19.9845 69.6235 21.2293 69.7088 21.6689 69.6386C22.5972 69.49 25.0918 69.8863 25.0918 69.8863C25.0918 69.8863 26.7162 70.5793 27.5864 70.7775C28.4567 70.9756 29.8493 70.5793 30.4293 71.0747C31.0098 71.5696 30.1391 73.0058 30.7196 73.154C31.2996 73.3026 32.1123 73.2354 32.0542 73.9371C31.9962 74.6392 32.9825 74.7878 33.0986 75.6786C33.2147 76.5699 34.4913 76.8671 35.2454 76.8671C36.0011 76.8684 35.885 77.5119 36.465 78.0073Z" fill="url(#paint19_linear_367_106029)" stroke="white" stroke-width="0.5" stroke-miterlimit="10"/>
<path d="M67.7935 46.9046C68.6547 47.5392 69.3987 47.7399 69.9076 47.506C70.4164 47.2721 71.0665 48.3184 71.591 47.9402C71.7399 47.8329 71.9433 47.7192 72.1584 47.6115C72.1447 47.5951 72.1271 47.5783 72.116 47.562C71.6813 46.9438 72.6954 46.1198 72.7434 45.4608C72.7918 44.8017 72.5501 43.9363 73.2744 43.6477C73.9988 43.3591 73.6606 42.041 74.4813 41.6288C75.3021 41.217 76.4126 39.9807 76.2677 39.5275C76.1229 39.0744 76.0265 38.2917 74.7226 38.2917C73.4188 38.2917 73.1295 37.2204 72.3083 36.9318C71.487 36.6432 70.5698 35.3251 69.3144 35.3251C68.0591 35.3251 67.1898 33.3061 66.6103 33.4298C66.3458 33.4862 66.0142 33.5797 65.7028 33.6249C65.8067 34.2538 65.779 34.9977 65.0526 34.9783C63.7997 34.9447 63.8391 34.2435 63.6039 34.0763C63.3692 33.9092 62.7428 33.9092 62.2728 34.2435C61.8029 34.5773 60.5111 34.1099 59.9241 34.4106C59.337 34.7113 59.9241 35.3126 59.2583 35.8803C58.593 36.4481 58.436 36.7823 58.7101 37.2501C58.9842 37.7179 59.1018 38.4528 58.3971 38.5532C57.6925 38.6535 57.9272 39.3216 57.9272 39.3216C57.9272 39.3216 59.6495 39.5219 59.3365 40.6247C59.023 41.727 58.8277 42.4954 58.8277 42.4954C58.8277 42.4954 59.493 43.8984 60.3546 43.7649C61.2158 43.6313 60.8559 42.7293 61.819 42.9964C62.7821 43.2635 62.9386 43.8829 63.7998 43.7739C64.6609 43.6649 65.5226 44.0655 65.2485 44.3662C64.9744 44.6669 64.2303 44.834 64.3091 45.0343C64.3873 45.2346 66.0707 45.4685 66.1884 46.0367C66.306 46.604 66.9324 46.2697 67.7935 46.9046Z" fill="url(#paint20_linear_367_106029)" stroke="white" stroke-width="0.5" stroke-miterlimit="10"/>
<path d="M62.442 26.434C62.8383 26.1562 63.6429 25.8917 64.1371 26.0886C64.92 26.4004 64.607 27.3356 65.5984 27.4691C66.5903 27.6027 66.7468 26.5783 67.6862 26.5335C68.6256 26.4887 69.2 25.7763 69.043 25.2865C68.8865 24.7967 67.7902 23.772 68.0511 23.1486C68.3121 22.5249 67.1637 22.0795 66.3808 22.2578C65.5979 22.4362 64.867 21.7233 65.4934 21.1443C66.1199 20.5654 66.5893 20.3427 65.9634 19.8081C65.337 19.2736 65.2325 18.4276 66.0154 18.2936C66.7983 18.1601 67.8946 19.0065 68.3121 18.2936C68.7295 17.5811 68.2601 16.2001 68.9385 15.9331C69.6169 15.666 71.4962 14.9531 71.6007 14.1067C71.7052 13.2602 72.1747 12.1915 72.5926 11.7461C73.0101 11.3007 73.271 9.69703 72.2797 9.3408C71.2878 8.98456 69.0435 7.87106 68.2081 7.69273C67.3732 7.51482 67.1118 8.27166 65.4939 8.09376C63.8756 7.91543 62.7278 8.40563 62.1013 8.98456C61.4749 9.56349 60.901 10.2316 59.3351 10.1424C57.7693 10.0533 56.8819 8.40519 55.7861 8.49436C54.6897 8.58353 54.3247 7.51439 54.1677 7.06899C54.0113 6.62359 53.2803 5.99986 52.2885 5.37656C51.2966 4.75282 50.0442 4.61929 48.8958 3.68412C47.7475 2.74852 46.8081 1.01172 46.0252 1.18962C45.2423 1.36795 44.7723 1.47607 43.52 1.1767C42.2671 0.877752 41.3277 0.92212 40.0229 1.59022C38.718 2.25832 38.718 2.43665 36.9957 2.43665C35.2734 2.43665 34.1771 2.48102 34.0726 2.88205C33.9681 3.28309 33.5506 4.03992 32.4543 4.44096C31.3584 4.84199 30.9929 5.64362 31.2014 6.26736C31.4104 6.89109 31.5669 7.24733 33.0282 7.20296C34.4895 7.15859 34.6985 8.62833 35.5859 9.16289C36.4733 9.69746 37.5172 9.87579 38.1436 10.811C38.77 11.7466 38.9265 12.8153 38.0391 13.3498C37.1517 13.8844 37.6217 14.419 36.4733 14.9979C35.3249 15.5768 36.3168 16.0222 36.3168 17.6703C36.3168 19.3184 35.7429 21.3675 36.3688 22.2583C36.9952 23.1491 38.0391 23.2826 38.822 24.0399C39.6049 24.7971 40.8578 25.109 41.5882 24.975C42.3191 24.8415 41.9012 25.554 42.2666 26.1777C42.6321 26.8015 44.5109 26.4896 45.1373 27.1133C45.3463 27.3214 45.4972 27.5643 45.588 27.8021C46.1408 27.756 46.6249 27.719 46.7637 27.719C47.1362 27.719 47.2604 26.9246 48.0049 26.8717C48.75 26.8187 48.9978 25.6005 48.6258 25.2826C48.2533 24.9647 49.0604 24.5408 49.9291 24.1174C50.7978 23.6936 51.2325 23.0052 51.9775 23.2697C52.7226 23.5346 53.5913 23.0578 54.1501 23.6936C54.7089 24.3293 56.6331 25.1766 56.6331 25.1766C56.6331 25.1766 58.0606 24.8587 58.9298 25.2826C59.799 25.7065 59.3644 26.8187 60.2331 26.5538C60.853 26.3647 61.7227 26.2053 62.442 26.434Z" fill="url(#paint21_linear_367_106029)" stroke="white" stroke-width="0.5" stroke-miterlimit="10"/>
<path d="M64.8255 33.4253C64.3459 32.7267 65.0244 31.39 64.5024 30.6332C63.9805 29.8759 63.0931 28.9851 62.8841 28.4062C62.6751 27.8272 62.8321 27.07 62.3102 26.8473C62.1174 26.765 62.2102 26.5979 62.4419 26.4355C61.7226 26.2067 60.8529 26.3661 60.2335 26.5548C59.3648 26.8197 59.7989 25.7075 58.9302 25.2836C58.0615 24.8598 56.6335 25.1777 56.6335 25.1777C56.6335 25.1777 54.7092 24.3304 54.1505 23.6946C53.5917 23.0588 52.7229 23.5356 51.9779 23.2707C51.2328 23.0058 50.7987 23.6946 49.9295 24.1184C49.0603 24.5423 48.2536 24.9657 48.6262 25.2836C48.9987 25.6015 48.7503 26.8197 48.0053 26.8727C48.0053 26.8727 48.0073 28.0814 47.6005 28.5328C47.1936 28.9838 48.0053 29.782 48.0053 29.782C48.0053 29.782 48.9018 30.6844 49.0239 31.6562C49.1461 32.628 49.8371 33.2173 50.6912 33.4258C51.5453 33.6343 52.3605 33.9121 52.0546 34.5018C51.7487 35.0919 52.1959 35.2655 53.2535 35.8552C54.311 36.4454 55.4089 37.4516 55.6936 38.0069C55.9783 38.5621 56.3871 39.1173 57.8909 38.9093L57.9201 38.9058C57.9676 38.749 58.0912 38.5974 58.3982 38.5539C59.1028 38.4535 58.9852 37.7187 58.7111 37.2509C58.437 36.7831 58.5935 36.4492 59.2593 35.8811C59.9251 35.3133 59.3375 34.7116 59.9251 34.4113C60.5122 34.1107 61.8044 34.5785 62.2738 34.2442C62.7438 33.9099 63.3702 33.9099 63.6049 34.0771C63.8397 34.2442 63.8008 34.9455 65.0536 34.9791C65.78 34.9985 65.8078 34.255 65.7038 33.6256C65.3328 33.6799 64.99 33.6653 64.8255 33.4253Z" fill="url(#paint22_linear_367_106029)" stroke="white" stroke-width="0.5" stroke-miterlimit="10"/>
<path d="M36.9952 39.8082C36.3274 40.1338 35.0144 40.0916 34.3936 40.3871C35.5303 40.3871 36.6782 40.3871 36.9593 40.3871C37.558 40.3871 38.7003 41.0837 39.408 40.9445C39.7588 40.8756 39.8951 41.0354 39.984 41.2306C40.5019 41.0057 41.0596 40.7847 41.3746 40.7248C42.0722 40.5922 43.0681 41.5273 43.0681 41.5273C43.0681 41.5273 44.3134 41.4425 44.214 42.08C44.1145 42.7175 43.8652 43.355 44.6123 43.0152C45.3593 42.6749 45.0105 41.4442 45.9075 41.9107C46.804 42.3772 47.2028 41.6992 47.9498 41.9107C48.6969 42.1222 49.4445 41.9521 49.5439 41.4421C49.6434 40.932 49.3945 39.7841 50.4904 39.9969C51.5863 40.2092 52.0845 40.3277 52.2839 39.971C52.4832 39.6144 51.985 38.4242 53.0809 38.3815C54.1768 38.3389 54.0274 37.4464 54.0274 37.4464L53.2545 35.8552C52.197 35.265 51.7498 35.0914 52.0557 34.5017C52.3616 33.9116 51.5464 33.6342 50.6923 33.4257C49.8382 33.2172 49.1467 32.6279 49.025 31.6562C48.9029 30.6844 48.0064 29.7819 48.0064 29.7819C48.0064 29.7819 47.1947 28.9838 47.6015 28.5328C48.0084 28.0813 48.0064 26.8726 48.0064 26.8726C47.2613 26.9256 47.1376 27.7199 46.7651 27.7199C46.6263 27.7199 46.1417 27.757 45.5895 27.8031C45.7707 28.2777 45.6955 28.7331 45.2432 28.8515C44.5648 29.0298 42.8945 29.0298 42.0591 29.5196C41.2237 30.0094 40.4408 30.5439 40.8062 31.1677C41.1717 31.7914 42.1636 32.5039 41.3282 32.6822C40.4933 32.8605 40.4933 33.6622 40.8582 34.0184C41.2237 34.3746 41.5366 35.8892 40.7017 35.5773C39.8663 35.2655 39.3444 35.9784 38.666 36.4681C37.9876 36.9579 38.5095 37.4037 37.7266 37.5816C36.9437 37.76 36.9437 38.2054 37.0482 38.5616C37.1516 38.9174 37.7256 39.452 36.9952 39.8082Z" fill="url(#paint23_linear_367_106029)" stroke="white" stroke-width="0.5" stroke-miterlimit="10"/>
<path d="M55.6941 38.0048C55.4094 37.4495 54.3115 36.4429 53.254 35.8531L54.0268 37.4444C54.0268 37.4444 54.1762 38.3369 53.0803 38.3795C51.9845 38.4222 52.4827 39.6124 52.2833 39.969C52.0839 40.3257 51.5857 40.2077 50.4898 39.9949C49.394 39.7825 49.6428 40.93 49.5434 41.44C49.4439 41.9501 48.6963 42.1202 47.9493 41.9087C47.2022 41.6972 46.8034 42.3752 45.907 41.9087C45.0105 41.4422 45.3593 42.6729 44.6117 43.0132C43.8646 43.353 44.1135 42.7155 44.2134 42.078C44.3129 41.4405 43.0676 41.5253 43.0676 41.5253C43.0676 41.5253 42.0711 40.5902 41.374 40.7228C41.0591 40.7827 40.5013 41.0041 39.9834 41.2285C40.0732 41.4267 40.1136 41.6619 40.2782 41.7321C40.6048 41.8712 40.9854 42.4751 40.6048 42.893C40.2237 43.3108 40.9233 44.1004 40.7638 44.3787C40.6048 44.6574 41.584 44.2856 42.2372 44.3787C42.8904 44.4717 43.434 45.3074 44.1963 45.0752C44.958 44.843 45.6652 46.0504 45.6652 46.0504C45.6652 46.0504 45.2841 47.0256 45.6652 47.4435C46.0458 47.8613 45.7742 48.8365 46.4269 49.1152C47.0801 49.3939 48.6035 50.3226 48.4944 50.787C48.3854 51.2514 47.5692 52.6909 48.2224 52.8766C48.8755 53.0622 49.3652 52.4588 49.5827 51.9944C49.8003 51.53 50.4535 50.787 50.7801 51.1587C51.1067 51.53 51.1612 52.3196 51.7048 52.0409C52.249 51.7622 52.6301 50.6013 53.2828 50.9731C53.9354 51.3444 53.1197 51.7627 53.2828 52.227C53.4458 52.6914 52.9264 53.9449 53.5397 53.8988C54.153 53.8523 54.3165 53.1092 54.9692 53.1092C55.4053 53.1092 55.5966 53.1768 55.6931 53.412C55.6931 53.412 57.0529 52.6117 56.9585 51.807C56.8642 51.0028 56.7465 50.118 56.6168 49.7157C56.4871 49.3134 55.6385 49.2333 55.4977 49.4745C55.3564 49.7157 55.0737 50.1581 54.8849 49.8363C54.6966 49.5145 54.1782 49.5249 53.5654 49.3388C52.9526 49.1527 52.7169 48.9115 53.094 48.5497C53.471 48.1878 53.463 47.4637 54.0324 47.4237C54.6017 47.3836 55.4972 48.0267 55.4972 47.4237C55.4972 46.8206 55.0374 46.5794 54.9374 46.1366C54.8375 45.6942 55.4614 44.8094 54.9374 44.4876C54.4135 44.1659 53.9889 43.0799 54.6961 42.678C55.4028 42.2757 54.8844 41.1097 55.6385 40.9085C56.3927 40.7073 57.0146 40.5062 56.9626 40.1043C56.9106 39.7019 57.9277 39.3207 57.9277 39.3207L57.7798 38.9171C56.3745 39.0799 55.9712 38.5454 55.6941 38.0048Z" fill="url(#paint24_linear_367_106029)" stroke="white" stroke-width="0.5" stroke-miterlimit="10"/>
<path d="M52.012 35.0073C51.9997 34.984 51.993 34.9589 51.9854 34.9343" stroke="white" stroke-width="0.5" stroke-miterlimit="10"/>
<path d="M51.9665 34.8588C51.964 34.8323 51.9691 34.803 51.9716 34.7747C51.9691 34.8035 51.964 34.8327 51.9665 34.8588Z" fill="url(#paint25_linear_367_106029)" stroke="white" stroke-width="0.5" stroke-miterlimit="10"/>
<path d="M52.2805 35.2829C52.2491 35.2599 52.2202 35.2373 52.1934 35.2147" stroke="white" stroke-width="0.5" stroke-miterlimit="10"/>
<path d="M52.7991 35.6004C52.739 35.5668 52.68 35.5336 52.626 35.5031C52.6795 35.5336 52.74 35.5672 52.7991 35.6004Z" fill="url(#paint26_linear_367_106029)" stroke="white" stroke-width="0.5" stroke-miterlimit="10"/>
<path d="M52.5035 35.43C52.4608 35.4042 52.4195 35.3787 52.3818 35.3542C52.419 35.3787 52.4613 35.4046 52.5035 35.43Z" fill="url(#paint27_linear_367_106029)" stroke="white" stroke-width="0.5" stroke-miterlimit="10"/>
<path d="M52.1175 35.1455C52.0959 35.1231 52.078 35.1003 52.0605 35.0779C52.0775 35.1003 52.0959 35.1231 52.1175 35.1455Z" fill="url(#paint28_linear_367_106029)" stroke="white" stroke-width="0.5" stroke-miterlimit="10"/>
<path d="M144.565 70.7549C144.488 70.537 143.981 70.0666 143.579 69.5562C143.496 69.6328 143.373 69.6819 143.189 69.6888C142.127 69.7302 141.692 70.2243 141.403 70.5129C141.113 70.8015 141.016 71.2133 140.051 71.2546C139.085 71.296 139.085 72.5318 138.168 72.7791C137.251 73.0263 137.588 74.3449 137.975 74.9216C138.361 75.4984 139.906 76.2402 140.051 76.817C140.196 77.3937 140.244 78.3828 141.113 77.9296C141.982 77.4764 142.368 76.6933 142.03 75.952C141.692 75.2102 142.224 75.128 142.562 74.3039C142.893 73.4958 143.456 73.0875 144.025 73.227C144.118 72.8949 144.238 72.5697 144.377 72.4245C144.715 72.0709 144.678 71.0759 144.565 70.7549Z" fill="url(#paint29_linear_367_106029)" stroke="white" stroke-width="0.5" stroke-miterlimit="10"/>
<path d="M150.142 76.4454C151.012 75.786 151.591 74.2615 151.156 73.3552C150.731 72.4691 149.756 71.5447 149.983 71.1187C149.354 70.9369 148.542 70.9266 148.403 70.6897C148.215 70.3688 148.704 69.0524 148.704 69.0524C148.704 69.0524 148.027 69.1485 147.387 69.5551C146.747 69.9617 147.236 68.8917 146.672 68.8917C146.108 68.8917 146.597 69.8868 146.145 70.0156C145.694 70.1439 145.92 70.722 145.506 71.0429C145.092 71.3638 145.167 70.4648 144.646 70.3365C144.544 70.3115 144.428 70.336 144.306 70.3903C144.437 70.5415 144.536 70.6677 144.566 70.7534C144.679 71.0744 144.716 72.0698 144.378 72.4231C144.238 72.5682 144.119 72.8934 144.025 73.2251C144.036 73.2277 144.048 73.2277 144.059 73.2312C144.638 73.3961 144.406 73.3961 144.908 74.9206C145.411 76.445 145.169 77.5577 146.232 78.8762C147.294 80.1947 146.666 81.4306 147.342 81.9664C148.018 82.5019 148.453 81.431 149.081 82.2137C149.708 82.9964 150.433 82.0901 150.481 81.431C150.529 80.7715 150.046 79.9888 149.95 79.0825C149.853 78.1758 149.273 77.1045 150.142 76.4454Z" fill="url(#paint30_linear_367_106029)" stroke="white" stroke-width="0.5" stroke-miterlimit="10"/>
<path d="M164.53 52.0534C164.53 52.0534 165.544 51.0235 166.365 51.0235C167.186 51.0235 167.765 50.6113 168.345 51.0235C168.924 51.4353 169.697 52.1362 170.131 51.6826C170.566 51.2294 168.876 50.2817 169.021 49.7459C169.165 49.2105 169.069 48.6746 169.986 48.0565C170.904 47.4383 171 46.7379 171 46.1612C171 45.5844 170.517 44.8426 169.841 44.9249C169.166 45.0072 168.296 45.1596 167.669 44.9184C167.041 44.6776 166.752 44.0595 166.172 44.6363C165.593 45.2131 164.917 45.8725 164.917 45.2131C164.917 44.5536 166.413 43.6473 166.076 43.1118C165.738 42.5764 165.11 40.8456 164.724 41.2988C164.338 41.7519 163.807 42.6996 163.517 42.1642C163.227 41.6287 164 41.1752 164.097 40.7634C164.193 40.3511 162.986 40.2279 162.986 39.5684C162.986 38.909 162.165 39.2389 160.91 40.3925C159.654 41.546 159.751 42.2464 158.737 42.0819C157.723 41.9169 156.323 41.8346 155.647 41.4638C154.971 41.0929 153.522 40.887 152.799 42.0819C152.074 43.2768 151.012 44.9662 149.805 45.1308C148.598 45.2958 147.584 45.3367 147.343 45.9962C147.102 46.6552 147.633 47.3147 146.86 47.3561C146.088 47.3974 144.784 47.3561 144.542 48.4274C144.301 49.4986 144.301 50.1577 143.673 50.1577C143.046 50.1577 142.563 50.6108 142.128 50.4049C141.693 50.199 141.162 50.4463 140.631 50.9404C140.1 51.4349 139.521 51.4349 139.28 50.899C139.038 50.3636 138.266 50.0336 137.928 50.3222C137.59 50.6104 138.749 50.899 138.314 51.3522C137.879 51.8053 138.266 52.6294 139.376 52.5057C140.487 52.3821 141.356 52.5057 141.404 53.1239C141.452 53.742 140.197 54.1538 141.114 54.5247C142.032 54.8956 142.08 55.6783 141.5 55.7196C141.5 55.7196 142.664 55.8669 143.211 55.4775C143.76 55.0877 144.573 55.3216 144.646 54.9318C144.719 54.5419 146.729 54.9318 146.729 54.9318C146.729 54.9318 148.099 54.7409 149.287 54.7586C150.475 54.7758 151.342 54.6979 151.571 54.0354C151.799 53.3729 151.754 52.7099 152.302 52.554C152.85 52.398 153.581 51.8523 153.398 51.4624C153.216 51.0726 152.77 50.1762 153.427 50.4881C154.084 50.8 154.951 50.7095 155.728 50.4235C156.504 50.1374 158.012 49.1239 159.154 48.9288C160.296 48.7341 161.392 48.734 161.346 48.383C161.301 48.0323 161.164 47.6033 161.803 47.7984C162.443 47.9931 162.991 47.5447 163.219 47.7498C163.448 47.9544 162.534 48.5393 162.488 49.0071C162.442 49.4749 163.173 50.0207 163.036 50.5273C162.899 51.0339 163.63 50.4493 163.813 50.8779C163.996 51.3065 162.945 52.476 162.168 52.2813C161.391 52.0866 161.301 52.0866 160.798 52.4372C160.296 52.7879 159.884 52.8271 159.747 53.2169C159.61 53.6067 159.416 54.8697 159.993 55.3492C160.524 55.3492 161.489 54.5251 161.489 54.5251L164.53 52.0534Z" fill="url(#paint31_linear_367_106029)" stroke="white" stroke-width="0.5" stroke-miterlimit="10"/>
<path d="M159.642 53.6802C159.228 53.8284 158.683 54.0128 158.468 54.036C158.102 54.0748 157.326 55.1663 156.914 55.2055C156.503 55.2443 155.27 55.4786 155.087 56.0632C154.904 56.6477 154.553 57.1155 154.432 56.9208C154.311 56.7261 154.128 56.375 153.899 56.6869C153.671 56.9988 153.077 57.6613 152.803 58.207C152.529 58.7528 153.579 59.7272 153.26 60.1562C152.94 60.5848 152.712 61.1698 151.798 60.702C150.884 60.2342 150.245 61.7935 150.245 61.7935C150.245 61.7935 149.925 62.5732 150.245 63.041C150.564 63.5088 149.925 64.2105 150.61 64.1713C151.296 64.1321 151.752 64.0545 151.981 63.5475C152.209 63.041 152.117 62.1441 152.848 62.2613C153.579 62.378 154.264 62.7679 154.676 62.456C155.087 62.1441 155.818 61.9494 156.183 61.9882C156.399 62.011 156.977 62.3044 157.417 62.5417C157.426 62.5284 157.432 62.5193 157.432 62.5193C157.432 62.5193 159.991 60.8713 159.604 59.965C159.218 59.0586 159.508 57.5751 159.411 57.0397C159.315 56.5043 159.459 55.3503 159.991 55.3503C159.568 54.9971 159.561 54.2217 159.642 53.6802Z" fill="url(#paint32_linear_367_106029)" stroke="white" stroke-width="0.5" stroke-miterlimit="10"/>
<path d="M157.626 64.4147C156.925 63.4055 157.336 62.6697 157.418 62.5414V62.5418C156.978 62.3045 156.399 62.0111 156.184 61.9883C155.819 61.9495 155.088 62.1442 154.677 62.4561C154.265 62.768 153.58 62.3781 152.85 62.2614C152.119 62.1447 152.21 63.0411 151.982 63.5476C151.753 64.0542 151.297 64.1322 150.611 64.1714C150.409 64.183 150.324 64.1287 150.294 64.0365C149.677 64.1963 149.698 64.6392 149.789 64.9902C149.88 65.3409 149.743 65.8866 149.104 66.1985C148.465 66.5104 148.51 66.6271 148.704 66.9782C148.899 67.3288 148.328 67.6407 148.51 67.9917C148.693 68.3424 148.704 69.0535 148.704 69.0535C148.704 69.0535 148.215 70.3699 148.403 70.6908C148.542 70.9273 149.355 70.9381 149.984 71.1199C149.968 71.1492 149.96 71.181 149.955 71.2146C149.961 71.1698 149.972 71.1268 149.998 71.0902C150.288 70.6779 150.342 71.2138 151.305 71.1315C152.268 71.0492 152.992 70.9665 154.006 71.2965C155.02 71.626 156.517 71.7496 156.034 70.5961C155.551 69.4425 156.275 68.2885 156.854 67.5881C157.432 66.8873 158.398 65.5274 157.626 64.4147Z" fill="url(#paint33_linear_367_106029)" stroke="white" stroke-width="0.5" stroke-miterlimit="10"/>
<path d="M144.303 61.9831C144.303 61.9831 143.31 62.2093 142.725 62.3252C142.139 62.4406 142.678 61.1315 142.724 60.4768C142.768 59.822 141.55 60.2071 140.783 60.2459C140.016 60.2842 140.197 61.0544 139.52 60.7464C138.843 60.4384 138.436 61.6708 138.436 61.6708C138.436 61.6708 136.406 62.133 135.954 61.7479C135.503 61.3628 134.826 61.6708 134.149 61.6325C133.473 61.5942 132.525 61.6713 132.119 61.3245C131.712 60.9778 130.72 61.44 129.998 62.2485C129.684 62.6004 129.25 62.8459 128.86 63.0113C128.939 63.1746 129.043 63.3516 129.186 63.5498C129.814 64.4152 128.945 64.827 129.573 65.2801C130.201 65.7333 131.552 65.3624 131.938 65.8156C132.325 66.2687 134.111 65.1561 135.125 65.486C136.139 65.8156 137.201 65.5683 137.974 65.486C138.746 65.4038 139.905 65.6097 140.774 65.3211C141.643 65.0324 143.236 65.1974 143.43 65.527C143.587 65.7949 144.217 65.7398 144.579 65.8853C145.034 65.5756 145.641 65.1406 145.881 64.8666C146.288 64.4044 145.972 64.1735 145.701 62.9411C145.431 61.7087 144.303 61.9831 144.303 61.9831Z" fill="url(#paint34_linear_367_106029)" stroke="white" stroke-width="0.5" stroke-miterlimit="10"/>
<defs>
<linearGradient id="paint0_linear_367_106029" x1="127.355" y1="128.302" x2="59.3665" y2="-9.69296" gradientUnits="userSpaceOnUse">
<stop stop-color="#5088FF"/>
<stop offset="1" stop-color="#4880FF"/>
</linearGradient>
<linearGradient id="paint1_linear_367_106029" x1="66.5996" y1="157.045" x2="52.3144" y2="132.832" gradientUnits="userSpaceOnUse">
<stop stop-color="#5088FF"/>
<stop offset="1" stop-color="#4880FF"/>
</linearGradient>
<linearGradient id="paint2_linear_367_106029" x1="49.9457" y1="156.869" x2="36.8116" y2="141.194" gradientUnits="userSpaceOnUse">
<stop stop-color="#5088FF"/>
<stop offset="1" stop-color="#4880FF"/>
</linearGradient>
<linearGradient id="paint3_linear_367_106029" x1="87.8693" y1="129.707" x2="75.1169" y2="95.7529" gradientUnits="userSpaceOnUse">
<stop stop-color="#5088FF"/>
<stop offset="1" stop-color="#4880FF"/>
</linearGradient>
<linearGradient id="paint4_linear_367_106029" x1="85.5623" y1="113.237" x2="85.3954" y2="113.078" gradientUnits="userSpaceOnUse">
<stop stop-color="#5088FF"/>
<stop offset="1" stop-color="#4880FF"/>
</linearGradient>
<linearGradient id="paint5_linear_367_106029" x1="85.8426" y1="112.795" x2="85.798" y2="112.694" gradientUnits="userSpaceOnUse">
<stop stop-color="#5088FF"/>
<stop offset="1" stop-color="#4880FF"/>
</linearGradient>
<linearGradient id="paint6_linear_367_106029" x1="100.687" y1="101.437" x2="100.543" y2="101.325" gradientUnits="userSpaceOnUse">
<stop stop-color="#5088FF"/>
<stop offset="1" stop-color="#4880FF"/>
</linearGradient>
<linearGradient id="paint7_linear_367_106029" x1="107.412" y1="102.68" x2="98.2475" y2="78.043" gradientUnits="userSpaceOnUse">
<stop stop-color="#5088FF"/>
<stop offset="1" stop-color="#4880FF"/>
</linearGradient>
<linearGradient id="paint8_linear_367_106029" x1="73.0381" y1="115.264" x2="63.55" y2="95.6465" gradientUnits="userSpaceOnUse">
<stop stop-color="#5088FF"/>
<stop offset="1" stop-color="#4880FF"/>
</linearGradient>
<linearGradient id="paint9_linear_367_106029" x1="54.2295" y1="135.094" x2="35.8641" y2="106.74" gradientUnits="userSpaceOnUse">
<stop stop-color="#5088FF"/>
<stop offset="1" stop-color="#4880FF"/>
</linearGradient>
<linearGradient id="paint10_linear_367_106029" x1="91.2319" y1="101.472" x2="73.5413" y2="77.361" gradientUnits="userSpaceOnUse">
<stop stop-color="#5088FF"/>
<stop offset="1" stop-color="#4880FF"/>
</linearGradient>
<linearGradient id="paint11_linear_367_106029" x1="76.9725" y1="110.471" x2="76.9466" y2="110.414" gradientUnits="userSpaceOnUse">
<stop stop-color="#5088FF"/>
<stop offset="1" stop-color="#4880FF"/>
</linearGradient>
<linearGradient id="paint12_linear_367_106029" x1="77.4987" y1="109.253" x2="77.4873" y2="109.212" gradientUnits="userSpaceOnUse">
<stop stop-color="#5088FF"/>
<stop offset="1" stop-color="#4880FF"/>
</linearGradient>
<linearGradient id="paint13_linear_367_106029" x1="63.6856" y1="112.708" x2="51.562" y2="79.6172" gradientUnits="userSpaceOnUse">
<stop stop-color="#5088FF"/>
<stop offset="1" stop-color="#4880FF"/>
</linearGradient>
<linearGradient id="paint14_linear_367_106029" x1="28.4479" y1="89.209" x2="20.1598" y2="65.5881" gradientUnits="userSpaceOnUse">
<stop stop-color="#5088FF"/>
<stop offset="1" stop-color="#4880FF"/>
</linearGradient>
<linearGradient id="paint15_linear_367_106029" x1="74.5108" y1="83.0551" x2="65.3997" y2="53.044" gradientUnits="userSpaceOnUse">
<stop stop-color="#5088FF"/>
<stop offset="1" stop-color="#4880FF"/>
</linearGradient>
<linearGradient id="paint16_linear_367_106029" x1="123.04" y1="78.6688" x2="104.065" y2="55.7083" gradientUnits="userSpaceOnUse">
<stop stop-color="#5088FF"/>
<stop offset="1" stop-color="#4880FF"/>
</linearGradient>
<linearGradient id="paint17_linear_367_106029" x1="111.009" y1="80.7288" x2="104.366" y2="62.8345" gradientUnits="userSpaceOnUse">
<stop stop-color="#5088FF"/>
<stop offset="1" stop-color="#4880FF"/>
</linearGradient>
<linearGradient id="paint18_linear_367_106029" x1="112.093" y1="68.3315" x2="106.637" y2="51.301" gradientUnits="userSpaceOnUse">
<stop stop-color="#5088FF"/>
<stop offset="1" stop-color="#4880FF"/>
</linearGradient>
<linearGradient id="paint19_linear_367_106029" x1="48.4934" y1="70.4871" x2="34.8019" y2="35.2563" gradientUnits="userSpaceOnUse">
<stop stop-color="#5088FF"/>
<stop offset="1" stop-color="#4880FF"/>
</linearGradient>
<linearGradient id="paint20_linear_367_106029" x1="71.5591" y1="44.8398" x2="66.1764" y2="31.6597" gradientUnits="userSpaceOnUse">
<stop stop-color="#5088FF"/>
<stop offset="1" stop-color="#4880FF"/>
</linearGradient>
<linearGradient id="paint21_linear_367_106029" x1="62.2284" y1="21.9574" x2="53.8323" y2="-3.50679" gradientUnits="userSpaceOnUse">
<stop stop-color="#5088FF"/>
<stop offset="1" stop-color="#4880FF"/>
</linearGradient>
<linearGradient id="paint22_linear_367_106029" x1="61.0598" y1="35.5211" x2="54.9145" y2="21.664" gradientUnits="userSpaceOnUse">
<stop stop-color="#5088FF"/>
<stop offset="1" stop-color="#4880FF"/>
</linearGradient>
<linearGradient id="paint23_linear_367_106029" x1="48.9919" y1="39.5689" x2="42.8318" y2="25.0852" gradientUnits="userSpaceOnUse">
<stop stop-color="#5088FF"/>
<stop offset="1" stop-color="#4880FF"/>
</linearGradient>
<linearGradient id="paint24_linear_367_106029" x1="53.3209" y1="49.9646" x2="45.5621" y2="34.9689" gradientUnits="userSpaceOnUse">
<stop stop-color="#5088FF"/>
<stop offset="1" stop-color="#4880FF"/>
</linearGradient>
<linearGradient id="paint25_linear_367_106029" x1="51.9701" y1="34.8405" x2="51.9585" y2="34.8389" gradientUnits="userSpaceOnUse">
<stop stop-color="#5088FF"/>
<stop offset="1" stop-color="#4880FF"/>
</linearGradient>
<linearGradient id="paint26_linear_367_106029" x1="52.7547" y1="35.5792" x2="52.7273" y2="35.4845" gradientUnits="userSpaceOnUse">
<stop stop-color="#5088FF"/>
<stop offset="1" stop-color="#4880FF"/>
</linearGradient>
<linearGradient id="paint27_linear_367_106029" x1="52.4723" y1="35.4135" x2="52.4491" y2="35.3411" gradientUnits="userSpaceOnUse">
<stop stop-color="#5088FF"/>
<stop offset="1" stop-color="#4880FF"/>
</linearGradient>
<linearGradient id="paint28_linear_367_106029" x1="52.1028" y1="35.1308" x2="52.0711" y2="35.0789" gradientUnits="userSpaceOnUse">
<stop stop-color="#5088FF"/>
<stop offset="1" stop-color="#4880FF"/>
</linearGradient>
<linearGradient id="paint29_linear_367_106029" x1="142.831" y1="76.1938" x2="138.832" y2="69.7246" gradientUnits="userSpaceOnUse">
<stop stop-color="#5088FF"/>
<stop offset="1" stop-color="#4880FF"/>
</linearGradient>
<linearGradient id="paint30_linear_367_106029" x1="149.435" y1="79.5453" x2="142.265" y2="72.0989" gradientUnits="userSpaceOnUse">
<stop stop-color="#5088FF"/>
<stop offset="1" stop-color="#4880FF"/>
</linearGradient>
<linearGradient id="paint31_linear_367_106029" x1="162.494" y1="52.1456" x2="158.308" y2="35.8228" gradientUnits="userSpaceOnUse">
<stop stop-color="#5088FF"/>
<stop offset="1" stop-color="#4880FF"/>
</linearGradient>
<linearGradient id="paint32_linear_367_106029" x1="157.452" y1="61.8847" x2="152.803" y2="53.3698" gradientUnits="userSpaceOnUse">
<stop stop-color="#5088FF"/>
<stop offset="1" stop-color="#4880FF"/>
</linearGradient>
<linearGradient id="paint33_linear_367_106029" x1="155.461" y1="69.4439" x2="151.375" y2="61.4928" gradientUnits="userSpaceOnUse">
<stop stop-color="#5088FF"/>
<stop offset="1" stop-color="#4880FF"/>
</linearGradient>
<linearGradient id="paint34_linear_367_106029" x1="141.656" y1="64.655" x2="140.618" y2="58.6971" gradientUnits="userSpaceOnUse">
<stop stop-color="#5088FF"/>
<stop offset="1" stop-color="#4880FF"/>
</linearGradient>
</defs>
</svg>
