<svg width="127" height="135" viewBox="0 0 127 135" fill="none" xmlns="http://www.w3.org/2000/svg">
<path d="M72.0168 14.7035C70.1259 11.6728 73.3073 3.53351 77.001 2.90187C78.9628 2.56642 80.6672 5.54767 81.3384 6.94103C82.2607 8.85324 82.7391 11.1246 82.5765 13.2399C82.4189 15.2824 87.0821 14.4267 87.2139 12.7254C87.6745 6.74181 83.5691 -1.80438 76.3114 0.336342C70.6331 2.01066 64.084 10.7074 67.7441 16.5765C68.6368 18.0079 73.113 16.4608 72.0168 14.7035Z" fill="white"/>
<path d="M50.7475 61.0808L105.622 63.5385L97.9155 8.19933L53.0066 10.8568L50.7475 61.0808Z" fill="#6A1E3F"/>
<path d="M92.9614 59.1416L61.4262 57.4682L57.3405 17.8392L96.2327 12.6352L92.9614 59.1416ZM62.3898 56.4551L91.9738 58.0251L95.0801 13.8618L58.5039 18.7559L62.3898 56.4551Z" fill="#FAFAFA"/>
<path d="M64.6984 52.8431L61.9082 21.486L93.1507 18.5628L90.475 54.9686L64.6984 52.8431Z" fill="#D1D9E0"/>
<path d="M104.743 30.5666C104.098 26.8374 109.41 22.2648 112.748 24.9856C115.675 27.3721 113.627 32.6183 111.715 34.9603C109.937 37.1379 114.385 37.2463 115.473 35.9142C118.722 31.9354 121.202 23.6918 114.46 21.641C108.707 19.8905 98.928 24.895 100.123 31.8044C100.428 33.5716 105.066 32.4358 104.743 30.5666Z" fill="white" fill-opacity="0.8"/>
<path d="M123.16 62.2764L126.748 36.3671L92.0687 22.6819L72.5377 68.654L73.9996 102.934L112.93 104.395L123.16 62.2764Z" fill="white" fill-opacity="0.8"/>
<path d="M123.333 38.5567L99.1571 99.4157L100.145 99.8082L124.321 38.9492L123.333 38.5567Z" fill="#322A2B"/>
<path d="M77.0192 79.1505L92.2023 29.591L118.776 38.7589L101.048 88.4514L77.0192 79.1505Z" fill="#6A1E3F"/>
<path d="M26.0341 45.0035L26.964 60.0176L45.6091 100.409L87.286 102.137L70.8097 33.4442L26.0341 45.0035Z" fill="#D1D9E0"/>
<path d="M47.8258 96.3255C46.2587 72.5663 28.8672 47.461 28.6914 47.2102L29.5621 46.6011C29.7393 46.8539 47.3005 72.2036 48.8866 96.2555L47.8258 96.3255Z" fill="#322A2B"/>
<path d="M53.9359 86.5913L38.7414 51.3812L69.0938 40.0875L74.8647 81.3431L53.9359 86.5913Z" fill="#6A1E3F" fill-opacity="0.4"/>
<path d="M55.0761 82.7373L43.6758 51.9665L67.4872 44.7498L71.9245 77.26L55.0761 82.7373ZM45.0648 52.6559L55.7183 81.4105L70.7514 76.5235L66.6024 46.1285L45.0648 52.6559Z" fill="#6A1E3F" fill-opacity="0.4"/>
<path d="M46.1221 43.4552C41.9169 40.3187 43.6826 33.3504 47.2231 30.3771C49.6006 28.3817 52.7122 31.5976 53.8082 33.4597C55.121 35.6927 55.5584 38.4232 55.6123 40.972C55.6407 42.3199 60.2687 41.4457 60.2324 39.7342C60.068 31.9529 54.4263 24.5903 46.0011 28.3157C40.2935 30.8394 35.7376 40.6849 41.8208 45.223C43.0817 46.1643 47.2996 44.3338 46.1221 43.4552Z" fill="white"/>
<path d="M74.5199 56.8248C72.0537 55.0775 76.1045 49.8495 77.3593 48.7805C79.4763 46.9767 82.924 46.9228 84.8051 49.031C87.223 51.7389 86.4809 56.6022 85.8554 59.8231C85.5592 61.3521 88.7092 60.9568 88.9753 59.5855C90.0698 53.9473 89.9456 46.2624 82.8472 45.2511C79.0919 44.7161 75.5992 46.6436 73.2607 49.4397C71.529 51.5124 69.2901 56.5755 72.1439 58.5979C73.2531 59.3839 75.9563 57.8429 74.5199 56.8248Z" fill="white"/>
<path d="M100.501 61.2509L105.061 103.856L55.3099 100.479L62.0843 55.9244C62.2429 55.8951 62.4553 55.8572 62.7177 55.8134C63.3541 55.7071 64.2845 55.5661 65.455 55.428C67.7966 55.1518 71.096 54.8878 74.9231 54.9373C82.5209 55.0356 92.1528 56.3688 100.501 61.2509Z" fill="#6A1E3F" stroke="white"/>
<path d="M64.6984 59.2204L97.9155 62.5421L98.4888 99.0806L59.9822 95.4932L64.6984 59.2204Z" fill="#6A1E3F" fill-opacity="0.4"/>
<path d="M94.2967 96.0856L62.72 92.4401L65.6819 64.3228H96.2212L94.2967 96.0856ZM63.8872 91.5047L93.3036 94.9008L95.0921 65.3857H66.6384L63.8872 91.5047Z" fill="white"/>
<path d="M49.597 127.474C47.1718 130.028 43.8469 130.809 42.1709 129.217C40.4942 127.626 41.1015 124.264 43.5264 121.71C45.9516 119.155 49.2768 118.375 50.9541 119.966C52.6301 121.558 52.0231 124.918 49.597 127.474Z" fill="#6A1E3F"/>
<path d="M101.524 131.931C99.0988 134.486 95.7745 135.267 94.0978 133.675C92.4214 132.083 93.0288 128.723 95.4537 126.168C97.8789 123.613 101.205 122.832 102.881 124.424C104.558 126.016 103.95 129.377 101.524 131.931Z" fill="#6A1E3F"/>
<path d="M120.44 117.378C118.014 119.932 114.69 120.713 113.013 119.121C111.336 117.529 111.944 114.169 114.37 111.614C116.794 109.06 120.119 108.279 121.795 109.871C123.472 111.463 122.865 114.824 120.44 117.378Z" fill="#6A1E3F"/>
<path d="M125.329 57.3551L85.118 75.9566L26.2993 58.0673L13.9002 38.7589H8.76099C29.1326 57.1849 50.7475 117.061 50.7475 117.061L104.426 121.844L111.51 110.864L78.0282 107.143L53.5799 114.403L48.9777 102.36L113.461 106.256L125.329 57.3551ZM77.7194 109.046L108.279 111.969L101.902 119.409L58.7195 115.291L77.7194 109.046ZM83.6983 100.941L47.4261 99.745L28.825 62.2764L83.6986 78.3533V100.941H83.6983ZM85.6919 100.941L87.1533 77.9549L121.964 62.2764L112.531 102.934L85.6919 100.941Z" fill="#6A1E3F"/>
<path d="M50.7475 16.3371L1.18776 37.1646C1.18776 37.1646 -1.20374 42.346 5.30661 45.0035L50.7475 22.2249V16.3371Z" fill="#6A1E3F"/>
<path d="M40.0649 87.9298L39.9017 88.98L85.208 96.0229L85.3712 94.9727L40.0649 87.9298Z" fill="#6A1E3F"/>
<path d="M116.733 87.9299L85.2221 92.3137L85.3685 93.3665L116.879 88.9827L116.733 87.9299Z" fill="#6A1E3F"/>
<path d="M34.7783 75.5708L34.5626 76.6113L85.1866 87.1063L85.4023 86.0658L34.7783 75.5708Z" fill="#6A1E3F"/>
<path d="M74.1277 72.4073L73.0692 72.4992L75.5886 101.515L76.6472 101.423L74.1277 72.4073Z" fill="#6A1E3F"/>
<path d="M47.8057 66.2757L46.7704 66.5149L54.8743 101.591L55.9096 101.352L47.8057 66.2757Z" fill="#6A1E3F"/>
<path d="M62.4377 70.0748L61.3786 70.1679L64.1679 101.924L65.227 101.831L62.4377 70.0748Z" fill="#6A1E3F"/>
<path d="M119.673 75.5857L85.1586 84.3381L85.4198 85.3683L119.934 76.616L119.673 75.5857Z" fill="#6A1E3F"/>
<path d="M95.1269 72.4186L92.6126 103.51L93.6717 103.596L96.1859 72.5042L95.1269 72.4186Z" fill="#6A1E3F"/>
<path d="M105.097 67.7344L101.371 104.073L102.428 104.182L106.154 67.8428L105.097 67.7344Z" fill="#6A1E3F"/>
<path d="M114.27 63.46L107.488 104.049L108.536 104.224L115.318 63.6351L114.27 63.46Z" fill="#6A1E3F"/>
</svg>
