<svg width="170" height="121" viewBox="0 0 170 121" fill="none" xmlns="http://www.w3.org/2000/svg">
<path d="M0.151722 112.53L1.49917 120.886L51.2608 110.236L82.2407 119.724C82.2407 119.724 119.804 109.655 120.385 109.462C120.966 109.268 167.436 118.756 167.436 118.756L169.759 111.204C169.759 111.204 133.745 94.5527 131.809 94.5527C129.872 94.5527 106.831 95.1336 106.831 95.1336L83.0153 94.1655C83.0153 94.1655 58.2313 95.3272 56.6823 95.3272C55.1333 95.3272 34.8027 97.8444 34.8027 97.8444C34.8027 97.8444 19.6999 102.298 18.9255 102.298C18.151 102.298 9.24422 105.396 9.24422 105.396L0.151722 112.53Z" fill="#6A1E3F"/>
<path d="M94.1999 108.276C94.443 108.195 119.07 105.116 119.394 105.116C119.718 105.116 145.804 106.575 145.804 106.575L105.785 100.499L94.1999 108.276Z" fill="black"/>
<path d="M17.089 108.989C17.4561 108.989 50.4955 105.96 50.4955 105.96L76.6517 109.723L56.828 100.27H40.2166L17.089 108.989Z" fill="black"/>
<path d="M169.752 111.183C169.397 111.131 116.608 103.295 120.017 103.803C119.661 103.878 97.6649 108.491 99.04 108.202L83.4795 111.474L83.116 111.547C82.7551 111.466 49.1243 103.92 51.1953 104.385L0.151546 112.529C14.824 80.1939 -3.35494 120.161 30.6905 45.2335L45.8511 41.198C46.2114 41.101 58.9147 37.6808 58.1394 37.8895H58.1756L83.2977 47.1605L83.3705 47.1241C83.7266 46.9938 114.782 35.6349 112.892 36.3262C134.641 44.3337 141.226 46.7578 140.74 46.5786C140.975 47.1004 170.266 112.328 169.752 111.183Z" fill="#F2F8FD"/>
<path d="M161.748 107.719C161.382 107.664 115.999 100.919 116.425 100.984L98.951 104.661L97.3128 104.988L83.1516 107.973L82.8241 108.046L54.2106 101.639L53.7009 101.53C-10.0063 111.707 11.9664 108.197 7.21302 108.956C6.43004 110.678 18.3154 84.4365 35.0257 47.6159C35.383 47.5202 60.3897 40.8216 60.0352 40.9175H60.0716L81.9504 48.999L82.9696 49.3632H83.0425L83.7707 49.1084L109.144 39.789L109.945 39.4977L110.127 39.5706L110.819 39.8254L135.319 48.8535C135.478 49.2089 161.908 108.075 161.748 107.719Z" fill="#6A1E3F" fill-opacity="0.2"/>
<path d="M116.436 100.996L98.9432 104.673L97.3198 105.005L83.1396 107.987C83.1065 91.4872 83.0072 60.9074 83.0403 49.3447L109.148 39.803L109.943 39.5047L110.141 39.571L116.436 100.996Z" fill="#6A1E3F" fill-opacity="0.2"/>
<path d="M60.0344 40.9189C59.9992 41.2871 56.9795 72.9107 57.0128 72.5539L56.9766 72.6268C56.9425 72.9844 54.0252 103.578 54.2099 101.641L53.7002 101.532L47.8757 102.478C-7.84966 111.358 11.3701 108.295 7.21225 108.958C7.37452 108.599 15.9025 89.7538 15.3667 90.9379C43.5892 28.7437 6.67068 110.095 35.0249 47.6174C35.3822 47.5216 60.389 40.8231 60.0344 40.9189Z" fill="#6A1E3F" fill-opacity="0.2"/>
<path d="M49.2952 100.184C48.9313 101.022 48.458 101.786 47.8756 102.478C-7.84965 111.358 11.3701 108.295 7.21225 108.958C7.37453 108.599 15.9025 89.7536 15.3667 90.9376L15.8035 91.3018C16.0584 90.2459 17.2233 89.6271 18.3154 89.6271C21.2165 89.5304 26.883 94.6964 32.6586 95.7794C36.6267 96.5076 40.7039 95.4517 44.7083 94.9784C46.3101 94.7965 48.1667 94.7965 49.1861 96.0707C50.0962 97.1992 49.8778 98.8372 49.2952 100.184Z" fill="#6A1E3F" fill-opacity="0.5"/>
<path d="M35.9739 103.205C35.9739 103.678 35.6826 104.078 35.3551 104.479L7.21466 108.957L13.6218 94.7955L14.0222 95.3052C15.0052 94.7955 16.2792 95.2322 17.0802 95.9968C17.8448 96.7614 18.3178 97.817 18.7911 98.8362C19.3008 99.8192 19.8834 100.839 20.8662 101.421C22.5773 102.404 24.6885 101.676 26.6545 101.275C28.9844 100.766 31.4234 100.766 33.7533 101.312C34.7725 101.53 35.9739 102.149 35.9739 103.205Z" fill="#6A1E3F"/>
<path d="M161.758 107.721C157.828 107.139 175.993 109.832 123.326 102.023C121.371 100.963 120.079 98.776 120.112 96.5563C120.145 94.2703 121.57 92.0174 123.69 91.0565C125.612 90.1621 128.063 90.2614 129.588 88.7705C131.675 86.7164 131.078 82.5418 133.729 81.2499C135.22 80.4877 137.009 81.1504 138.566 81.7799C143.502 83.8671 148.472 85.9876 153.177 88.6048C153.338 88.9639 161.919 108.081 161.758 107.721Z" fill="#6A1E3F" fill-opacity="0.5"/>
<path d="M161.76 107.724L127.635 102.655C126.542 101.793 125.581 100.833 124.952 99.64C124.024 97.9502 123.991 95.6311 125.349 94.2728C127.337 92.3843 130.783 93.5106 133.268 92.318C134.527 91.7216 135.454 90.4958 135.719 89.1044C135.951 87.8122 135.752 86.1557 136.912 85.493C137.641 85.1286 138.535 85.3605 139.165 85.8574C139.794 86.3213 140.258 87.0171 140.722 87.6466C142.246 89.5681 144.565 91.1253 146.984 90.7941C149.109 90.4957 151.301 88.6223 153.378 89.0381C153.539 89.3971 162.305 108.939 161.76 107.724Z" fill="#6A1E3F"/>
<path d="M69.8312 83.1858C71.0339 83.7561 71.9487 84.7781 72.8742 85.7348C73.7997 86.6915 74.8253 87.6404 76.1103 87.988C77.3952 88.3355 78.994 87.8717 79.5127 86.6458C80.2605 84.8781 78.6703 83.235 78.6002 81.4231C78.5452 80.0038 79.4086 78.7281 79.7679 77.3539C80.2939 75.3417 79.6213 73.0355 78.0204 71.7079C76.4196 70.3802 73.9511 70.1673 72.204 71.2956C69.7028 72.9108 69.3317 76.1463 69.0801 78.8466L69.8312 83.1858Z" fill="#6A1E3F" fill-opacity="0.5"/>
<path d="M73.3481 83.1403C74.4097 82.773 75.216 81.757 75.3328 80.6397C75.5471 78.5888 73.6471 76.5795 74.3494 74.6407C74.7846 73.4394 76.0495 72.8 77.0462 72.0008C78.2951 70.9995 79.2456 69.5172 79.2599 67.9166C79.2741 66.316 78.1587 64.6758 76.5795 64.4145C75.5321 64.2411 75.2266 64.4227 67.293 66.5877C63.327 67.67 59.1849 68.8492 56.2122 71.6887C55.9777 71.9127 63.852 78.5302 64.5932 79.0864C66.6646 80.6409 70.4356 84.1482 73.3481 83.1403Z" fill="#6A1E3F"/>
<path d="M51.5297 43.2174C40.1534 57.3629 22.6618 78.9503 18.2 84.6643L20.9829 78.6013C25.2569 73.2011 33.3739 63.0629 48.8461 43.9464L51.5297 43.2174Z" fill="#6A1E3F"/>
<path d="M137.937 54.6824C135.088 59.4532 130.516 66.974 125.977 74.5278C125.679 74.9917 125.414 75.4555 125.115 75.9524C121.869 81.3196 118.688 86.6207 116.203 90.762C115.939 91.2247 115.229 91.316 114.878 90.8945L98.6106 73.1032C98.6769 83.2081 98.8094 95.6654 98.942 104.677L97.3186 105.008C97.2523 101.927 97.2191 98.4153 97.1528 94.7708C97.1528 94.2407 97.1198 93.6776 97.1198 93.1142C97.0535 85.5273 96.9872 77.4102 96.9211 70.9828C96.9211 70.1869 97.8944 69.8659 98.3789 70.4196L115.342 88.9399C116.833 86.4551 120.278 80.7896 124.088 74.4947C128.793 66.6758 134.094 57.8631 137.109 52.8603L137.937 54.6824Z" fill="#6A1E3F"/>
<path d="M97.4193 94.7703H97.4098L82.9116 94.5891C82.725 94.5875 82.5448 94.5179 82.4009 94.395L56.233 71.962C55.759 71.5567 55.8859 70.7758 56.4718 70.5514L82.6397 60.6008C83.0539 60.4422 83.525 60.6606 83.68 61.0893C83.8349 61.518 83.6215 61.9936 83.2025 62.1538L58.3406 71.6077L83.2199 92.9358L97.4288 93.1137C97.8762 93.1202 98.2335 93.4939 98.2288 93.9517C98.224 94.4063 97.862 94.7703 97.4193 94.7703Z" fill="#6A1E3F"/>
<path d="M83.7705 49.1087C83.734 53.6228 83.5521 81.4354 83.5521 81.9451C83.5521 83.2159 81.7319 83.1819 81.7319 81.9451C81.7319 81.4354 81.9139 53.1859 81.9503 48.9994L82.9695 49.3636H83.0424L83.7705 49.1087Z" fill="#6A1E3F"/>
<path d="M53.7133 96.1791L55.9652 64.9829C55.9992 64.5267 56.4165 64.1724 56.8517 64.2161C57.3079 64.2501 57.6509 64.6464 57.6185 65.1026L55.3667 96.2987C55.2847 97.4006 53.6355 97.2773 53.7133 96.1791Z" fill="#6A1E3F"/>
<path d="M153.938 90.2979L125.114 75.9521L124.451 75.6209C124.054 75.4221 123.888 74.925 124.087 74.4943C124.286 74.0968 124.783 73.9312 125.214 74.1299L125.975 74.5275L152.845 87.8794L153.938 90.2979Z" fill="#6A1E3F"/>
<path d="M113.321 60.5756C113.387 61.0394 113.056 61.437 112.592 61.5033H112.493C112.095 61.5033 111.731 61.2051 111.698 60.7746L109.147 39.8026L109.942 39.5043L110.836 39.8358L113.321 60.5756Z" fill="#6A1E3F"/>
<path d="M54.1211 85.4847L32.3489 66.1733C31.9925 65.8565 31.9619 65.3133 32.2828 64.9612C32.6053 64.6074 33.1536 64.5806 33.5102 64.8958L55.2823 84.2071C55.6388 84.524 55.6693 85.0672 55.3485 85.4193C55.0326 85.7683 54.482 85.8047 54.1211 85.4847Z" fill="#6A1E3F"/>
<path d="M7.20535 109.124C7.07325 109.124 6.99188 108.986 7.04435 108.875C12.2137 97.5129 22.0346 75.8385 22.1939 75.1322C22.1939 74.9127 22.5453 74.9036 22.5453 75.1565C22.5453 75.6239 11.2182 100.556 7.50484 108.717C41.7594 103.026 40.0817 103.041 40.1324 103.395C40.1479 103.492 40.0839 103.584 39.9869 103.6C39.6222 103.661 4.99827 109.498 7.20535 109.124Z" fill="black"/>
<path d="M161.76 107.898C161.751 107.898 161.743 107.898 161.732 107.896C116.107 100.746 118.564 101.395 118.621 101.04C118.672 100.686 116.033 100.547 161.473 107.498L158.523 100.509C158.485 100.419 158.526 100.315 158.616 100.277C158.706 100.23 158.812 100.28 158.848 100.371L161.923 107.652C161.974 107.768 161.888 107.898 161.76 107.898Z" fill="black"/>
<path d="M39.391 0.0586127C27.1958 0.632409 17.7671 11.4988 18.3132 24.2782C18.6407 31.7774 22.3176 38.2436 27.7417 42.261L40.1192 55.2317L44.3419 55.27L43.5412 51.6351L51.5137 43.2558H51.5501C58.3941 39.0088 62.8352 31.0504 62.4349 22.1737C61.9051 10.0454 52.4358 -0.384108 39.391 0.0586127ZM43.8689 33.6141C39.1 33.0784 35.3867 28.8694 35.3867 23.7042C35.3867 18.5771 39.1 14.3301 43.8689 13.7943H43.9415C48.7104 14.3301 52.4237 18.5771 52.4237 23.7042C52.4237 28.8694 48.7104 33.0784 43.9415 33.6141C43.9415 33.6141 43.9051 33.6141 43.8689 33.6141Z" fill="#6A1E3F"/>
<path d="M40.8838 0.404048C21.5369 3.81577 15.7444 30.3631 31.9648 42.2622C32.3038 42.6186 44.8229 55.7767 44.342 55.2712L55.7729 43.257C58.5761 41.5352 60.9424 39.2013 62.7626 36.4466C73.8773 19.6426 59.8611 -3.33244 40.8838 0.404048ZM43.8689 13.7956H43.9416C48.7105 14.3313 52.4238 18.5783 52.4238 23.7055C52.4238 28.8707 48.7105 33.0796 43.9416 33.6153C43.9416 33.6153 43.9051 33.6153 43.8689 33.6153C39.1 33.0796 35.3867 28.8707 35.3867 23.7055C35.3867 18.5783 39.1 14.3313 43.8689 13.7956Z" fill="#6A1E3F"/>
<path d="M62.7612 36.4475C60.941 39.2022 58.5746 41.5361 55.7714 43.2579L44.3405 55.2721C44.0027 54.9171 31.6255 41.908 31.9633 42.2631C15.7332 30.3568 21.5444 3.81504 40.8823 0.404915C29.3086 8.23151 25.9784 23.808 31.9633 35.8352C36.6599 45.2141 44.405 47.3115 53.296 42.7222C56.6451 41.0387 59.6667 38.6284 62.7612 36.4475Z" fill="#6A1E3F"/>
<path d="M54.2782 23.7044C54.2782 29.2141 50.0552 33.6523 44.813 33.6523C44.522 33.6523 44.2307 33.6523 43.9394 33.6143C48.7083 33.0786 52.4215 28.8696 52.4215 23.7044C52.4215 18.5773 48.7083 14.3303 43.9394 13.7945C49.0747 13.1235 54.2782 17.6046 54.2782 23.7044Z" fill="black"/>
<path d="M51.6226 47.6175L44.3418 55.2698L37.8256 48.421C41.6785 51.2792 45.9254 51.3172 48.6376 49.6071C49.6646 48.9842 50.7021 47.9406 51.6226 47.6175Z" fill="black"/>
<path d="M30.5608 41.1778C22.7255 34.8898 20.048 22.6022 24.4376 13.7351C24.5372 13.5318 24.8626 13.6772 24.7561 13.8944C20.5121 22.3824 23.143 34.7694 30.7824 40.9008C33.5921 43.1565 36.085 45.8122 38.1918 48.795C38.2472 48.8746 38.2282 48.9854 38.1485 49.0425C37.5984 49.4093 36.585 46.0144 30.5608 41.1778Z" fill="black"/>
<path d="M82.9703 49.5379C82.9495 49.5379 82.9288 49.5345 82.9097 49.5276L71.458 45.3295C71.2376 45.2504 71.3588 44.915 71.5792 44.9971L82.9703 49.1727L110.067 39.4036C110.286 39.322 110.41 39.6565 110.188 39.736L83.0309 49.5276C83.0119 49.5345 82.9911 49.5379 82.9703 49.5379Z" fill="black"/>
<path d="M121.959 63.8243C122.401 62.4638 121.841 60.8801 120.736 59.996C119.049 58.6457 118.357 61.5056 119.271 63.355C119.846 64.5161 121.365 65.6531 121.959 63.8243Z" fill="white"/>
<path d="M124.634 57.67C124.867 56.9538 124.572 56.1201 123.991 55.6546C123.103 54.9438 122.738 56.4494 123.22 57.423C123.522 58.0342 124.321 58.6328 124.634 57.67Z" fill="white"/>
<path d="M57.9987 19.6897C59.0804 20.4732 61.0806 19.4858 60.2938 17.1063C59.8734 15.835 58.7212 14.5143 57.725 14.2926C56.6048 14.0433 56.0959 15.1987 56.2474 16.1415C56.4132 17.1734 57.1438 19.0706 57.9987 19.6897Z" fill="white"/>
<path d="M54.139 11.1129C54.8842 11.6525 56.2619 10.9724 55.7199 9.33342C55.4304 8.45773 54.6367 7.54807 53.9506 7.39534C53.179 7.22359 52.8284 8.01944 52.9328 8.66886C53.047 9.37962 53.5502 10.6864 54.139 11.1129Z" fill="white"/>
</svg>
