<svg width="152" height="152" viewBox="0 0 152 152" fill="none" xmlns="http://www.w3.org/2000/svg">
<path opacity="0.2" d="M133 42.75L116.066 97.7966C115.468 99.7386 114.263 101.438 112.628 102.644C110.992 103.851 109.014 104.501 106.982 104.5H49.9162C47.8516 104.501 45.8428 103.829 44.194 102.586C42.5453 101.344 41.3462 99.5976 40.7784 97.6125L25.1094 42.75H133Z" fill="#6B705C"/>
<path d="M57 128.25C57 130.129 56.4428 131.966 55.399 133.528C54.3551 135.09 52.8714 136.308 51.1355 137.027C49.3996 137.746 47.4895 137.934 45.6466 137.567C43.8038 137.201 42.1111 136.296 40.7825 134.968C39.4539 133.639 38.5491 131.946 38.1825 130.103C37.816 128.261 38.0041 126.35 38.7231 124.615C39.4422 122.879 40.6598 121.395 42.2221 120.351C43.7844 119.307 45.6211 118.75 47.5 118.75C50.0196 118.75 52.4359 119.751 54.2175 121.532C55.9991 123.314 57 125.73 57 128.25ZM109.25 118.75C107.371 118.75 105.534 119.307 103.972 120.351C102.41 121.395 101.192 122.879 100.473 124.615C99.7541 126.35 99.566 128.261 99.9325 130.103C100.299 131.946 101.204 133.639 102.532 134.968C103.861 136.296 105.554 137.201 107.397 137.567C109.239 137.934 111.15 137.746 112.885 137.027C114.621 136.308 116.105 135.09 117.149 133.528C118.193 131.966 118.75 130.129 118.75 128.25C118.75 125.73 117.749 123.314 115.968 121.532C114.186 119.751 111.77 118.75 109.25 118.75ZM137.542 44.1453L120.602 99.1919C119.715 102.11 117.911 104.664 115.458 106.476C113.004 108.288 110.032 109.261 106.982 109.25H49.9166C46.823 109.238 43.8164 108.225 41.347 106.361C38.8777 104.498 37.0784 101.885 36.2188 98.9128L14.7369 23.75H4.75C3.49022 23.75 2.28204 23.2496 1.39124 22.3588C0.500445 21.468 0 20.2598 0 19C0 17.7402 0.500445 16.532 1.39124 15.6412C2.28204 14.7504 3.49022 14.25 4.75 14.25H14.7369C16.7996 14.2568 18.8047 14.9316 20.4519 16.1731C22.0992 17.4147 23.3 19.1564 23.8747 21.1375L28.69 38H133C133.743 37.9997 134.476 38.1739 135.14 38.5085C135.804 38.8432 136.38 39.3289 136.822 39.9266C137.263 40.5244 137.559 41.2175 137.684 41.9502C137.809 42.6829 137.761 43.4348 137.542 44.1453ZM126.57 47.5H31.4034L45.3506 96.3062C45.6344 97.2983 46.2334 98.171 47.0572 98.7923C47.881 99.4136 48.8847 99.7498 49.9166 99.75H106.982C107.998 99.7504 108.988 99.4247 109.806 98.8209C110.623 98.217 111.225 97.3669 111.524 96.3953L126.57 47.5Z" fill="#6B705C"/>
</svg>
