<svg width="151" height="145" viewBox="0 0 151 145" fill="none" xmlns="http://www.w3.org/2000/svg">
<path d="M132.109 144.061H71.9682L77.0007 62.3688H132.109V144.061Z" fill="#6A1E3F" fill-opacity="0.6"/>
<path d="M132.105 144.061L140.154 134.562L150.151 132.725L137.909 60.1854L82.6638 57.7843L84.194 59.7276L77.0006 62.3719H132.105V144.061Z" fill="#6A1E3F"/>
<path d="M77.0006 62.3687L132.105 63.0922L132.96 61.0497L137.909 60.1854L82.6638 57.7843L82.0876 60.0701L77.0006 62.3687Z" fill="#2D1929"/>
<path d="M123.321 61.6387C123.189 61.6386 123.061 61.598 122.953 61.5224C122.846 61.4468 122.764 61.3399 122.719 61.2161C121.697 58.4025 121.067 55.4617 120.846 52.4764C120.312 45.0845 122.617 41.1149 120.398 38.6786C118.99 37.1324 116.496 36.9147 114.492 36.7578C112.264 36.6487 110.037 36.9816 107.939 37.7374C102.496 39.8119 97.9567 49.6208 97.1276 61.0625C97.1215 61.1463 97.099 61.2282 97.0612 61.3033C97.0235 61.3785 96.9713 61.4455 96.9077 61.5005C96.8441 61.5555 96.7703 61.5974 96.6904 61.6239C96.6106 61.6503 96.5264 61.6608 96.4425 61.6547C96.3586 61.6486 96.2768 61.6261 96.2016 61.5883C96.1264 61.5506 96.0595 61.4985 96.0045 61.4348C95.9495 61.3712 95.9075 61.2974 95.8811 61.2176C95.8546 61.1377 95.8441 61.0535 95.8502 60.9696C96.7274 48.8621 101.51 38.8195 107.484 36.5433C109.759 35.7079 112.181 35.3473 114.601 35.4837C116.841 35.6758 119.601 35.9159 121.346 37.8303C124.115 40.8716 121.579 44.8732 122.124 52.3996C122.336 55.2678 122.942 58.0933 123.923 60.7967C123.955 60.8925 123.963 60.9944 123.948 61.0942C123.933 61.1939 123.895 61.2887 123.836 61.3708C123.777 61.4529 123.7 61.5199 123.611 61.5665C123.521 61.613 123.422 61.6378 123.321 61.6387Z" fill="#231F20"/>
<path d="M109.574 108.001C107.974 109.124 106.866 110.828 106.286 113.123C105.422 117.07 106.363 121.491 109.574 123.764C115.433 127.904 123.039 124.206 123.039 115.87C123.039 107.629 115.478 103.829 109.574 108.001ZM117.158 119.183C116.617 121.933 115.762 123.326 114.597 123.326C113.979 123.326 113.4 122.938 112.894 122.125C111.613 120.204 111.613 117.49 111.613 115.316C111.613 112.8 112.039 110.904 112.894 109.589C113.4 108.776 113.979 108.388 114.597 108.388C115.756 108.388 116.61 109.782 117.158 112.569C117.47 114.763 117.47 116.989 117.158 119.183Z" fill="white"/>
<path d="M103.77 89.8905C104.648 87.3464 104.648 84.5817 103.77 82.0376C101.645 76.3136 95.5748 74.825 90.9649 78.0903C86.1372 81.5094 86.1628 90.4507 90.9649 93.8378C95.5748 97.1095 101.648 95.6145 103.77 89.8905ZM94.2526 92.2147C92.9977 90.2939 93.0137 87.5375 93.0137 85.4022C93.0137 82.8411 93.4395 80.9555 94.2526 79.6782C94.7905 78.8651 95.3731 78.4777 95.9942 78.4777C97.1531 78.4777 98.0068 79.8714 98.5553 82.6587C98.8674 84.8523 98.8674 87.079 98.5553 89.2726C98.0142 92.0194 97.1627 93.4152 95.9942 93.4152C95.3731 93.4152 94.7905 93.0278 94.2526 92.2147Z" fill="white"/>
<path d="M114.76 75.459C114.345 75.4902 113.947 75.6377 113.611 75.8845C113.275 76.1313 113.016 76.4675 112.862 76.8548C100.72 109.086 94.6495 125.285 94.6495 125.451C94.6338 125.633 94.6876 125.814 94.7999 125.957C95.3249 126.869 97.0633 126.229 97.5499 124.952C109.662 92.7249 115.723 76.524 115.734 76.349C115.724 75.7695 115.417 75.459 114.76 75.459Z" fill="white"/>
<path d="M82.9327 144.061H6.90703C13.1353 110.455 13.1353 75.9915 6.90703 42.386H82.9327C87.9887 76.089 87.9887 110.358 82.9327 144.061Z" fill="#6A1E3F"/>
<path d="M84.7255 56.4079C83.9772 53.1318 83.8383 49.746 84.3157 46.4197C84.6359 44.1243 84.988 41.9378 86.4895 39.5784C87.8734 37.4442 89.8078 35.7232 92.0886 34.5971L16.2167 32.4202C16.2167 32.4202 1.49045 30.048 8.43418 51.4458L84.7255 56.4079Z" fill="#6A1E3F"/>
<path d="M20.3305 68.9699H29.5024V78.4075H20.3305V68.9699Z" fill="white"/>
<path d="M64.8963 52.7519H33.3085C32.3343 52.7519 31.5446 53.5416 31.5446 54.5158V54.6439C31.5446 55.6181 32.3343 56.4078 33.3085 56.4078H64.8963C65.8705 56.4078 66.6602 55.6181 66.6602 54.6439V54.5158C66.6602 53.5416 65.8705 52.7519 64.8963 52.7519Z" fill="white"/>
<path d="M72.8582 72.0304H34.967C34.7471 72.0304 34.5362 71.943 34.3807 71.7875C34.2252 71.632 34.1379 71.4211 34.1379 71.2012C34.1379 70.9813 34.2252 70.7704 34.3807 70.6149C34.5362 70.4595 34.7471 70.3721 34.967 70.3721H72.8582C73.0781 70.3721 73.289 70.4595 73.4445 70.6149C73.6 70.7704 73.6874 70.9813 73.6874 71.2012C73.6874 71.4211 73.6 71.632 73.4445 71.7875C73.289 71.943 73.0781 72.0304 72.8582 72.0304Z" fill="white"/>
<path d="M61.455 76.6949H34.967C34.7471 76.6949 34.5362 76.6075 34.3807 76.452C34.2252 76.2965 34.1379 76.0856 34.1379 75.8657C34.1379 75.6458 34.2252 75.4349 34.3807 75.2794C34.5362 75.1239 34.7471 75.0366 34.967 75.0366H61.455C61.6749 75.0366 61.8858 75.1239 62.0413 75.2794C62.1968 75.4349 62.2841 75.6458 62.2841 75.8657C62.2841 76.0856 62.1968 76.2965 62.0413 76.452C61.8858 76.6075 61.6749 76.6949 61.455 76.6949Z" fill="white"/>
<path d="M19.2932 88.5044H28.4651V97.942H19.2932V88.5044Z" fill="white"/>
<path d="M71.8209 91.5586H33.9297C33.7098 91.5586 33.4989 91.4713 33.3434 91.3158C33.1879 91.1603 33.1006 90.9494 33.1006 90.7295C33.1006 90.5096 33.1879 90.2987 33.3434 90.1432C33.4989 89.9877 33.7098 89.9003 33.9297 89.9003H71.8209C72.0408 89.9003 72.2517 89.9877 72.4072 90.1432C72.5627 90.2987 72.65 90.5096 72.65 90.7295C72.65 90.9494 72.5627 91.1603 72.4072 91.3158C72.2517 91.4713 72.0408 91.5586 71.8209 91.5586Z" fill="white"/>
<path d="M60.4209 96.2293H33.9297C33.7098 96.2293 33.4989 96.142 33.3434 95.9865C33.1879 95.831 33.1006 95.6201 33.1006 95.4002C33.1006 95.1803 33.1879 94.9694 33.3434 94.8139C33.4989 94.6584 33.7098 94.571 33.9297 94.571H60.4209C60.6408 94.571 60.8517 94.6584 61.0072 94.8139C61.1627 94.9694 61.25 95.1803 61.25 95.4002C61.25 95.6201 61.1627 95.831 61.0072 95.9865C60.8517 96.142 60.6408 96.2293 60.4209 96.2293Z" fill="white"/>
<path d="M18.2559 108.039H27.4278V117.477H18.2559V108.039Z" fill="white"/>
<path d="M70.7836 111.087H32.8924C32.6725 111.087 32.4616 110.999 32.3061 110.844C32.1506 110.688 32.0633 110.478 32.0633 110.258C32.0633 110.038 32.1506 109.827 32.3061 109.671C32.4616 109.516 32.6725 109.429 32.8924 109.429H70.7836C71.0035 109.429 71.2144 109.516 71.3699 109.671C71.5254 109.827 71.6127 110.038 71.6127 110.258C71.6127 110.478 71.5254 110.688 71.3699 110.844C71.2144 110.999 71.0035 111.087 70.7836 111.087Z" fill="white"/>
<path d="M59.3836 115.761H32.8924C32.6725 115.761 32.4616 115.673 32.3061 115.518C32.1506 115.362 32.0633 115.151 32.0633 114.932C32.0633 114.712 32.1506 114.501 32.3061 114.345C32.4616 114.19 32.6725 114.102 32.8924 114.102H59.3836C59.6035 114.102 59.8144 114.19 59.9699 114.345C60.1254 114.501 60.2127 114.712 60.2127 114.932C60.2127 115.151 60.1254 115.362 59.9699 115.518C59.8144 115.673 59.6035 115.761 59.3836 115.761Z" fill="white"/>
<path d="M5.6847 83.4026L5.92387 83.358C7.71053 83.0254 8.88927 81.3074 8.55665 79.5208L7.46288 73.6455C7.13026 71.8588 5.41225 70.68 3.62559 71.0127L3.38642 71.0572C1.59976 71.3898 0.421019 73.1078 0.753633 74.8945L1.84741 80.7698C2.18002 82.5564 3.89804 83.7352 5.6847 83.4026Z" fill="#E73F46"/>
<path d="M18.083 130.817L11.3737 132.066L0.980223 76.2361L7.68947 74.9871L18.083 130.817Z" fill="white"/>
<path d="M18.115 130.794L16.4983 140.789L11.4146 132.043C11.4146 132.043 13.9212 126.681 18.115 130.794Z" fill="#E73F46"/>
<path d="M15.541 129.562L13.8008 129.885L3.71439 75.7057L5.45464 75.3817L15.541 129.562Z" fill="#6A1E3F"/>
<path d="M16.6678 141.657C16.7553 141.647 16.8399 141.62 16.9163 141.576C16.9927 141.532 17.0593 141.473 17.1118 141.403C17.1644 141.332 17.2019 141.251 17.2219 141.166C17.2418 141.08 17.2439 140.991 17.228 140.904L16.799 138.587C16.7568 138.423 16.6542 138.282 16.5119 138.191C16.3696 138.101 16.1982 138.068 16.0324 138.098C15.8666 138.129 15.7186 138.222 15.6185 138.358C15.5183 138.494 15.4735 138.662 15.4929 138.83L15.9219 141.144C15.953 141.311 16.049 141.459 16.1888 141.555C16.3287 141.651 16.501 141.687 16.6678 141.657Z" fill="#2D1929"/>
<path d="M63.2218 30.5697C63.2218 30.5697 64.1822 43.8009 52.158 44.3355C56.0891 45.5685 60.3142 45.4922 64.1982 44.1179C72.4801 41.099 75.3165 33.1853 75.6911 32.0808L63.2218 30.5697Z" fill="white"/>
<path d="M71.824 37.904C82.2909 37.904 90.776 29.4189 90.776 18.952C90.776 8.48509 82.2909 0 71.824 0C61.3571 0 52.872 8.48509 52.872 18.952C52.872 29.4189 61.3571 37.904 71.824 37.904Z" fill="#6A1E3F"/>
<path d="M73.527 8.05464H70.1207C69.4011 8.05464 68.8178 8.63799 68.8178 9.35759V28.5497C68.8178 29.2693 69.4011 29.8526 70.1207 29.8526H73.527C74.2466 29.8526 74.8299 29.2693 74.8299 28.5497V9.35759C74.8299 8.63799 74.2466 8.05464 73.527 8.05464Z" fill="white"/>
<path d="M60.9267 17.2519V20.6582C60.9267 21.3778 61.51 21.9611 62.2296 21.9611H81.4217C82.1413 21.9611 82.7246 21.3778 82.7246 20.6582V17.2519C82.7246 16.5323 82.1413 15.949 81.4217 15.949H62.2296C61.51 15.949 60.9267 16.5323 60.9267 17.2519Z" fill="white"/>
</svg>
