<svg width="124" height="124" viewBox="0 0 124 124" fill="none" xmlns="http://www.w3.org/2000/svg">
<circle cx="62" cy="62" r="62" fill="#FAFDF1"/>
<path opacity="0.2" d="M84.6685 55.3641C84.6685 69.75 61.9998 81.9562 61.9998 81.9562C61.9998 81.9562 39.3311 69.75 39.3311 55.3641C39.3311 52.2424 40.5711 49.2486 42.7785 47.0412C44.9859 44.8338 47.9797 43.5938 51.1014 43.5938C56.0253 43.5938 60.243 46.2769 61.9998 50.5687C63.7566 46.2769 67.9743 43.5938 72.8982 43.5938C76.0199 43.5938 79.0137 44.8338 81.2211 47.0412C83.4285 49.2486 84.6685 52.2424 84.6685 55.3641Z" fill="#6B705C"/>
<path d="M72.8979 41.8496C68.3968 41.8496 64.4559 43.7852 61.9994 47.0569C59.5429 43.7852 55.602 41.8496 51.101 41.8496C47.5181 41.8536 44.0831 43.2787 41.5496 45.8122C39.016 48.3458 37.591 51.7808 37.5869 55.3637C37.5869 70.6215 60.2099 82.9716 61.1733 83.4816C61.4272 83.6182 61.7111 83.6897 61.9994 83.6897C62.2878 83.6897 62.5716 83.6182 62.8255 83.4816C63.7889 82.9716 86.4119 70.6215 86.4119 55.3637C86.4079 51.7808 84.9828 48.3458 82.4493 45.8122C79.9158 43.2787 76.4808 41.8536 72.8979 41.8496ZM61.9994 79.9505C58.0193 77.6314 41.0744 67.0664 41.0744 55.3637C41.0779 52.7055 42.1354 50.1572 44.0149 48.2776C45.8945 46.398 48.4428 45.3406 51.101 45.3371C55.3405 45.3371 58.8999 47.5953 60.3864 51.2223C60.5178 51.5421 60.7413 51.8156 61.0285 52.0081C61.3157 52.2007 61.6537 52.3034 61.9994 52.3034C62.3452 52.3034 62.6831 52.2007 62.9703 52.0081C63.2575 51.8156 63.481 51.5421 63.6124 51.2223C65.0989 47.5887 68.6584 45.3371 72.8979 45.3371C75.556 45.3406 78.1043 46.398 79.9839 48.2776C81.8635 50.1572 82.921 52.7055 82.9244 55.3637C82.9244 67.049 65.9752 77.6292 61.9994 79.9505Z" fill="#6B705C"/>
</svg>
